<svg id="svg" version="1.1" viewBox="-80 0 500 300" width="400" height="399.2901508429458" xmlns="http://www.w3.org/2000/svg" xmlns:xlink="http://www.w3.org/1999/xlink" style="display: block;"><g id="svgg"><path id="path0" d="" stroke="none" fill="#000000" fill-rule="evenodd"></path><path id="path1" d="" stroke="none" fill="#808080" fill-rule="evenodd"></path><path id="path2" d="" stroke="none" fill="#aaaaaa" fill-rule="evenodd"></path><path id="path3" d="" stroke="none" fill="#bfbfbf" fill-rule="evenodd"></path><path id="path4" d="M12.422 0.339 C 10.494 0.909,9.938 1.160,9.938 1.461 C 9.938 1.634,9.720 1.775,9.453 1.775 C 9.187 1.775,8.548 2.106,8.034 2.510 C 7.519 2.915,7.098 3.183,7.098 3.106 C 7.098 3.029,6.172 3.856,5.040 4.944 C 3.908 6.031,3.016 6.974,3.058 7.039 C 3.101 7.104,2.829 7.464,2.455 7.838 C 2.081 8.212,1.775 8.838,1.775 9.228 C 1.775 9.618,1.654 9.938,1.506 9.938 C 1.359 9.938,0.999 10.457,0.708 11.091 C -0.020 12.674,-0.104 98.338,0.621 98.580 C 0.865 98.662,1.065 99.034,1.065 99.408 C 1.065 99.783,1.207 100.089,1.381 100.089 C 1.555 100.089,1.796 100.481,1.917 100.961 C 2.529 103.403,9.940 109.317,12.387 109.317 C 12.797 109.317,13.132 109.476,13.132 109.672 C 13.132 109.906,27.388 110.027,55.191 110.027 C 78.742 110.027,97.249 109.891,97.249 109.718 C 97.249 109.549,97.925 109.320,98.750 109.209 C 99.576 109.098,100.308 108.838,100.377 108.630 C 100.446 108.422,100.809 108.252,101.183 108.252 C 101.557 108.252,101.863 108.092,101.863 107.897 C 101.863 107.702,102.030 107.542,102.234 107.542 C 102.438 107.542,102.974 107.183,103.424 106.744 C 103.875 106.304,104.626 105.605,105.094 105.190 C 107.376 103.167,109.317 100.415,109.317 99.203 C 109.317 98.909,109.476 98.669,109.672 98.669 C 109.867 98.669,110.027 98.190,110.027 97.604 C 110.027 97.019,110.186 96.539,110.382 96.539 C 110.616 96.539,110.736 82.402,110.736 54.836 C 110.736 27.270,110.616 13.132,110.382 13.132 C 110.186 13.132,110.027 12.742,110.027 12.266 C 110.027 11.789,109.879 11.308,109.699 11.197 C 109.519 11.086,109.274 10.557,109.155 10.023 C 108.743 8.178,103.230 2.302,101.519 1.884 C 101.025 1.764,100.541 1.570,100.444 1.454 C 99.359 0.161,99.978 0.179,55.901 0.127 C 32.476 0.100,12.910 0.195,12.422 0.339 M157.232 0.339 C 155.344 0.897,154.747 1.158,154.747 1.423 C 154.747 1.574,154.387 1.788,153.946 1.899 C 152.258 2.323,147.336 7.084,146.402 9.197 C 146.093 9.898,145.688 10.748,145.502 11.087 C 145.316 11.426,145.164 12.015,145.164 12.397 C 145.164 12.778,145.004 13.189,144.809 13.310 C 144.318 13.613,144.318 96.539,144.809 96.539 C 145.004 96.539,145.164 97.019,145.164 97.604 C 145.164 98.190,145.324 98.669,145.519 98.669 C 145.714 98.669,145.874 98.909,145.874 99.203 C 145.874 100.012,147.097 102.124,148.233 103.275 C 148.790 103.840,149.423 104.512,149.639 104.768 C 150.533 105.831,153.826 108.252,154.378 108.252 C 154.581 108.252,154.747 108.402,154.747 108.585 C 154.747 108.768,155.466 109.026,156.344 109.158 C 157.223 109.290,157.941 109.539,157.941 109.712 C 157.941 109.893,175.789 110.027,200.000 110.027 C 224.211 110.027,242.059 109.893,242.059 109.712 C 242.059 109.539,242.777 109.290,243.656 109.158 C 244.534 109.026,245.253 108.807,245.253 108.672 C 245.253 108.536,245.750 108.205,246.357 107.936 C 247.369 107.489,249.357 105.911,250.349 104.768 C 250.572 104.512,251.210 103.840,251.767 103.275 C 252.903 102.124,254.126 100.012,254.126 99.203 C 254.126 98.909,254.286 98.669,254.481 98.669 C 254.676 98.669,254.836 98.190,254.836 97.604 C 254.836 97.019,254.996 96.539,255.191 96.539 C 255.682 96.539,255.682 13.613,255.191 13.310 C 254.996 13.189,254.836 12.710,254.836 12.245 C 254.836 11.780,254.688 11.308,254.508 11.197 C 254.328 11.086,254.084 10.553,253.965 10.014 C 253.555 8.146,248.721 3.056,246.382 2.029 C 245.859 1.800,245.350 1.529,245.253 1.427 C 244.035 0.160,244.691 0.179,200.710 0.127 C 177.285 0.100,157.720 0.195,157.232 0.339 M302.041 0.339 C 300.160 0.895,299.556 1.157,299.556 1.417 C 299.556 1.565,299.096 1.778,298.534 1.890 C 297.217 2.154,292.086 7.236,291.259 9.096 C 290.924 9.852,290.497 10.748,290.311 11.087 C 290.125 11.426,289.973 12.024,289.973 12.418 C 289.973 12.811,289.814 13.132,289.618 13.132 C 289.384 13.132,289.264 27.270,289.264 54.836 C 289.264 82.402,289.384 96.539,289.618 96.539 C 289.814 96.539,289.973 97.019,289.973 97.604 C 289.973 98.190,290.133 98.669,290.328 98.669 C 290.524 98.669,290.683 98.909,290.683 99.203 C 290.683 99.913,291.896 102.146,292.701 102.919 C 293.055 103.258,293.672 103.919,294.071 104.386 C 294.471 104.853,295.411 105.714,296.161 106.300 C 296.912 106.886,297.731 107.564,297.983 107.808 C 298.235 108.052,298.679 108.252,298.969 108.252 C 299.260 108.252,299.554 108.422,299.623 108.630 C 299.692 108.838,300.424 109.098,301.250 109.209 C 302.075 109.320,302.751 109.549,302.751 109.718 C 302.751 109.891,321.258 110.027,344.809 110.027 C 372.612 110.027,386.868 109.906,386.868 109.672 C 386.868 109.476,387.227 109.313,387.666 109.309 C 388.672 109.299,392.631 107.390,392.311 107.070 C 392.180 106.939,392.263 106.832,392.495 106.832 C 393.193 106.832,397.824 101.996,398.072 101.008 C 398.199 100.502,398.445 100.089,398.619 100.089 C 398.793 100.089,398.935 99.783,398.935 99.408 C 398.935 99.034,399.135 98.662,399.379 98.580 C 400.104 98.338,400.020 12.674,399.292 11.091 C 399.001 10.457,398.641 9.938,398.494 9.938 C 398.346 9.938,398.225 9.625,398.225 9.242 C 398.225 8.859,397.876 8.220,397.449 7.822 C 397.021 7.424,396.758 7.098,396.864 7.098 C 396.970 7.098,396.161 6.178,395.068 5.052 C 393.974 3.927,392.959 3.058,392.813 3.121 C 392.666 3.185,392.547 3.086,392.547 2.903 C 392.547 2.720,392.028 2.361,391.393 2.104 C 390.759 1.847,390.160 1.549,390.062 1.440 C 388.913 0.161,389.545 0.179,345.519 0.127 C 322.094 0.100,302.529 0.195,302.041 0.339 M13.132 144.809 C 13.132 145.004,12.837 145.164,12.477 145.164 C 12.116 145.164,11.358 145.380,10.791 145.644 C 10.224 145.907,9.201 146.383,8.518 146.700 C 7.835 147.018,7.401 147.281,7.554 147.286 C 7.708 147.290,7.229 147.813,6.490 148.447 C 3.946 150.630,2.078 152.787,1.882 153.766 C 1.774 154.306,1.585 154.747,1.462 154.747 C 0.212 154.747,0.177 155.942,0.177 199.645 C 0.177 243.348,0.212 244.543,1.462 244.543 C 1.585 244.543,1.776 244.994,1.886 245.544 C 2.083 246.530,6.794 251.642,7.506 251.642 C 7.695 251.642,7.772 251.767,7.677 251.921 C 7.582 252.075,8.012 252.414,8.633 252.675 C 9.253 252.936,10.224 253.369,10.791 253.638 C 11.358 253.906,12.116 254.126,12.477 254.126 C 12.837 254.126,13.132 254.286,13.132 254.481 C 13.132 254.716,27.388 254.836,55.191 254.836 C 82.993 254.836,97.249 254.716,97.249 254.481 C 97.249 254.286,97.728 254.126,98.314 254.126 C 98.900 254.126,99.379 253.966,99.379 253.771 C 99.379 253.576,99.554 253.416,99.769 253.416 C 100.541 253.416,102.773 252.169,103.885 251.117 C 104.509 250.527,105.227 249.862,105.482 249.639 C 107.270 248.074,109.317 244.994,109.317 243.868 C 109.317 243.654,109.476 243.478,109.672 243.478 C 109.867 243.478,110.027 242.999,110.027 242.413 C 110.027 241.828,110.186 241.349,110.382 241.349 C 110.616 241.349,110.736 227.211,110.736 199.645 C 110.736 172.079,110.616 157.941,110.382 157.941 C 110.186 157.941,110.027 157.462,110.027 156.877 C 110.027 156.291,109.867 155.812,109.672 155.812 C 109.476 155.812,109.317 155.636,109.317 155.422 C 109.317 154.296,107.270 151.216,105.482 149.651 C 105.227 149.428,104.509 148.763,103.885 148.173 C 102.773 147.121,100.541 145.874,99.769 145.874 C 99.554 145.874,99.379 145.714,99.379 145.519 C 99.379 145.324,98.900 145.164,98.314 145.164 C 97.728 145.164,97.249 145.004,97.249 144.809 C 97.249 144.575,82.993 144.454,55.191 144.454 C 27.388 144.454,13.132 144.575,13.132 144.809 M157.941 144.809 C 157.941 145.004,157.620 145.164,157.227 145.164 C 156.834 145.164,156.235 145.316,155.896 145.502 C 155.557 145.688,154.654 146.118,153.889 146.458 C 152.056 147.273,147.252 152.061,146.463 153.860 C 146.120 154.641,145.688 155.557,145.502 155.896 C 145.316 156.235,145.164 156.834,145.164 157.227 C 145.164 157.620,145.004 157.941,144.809 157.941 C 144.575 157.941,144.454 172.079,144.454 199.645 C 144.454 227.211,144.575 241.349,144.809 241.349 C 145.004 241.349,145.164 241.670,145.164 242.063 C 145.164 242.456,145.316 243.055,145.502 243.394 C 145.688 243.733,146.120 244.650,146.463 245.430 C 147.252 247.229,152.056 252.017,153.889 252.832 C 154.654 253.172,155.557 253.603,155.896 253.788 C 156.235 253.974,156.834 254.126,157.227 254.126 C 157.620 254.126,157.941 254.286,157.941 254.481 C 157.941 254.716,172.198 254.836,200.000 254.836 C 227.802 254.836,242.059 254.716,242.059 254.481 C 242.059 254.286,242.380 254.126,242.773 254.126 C 243.166 254.126,243.765 253.974,244.104 253.788 C 244.443 253.603,245.346 253.172,246.111 252.832 C 247.944 252.017,252.748 247.229,253.537 245.430 C 253.880 244.650,254.312 243.733,254.498 243.394 C 254.684 243.055,254.836 242.456,254.836 242.063 C 254.836 241.670,254.996 241.349,255.191 241.349 C 255.425 241.349,255.546 227.211,255.546 199.645 C 255.546 172.079,255.425 157.941,255.191 157.941 C 254.996 157.941,254.836 157.620,254.836 157.227 C 254.836 156.834,254.684 156.235,254.498 155.896 C 254.312 155.557,253.880 154.641,253.537 153.860 C 252.748 152.061,247.944 147.273,246.111 146.458 C 245.346 146.118,244.443 145.688,244.104 145.502 C 243.765 145.316,243.166 145.164,242.773 145.164 C 242.380 145.164,242.059 145.004,242.059 144.809 C 242.059 144.575,227.802 144.454,200.000 144.454 C 172.198 144.454,157.941 144.575,157.941 144.809 M302.751 144.809 C 302.751 145.004,302.272 145.164,301.686 145.164 C 301.100 145.164,300.621 145.324,300.621 145.519 C 300.621 145.714,300.446 145.874,300.231 145.874 C 299.459 145.874,297.227 147.121,296.115 148.173 C 295.491 148.763,294.773 149.428,294.518 149.651 C 292.730 151.216,290.683 154.296,290.683 155.422 C 290.683 155.636,290.524 155.812,290.328 155.812 C 290.133 155.812,289.973 156.291,289.973 156.877 C 289.973 157.462,289.814 157.941,289.618 157.941 C 289.384 157.941,289.264 172.079,289.264 199.645 C 289.264 227.211,289.384 241.349,289.618 241.349 C 289.814 241.349,289.973 241.828,289.973 242.413 C 289.973 242.999,290.133 243.478,290.328 243.478 C 290.524 243.478,290.683 243.654,290.683 243.868 C 290.683 244.994,292.730 248.074,294.518 249.639 C 294.773 249.862,295.491 250.527,296.115 251.117 C 297.227 252.169,299.459 253.416,300.231 253.416 C 300.446 253.416,300.621 253.576,300.621 253.771 C 300.621 253.966,301.100 254.126,301.686 254.126 C 302.272 254.126,302.751 254.286,302.751 254.481 C 302.751 254.716,317.007 254.836,344.809 254.836 C 372.612 254.836,386.868 254.716,386.868 254.481 C 386.868 254.286,387.189 254.126,387.582 254.126 C 387.976 254.126,388.574 253.974,388.913 253.788 C 389.252 253.603,390.130 253.185,390.863 252.859 C 392.665 252.061,397.859 246.816,398.115 245.538 C 398.225 244.991,398.415 244.543,398.538 244.543 C 399.788 244.543,399.823 243.348,399.823 199.645 C 399.823 155.942,399.788 154.747,398.538 154.747 C 398.415 154.747,398.225 154.299,398.115 153.752 C 397.859 152.474,392.665 147.230,390.863 146.431 C 390.130 146.106,389.252 145.688,388.913 145.502 C 388.574 145.316,387.976 145.164,387.582 145.164 C 387.189 145.164,386.868 145.004,386.868 144.809 C 386.868 144.575,372.612 144.454,344.809 144.454 C 317.007 144.454,302.751 144.575,302.751 144.809 M13.132 289.618 C 13.132 289.814,12.797 289.973,12.387 289.973 C 9.940 289.973,2.529 295.887,1.917 298.329 C 1.796 298.809,1.555 299.201,1.381 299.201 C 1.207 299.201,1.065 299.508,1.065 299.882 C 1.065 300.256,0.865 300.629,0.621 300.710 C -0.104 300.952,-0.020 386.616,0.708 388.199 C 0.999 388.833,1.359 389.352,1.506 389.352 C 1.654 389.352,1.775 389.672,1.775 390.062 C 1.775 390.453,2.094 391.091,2.484 391.482 C 2.875 391.872,3.143 392.192,3.080 392.192 C 3.018 392.192,3.856 393.118,4.944 394.250 C 6.031 395.382,6.982 396.266,7.057 396.214 C 7.132 396.162,7.593 396.433,8.081 396.817 C 8.569 397.201,9.187 397.516,9.453 397.516 C 9.720 397.516,9.938 397.636,9.938 397.784 C 9.938 399.086,10.858 399.113,55.191 399.113 C 99.265 399.113,100.444 399.079,100.444 397.828 C 100.444 397.705,100.883 397.516,101.420 397.408 C 103.149 397.059,108.726 391.190,109.155 389.268 C 109.274 388.733,109.519 388.205,109.699 388.093 C 109.879 387.982,110.027 387.501,110.027 387.024 C 110.027 386.548,110.186 386.158,110.382 386.158 C 110.616 386.158,110.736 372.020,110.736 344.454 C 110.736 316.888,110.616 302.751,110.382 302.751 C 110.186 302.751,110.027 302.272,110.027 301.686 C 110.027 301.100,109.867 300.621,109.672 300.621 C 109.476 300.621,109.317 300.381,109.317 300.087 C 109.317 298.875,107.376 296.124,105.094 294.100 C 104.626 293.685,103.875 292.986,103.424 292.547 C 102.974 292.107,102.438 291.748,102.234 291.748 C 102.030 291.748,101.863 291.588,101.863 291.393 C 101.863 291.198,101.557 291.038,101.183 291.038 C 100.809 291.038,100.446 290.868,100.377 290.660 C 100.308 290.453,99.576 290.192,98.750 290.081 C 97.925 289.971,97.249 289.741,97.249 289.572 C 97.249 289.399,78.742 289.264,55.191 289.264 C 27.388 289.264,13.132 289.384,13.132 289.618 M157.941 289.578 C 157.941 289.751,157.223 290.001,156.344 290.132 C 155.466 290.264,154.747 290.522,154.747 290.705 C 154.747 290.888,154.581 291.038,154.378 291.038 C 153.826 291.038,150.533 293.459,149.639 294.522 C 149.423 294.779,148.790 295.450,148.233 296.015 C 147.097 297.166,145.874 299.278,145.874 300.087 C 145.874 300.381,145.714 300.621,145.519 300.621 C 145.324 300.621,145.164 301.100,145.164 301.686 C 145.164 302.272,145.004 302.751,144.809 302.751 C 144.575 302.751,144.454 316.822,144.454 344.256 C 144.454 371.543,144.576 385.836,144.809 385.980 C 145.004 386.101,145.164 386.512,145.164 386.894 C 145.164 387.275,145.316 387.865,145.502 388.204 C 145.688 388.543,146.087 389.380,146.389 390.064 C 147.307 392.147,152.286 396.972,153.949 397.391 C 154.388 397.502,154.747 397.696,154.747 397.822 C 154.747 399.080,155.890 399.113,200.000 399.113 C 244.110 399.113,245.253 399.080,245.253 397.822 C 245.253 397.696,245.613 397.502,246.054 397.391 C 248.046 396.891,253.528 391.269,253.965 389.276 C 254.084 388.737,254.328 388.205,254.508 388.093 C 254.688 387.982,254.836 387.510,254.836 387.045 C 254.836 386.580,254.996 386.101,255.191 385.980 C 255.424 385.836,255.546 371.543,255.546 344.256 C 255.546 316.822,255.425 302.751,255.191 302.751 C 254.996 302.751,254.836 302.272,254.836 301.686 C 254.836 301.100,254.676 300.621,254.481 300.621 C 254.286 300.621,254.126 300.381,254.126 300.087 C 254.126 299.278,252.903 297.166,251.767 296.015 C 251.210 295.450,250.572 294.779,250.349 294.522 C 249.357 293.379,247.369 291.802,246.357 291.354 C 245.750 291.085,245.253 290.754,245.253 290.618 C 245.253 290.483,244.534 290.264,243.656 290.132 C 242.777 290.001,242.059 289.751,242.059 289.578 C 242.059 289.397,224.211 289.264,200.000 289.264 C 175.789 289.264,157.941 289.397,157.941 289.578 M302.751 289.572 C 302.751 289.741,302.075 289.971,301.250 290.081 C 300.424 290.192,299.692 290.453,299.623 290.660 C 299.554 290.868,299.260 291.038,298.969 291.038 C 298.679 291.038,298.235 291.238,297.983 291.482 C 297.731 291.726,296.912 292.405,296.161 292.990 C 295.411 293.576,294.471 294.437,294.071 294.904 C 293.672 295.372,293.055 296.032,292.701 296.372 C 291.896 297.145,290.683 299.377,290.683 300.087 C 290.683 300.381,290.524 300.621,290.328 300.621 C 290.133 300.621,289.973 301.100,289.973 301.686 C 289.973 302.272,289.814 302.751,289.618 302.751 C 289.384 302.751,289.264 316.888,289.264 344.454 C 289.264 372.020,289.384 386.158,289.618 386.158 C 289.814 386.158,289.973 386.480,289.973 386.873 C 289.973 387.266,290.125 387.865,290.311 388.204 C 290.497 388.543,290.923 389.436,291.257 390.190 C 292.103 392.094,297.165 397.126,298.504 397.394 C 299.083 397.510,299.556 397.705,299.556 397.828 C 299.556 399.079,300.733 399.113,344.844 399.113 C 389.182 399.113,388.926 399.120,390.062 397.851 C 390.160 397.742,390.759 397.443,391.393 397.186 C 392.028 396.930,392.547 396.570,392.547 396.387 C 392.547 396.204,392.666 396.106,392.813 396.169 C 392.959 396.232,393.974 395.363,395.068 394.238 C 396.161 393.112,396.970 392.192,396.864 392.192 C 396.758 392.192,397.021 391.866,397.449 391.468 C 397.876 391.070,398.225 390.431,398.225 390.048 C 398.225 389.665,398.346 389.352,398.494 389.352 C 398.641 389.352,399.001 388.833,399.292 388.199 C 400.020 386.616,400.104 300.952,399.379 300.710 C 399.135 300.629,398.935 300.256,398.935 299.882 C 398.935 299.508,398.793 299.201,398.619 299.201 C 398.445 299.201,398.199 298.788,398.072 298.282 C 397.824 297.294,393.193 292.458,392.495 292.458 C 392.263 292.458,392.180 292.351,392.311 292.220 C 392.631 291.900,388.672 289.991,387.666 289.981 C 387.227 289.977,386.868 289.814,386.868 289.618 C 386.868 289.384,372.612 289.264,344.809 289.264 C 321.258 289.264,302.751 289.399,302.751 289.572 " stroke="none" fill="#f3f3f3" fill-rule="evenodd"></path></g></svg>