<?xml version="1.0" encoding="utf-8"?>
<svg id="svg" version="1.1" viewBox="-80 0 500 300" width="400" height="400" xmlns="http://www.w3.org/2000/svg" xmlns:xlink="http://www.w3.org/1999/xlink" style="display: block;">
	<g id="svgg">
		<path id="path0" d="" stroke="none" fill="#000000" fill-rule="evenodd"></path>
		<path id="path1" d="M102.788 384.215 C 131.071 384.263,177.453 384.263,205.860 384.215 C 234.267 384.167,211.126 384.127,154.437 384.127 C 97.747 384.127,74.505 384.167,102.788 384.215 " stroke="none" fill="#808080" fill-rule="evenodd"></path><path id="path2" d="" stroke="none" fill="#aaaaaa" fill-rule="evenodd"></path><path id="path3" d="" stroke="none" fill="#d5d5d5" fill-rule="evenodd"></path><path id="path4" d="M165.794 6.333 C 165.718 6.410,164.897 6.541,163.971 6.626 C 160.357 6.955,153.807 8.500,151.671 9.527 C 150.940 9.878,149.673 10.365,148.855 10.608 C 148.038 10.852,147.292 11.252,147.198 11.498 C 147.103 11.744,146.756 11.945,146.426 11.945 C 146.096 11.945,145.458 12.214,145.008 12.543 C 143.934 13.327,143.111 13.835,141.536 14.688 C 140.823 15.073,140.154 15.613,140.049 15.886 C 139.944 16.159,139.629 16.382,139.349 16.382 C 138.615 16.382,129.936 25.201,129.272 26.621 C 128.965 27.278,128.409 28.141,128.037 28.539 C 127.665 28.936,126.944 30.088,126.434 31.099 C 125.925 32.109,125.336 33.048,125.126 33.186 C 124.916 33.324,124.877 33.439,125.039 33.442 C 125.202 33.445,125.105 33.797,124.825 34.225 C 124.031 35.437,122.179 40.243,121.705 42.321 L 121.277 44.198 105.007 44.287 L 88.737 44.375 88.737 50.485 L 88.737 56.595 67.150 56.754 C 46.606 56.905,42.352 57.097,39.451 58.004 C 38.871 58.186,36.926 58.652,35.129 59.041 C 33.332 59.430,31.297 60.051,30.608 60.420 C 29.918 60.790,29.173 61.092,28.951 61.092 C 28.336 61.092,22.518 64.117,21.343 65.047 C 20.773 65.498,19.854 66.213,19.299 66.637 C 18.009 67.621,14.334 71.211,14.334 71.486 C 14.334 71.601,13.797 72.233,13.140 72.890 C 12.483 73.547,11.945 74.309,11.945 74.585 C 11.945 74.860,11.809 75.085,11.642 75.085 C 11.287 75.085,8.140 81.454,7.510 83.447 C 7.272 84.198,6.948 84.978,6.788 85.180 C 6.629 85.383,6.444 85.844,6.378 86.204 C 6.312 86.565,6.089 87.474,5.884 88.225 C 5.678 88.976,5.332 90.819,5.116 92.321 C 4.899 93.823,4.542 95.420,4.323 95.871 C 3.629 97.298,3.771 345.051,4.465 345.051 C 4.637 345.051,4.778 345.474,4.778 345.990 C 4.778 347.507,6.066 353.827,6.621 355.034 C 6.902 355.644,7.461 357.142,7.864 358.362 C 8.267 359.582,8.774 360.693,8.991 360.831 C 9.208 360.969,9.274 361.084,9.139 361.087 C 9.003 361.090,9.348 361.867,9.906 362.814 C 10.465 363.760,10.922 364.618,10.922 364.719 C 10.922 364.820,11.459 365.558,12.116 366.360 C 12.773 367.162,13.311 367.901,13.311 368.003 C 13.311 368.223,14.683 369.846,16.468 371.737 C 17.172 372.483,17.747 372.981,17.747 372.844 C 17.747 372.707,18.208 373.077,18.771 373.666 C 19.334 374.256,19.798 374.624,19.800 374.485 C 19.803 374.346,19.924 374.418,20.068 374.645 C 20.361 375.106,24.524 377.863,25.075 377.961 C 25.269 377.995,25.964 378.315,26.621 378.672 C 27.278 379.028,28.008 379.282,28.242 379.235 C 28.477 379.189,28.669 379.307,28.669 379.497 C 28.669 379.688,29.782 380.165,31.143 380.557 C 32.504 380.949,33.868 381.404,34.174 381.568 C 35.545 382.302,44.130 383.491,49.403 383.677 C 50.388 383.711,51.195 383.827,51.195 383.935 C 51.195 384.042,97.654 384.091,154.437 384.043 L 257.679 383.957 257.679 372.354 L 257.679 360.751 153.299 360.751 C 95.890 360.751,48.806 360.637,48.667 360.498 C 48.428 360.260,46.237 360.024,43.771 359.972 C 43.161 359.959,42.662 359.847,42.662 359.722 C 42.662 359.597,41.844 359.311,40.844 359.087 C 39.845 358.864,38.455 358.374,37.756 358.000 C 37.057 357.625,36.315 357.423,36.108 357.552 C 35.889 357.687,35.827 357.629,35.959 357.415 C 36.085 357.212,35.904 356.956,35.558 356.846 C 34.539 356.523,30.717 352.611,30.717 351.892 C 30.717 351.696,30.563 351.536,30.375 351.536 C 30.188 351.536,30.034 351.401,30.034 351.236 C 30.034 351.071,29.777 350.342,29.462 349.615 C 29.148 348.888,28.839 347.986,28.776 347.611 C 28.713 347.235,28.562 346.698,28.440 346.416 C 28.319 346.135,28.256 345.690,28.300 345.429 C 28.344 345.167,28.224 344.857,28.033 344.739 C 26.398 343.728,26.386 96.567,28.021 95.961 C 28.190 95.899,28.328 95.485,28.328 95.042 C 28.328 94.088,30.039 89.299,30.439 89.135 C 30.592 89.073,30.717 88.817,30.717 88.567 C 30.717 88.316,30.835 88.060,30.979 87.998 C 31.123 87.935,31.563 87.467,31.957 86.957 C 33.597 84.835,37.260 82.529,39.724 82.066 C 40.398 81.940,40.876 81.718,40.787 81.573 C 40.260 80.720,46.288 80.428,67.150 80.298 L 88.737 80.163 88.737 106.123 L 88.737 132.083 169.369 131.997 L 250.000 131.911 250.087 106.037 L 250.175 80.164 274.490 80.295 C 298.100 80.423,302.694 80.620,303.925 81.561 C 304.113 81.705,304.881 82.014,305.631 82.248 C 307.413 82.804,309.221 83.645,309.929 84.246 C 310.763 84.954,313.071 87.239,313.590 87.870 C 314.070 88.453,315.710 92.007,315.667 92.370 C 315.653 92.488,315.791 92.680,315.973 92.795 C 317.524 93.772,317.554 95.101,317.742 170.819 L 317.918 242.150 329.437 242.240 L 340.956 242.330 340.956 171.833 C 340.956 99.705,340.831 92.254,339.610 91.474 C 339.458 91.377,339.227 90.606,339.097 89.761 C 338.883 88.370,338.141 85.607,337.631 84.300 C 337.521 84.019,337.405 83.712,337.373 83.618 C 337.341 83.524,337.152 83.063,336.953 82.594 C 336.754 82.125,336.328 81.088,336.006 80.290 C 335.684 79.492,335.308 78.840,335.171 78.840 C 335.034 78.840,334.720 78.229,334.474 77.483 C 334.228 76.737,333.780 75.854,333.478 75.521 C 333.176 75.187,332.662 74.498,332.335 73.988 C 331.044 71.975,325.405 66.240,324.009 65.520 C 323.475 65.244,322.915 64.826,322.765 64.591 C 322.614 64.356,322.353 64.164,322.184 64.164 C 322.015 64.164,320.986 63.626,319.898 62.970 C 318.809 62.313,317.150 61.525,316.212 61.218 C 315.273 60.911,314.315 60.510,314.083 60.326 C 313.599 59.943,307.355 58.374,306.286 58.367 C 305.894 58.364,305.460 58.247,305.321 58.106 C 304.415 57.192,298.689 56.942,274.829 56.773 L 250.171 56.598 250.171 50.486 L 250.171 44.375 233.757 44.287 L 217.343 44.198 216.898 42.906 C 216.654 42.195,216.424 41.504,216.387 41.370 C 216.350 41.236,216.104 40.608,215.839 39.975 C 215.575 39.342,215.358 38.628,215.358 38.388 C 215.358 37.780,212.647 32.043,212.016 31.314 C 211.731 30.985,211.605 30.717,211.735 30.717 C 211.866 30.717,211.800 30.525,211.590 30.290 C 211.380 30.055,210.798 29.233,210.297 28.462 C 209.796 27.691,208.965 26.429,208.451 25.659 C 207.561 24.325,201.262 17.747,200.875 17.747 C 200.682 17.747,199.822 17.061,198.448 15.811 C 198.000 15.404,197.294 14.962,196.879 14.831 C 196.464 14.699,195.751 14.245,195.294 13.821 C 194.837 13.397,193.674 12.687,192.709 12.243 C 191.745 11.799,190.790 11.282,190.587 11.093 C 190.384 10.905,189.309 10.450,188.198 10.081 C 187.087 9.713,186.084 9.278,185.969 9.114 C 185.854 8.950,185.662 8.829,185.542 8.845 C 185.422 8.861,185.286 8.862,185.239 8.848 C 184.642 8.665,183.566 8.426,180.546 7.805 C 178.575 7.400,176.732 6.985,176.451 6.883 C 175.508 6.540,166.074 6.054,165.794 6.333 M174.865 30.335 C 175.135 30.558,175.486 30.711,175.647 30.675 C 175.807 30.638,176.169 30.708,176.451 30.829 C 176.732 30.951,177.807 31.338,178.840 31.689 C 179.872 32.040,181.314 32.733,182.044 33.229 C 182.774 33.724,183.524 34.130,183.711 34.130 C 183.897 34.130,184.336 34.460,184.687 34.865 C 185.037 35.269,185.324 35.502,185.324 35.384 C 185.324 35.136,188.376 38.214,190.015 40.115 C 190.624 40.821,191.383 41.990,191.702 42.713 C 192.021 43.436,192.415 44.027,192.577 44.027 C 192.740 44.027,192.778 44.181,192.662 44.369 C 192.546 44.556,192.593 44.710,192.766 44.710 C 193.953 44.710,195.249 52.517,195.443 60.836 L 195.592 67.235 211.106 67.235 L 226.621 67.235 226.621 87.884 L 226.621 108.532 169.283 108.532 L 111.945 108.532 111.945 87.884 L 111.945 67.235 127.645 67.235 L 143.345 67.235 143.353 59.471 C 143.361 52.516,143.585 49.720,144.263 48.123 C 144.382 47.841,144.507 47.534,144.541 47.440 C 145.354 45.141,146.640 42.681,148.114 40.607 C 149.160 39.136,153.511 34.812,153.946 34.812 C 154.122 34.812,154.266 34.659,154.266 34.471 C 154.266 34.283,154.427 34.130,154.624 34.130 C 154.821 34.130,155.857 33.569,156.928 32.885 C 157.998 32.200,158.951 31.656,159.044 31.675 C 159.305 31.729,162.878 30.715,163.652 30.369 C 165.341 29.611,173.962 29.585,174.865 30.335 M77.816 183.276 L 77.816 194.881 172.355 194.881 L 266.894 194.881 266.894 183.276 L 266.894 171.672 172.355 171.672 L 77.816 171.672 77.816 183.276 M77.816 240.102 L 77.816 251.877 172.359 251.877 L 266.903 251.877 266.813 240.188 L 266.724 228.498 172.270 228.412 L 77.816 228.326 77.816 240.102 M316.952 260.495 C 316.849 260.917,316.659 262.223,316.530 263.396 C 316.400 264.569,316.162 265.529,316.001 265.529 C 315.839 265.529,315.720 265.875,315.735 266.297 C 315.750 266.719,315.681 267.526,315.583 268.089 C 315.274 269.857,313.993 278.521,313.993 278.845 C 313.993 279.014,312.958 279.473,311.693 279.864 C 310.429 280.254,309.032 280.811,308.590 281.101 C 307.752 281.649,306.143 281.497,306.143 280.870 C 306.143 280.680,305.849 280.414,305.490 280.279 C 305.131 280.144,304.324 279.609,303.698 279.089 C 301.580 277.331,298.373 275.085,297.980 275.085 C 297.765 275.085,297.501 274.855,297.393 274.573 C 297.285 274.292,297.053 274.061,296.877 274.061 C 296.702 274.061,296.373 273.901,296.146 273.704 C 294.875 272.602,292.026 270.648,291.689 270.648 C 291.473 270.648,287.340 274.625,282.505 279.486 C 273.769 288.268,273.289 288.876,274.396 289.761 C 274.513 289.855,274.959 290.508,275.387 291.212 C 275.815 291.916,276.278 292.491,276.416 292.491 C 276.553 292.491,277.005 293.094,277.419 293.831 C 277.833 294.567,278.289 295.220,278.434 295.281 C 278.578 295.342,279.196 296.213,279.808 297.217 C 280.420 298.220,281.066 299.218,281.244 299.435 C 284.712 303.663,284.932 304.272,283.800 306.524 C 283.338 307.445,282.799 308.794,282.604 309.520 L 282.248 310.842 279.690 311.081 C 278.284 311.213,277.133 311.433,277.133 311.569 C 277.133 311.706,274.445 312.182,271.160 312.628 C 267.875 313.074,265.188 313.563,265.188 313.716 C 265.188 313.868,264.727 313.993,264.164 313.993 L 263.140 313.993 263.140 326.898 L 263.140 339.802 270.392 340.894 C 274.381 341.494,278.029 342.076,278.498 342.185 C 278.968 342.295,279.932 342.464,280.642 342.560 C 281.940 342.737,282.935 343.884,282.935 345.205 C 282.935 345.496,283.098 345.734,283.297 345.734 C 283.495 345.734,283.563 345.887,283.447 346.075 C 283.331 346.263,283.399 346.416,283.598 346.416 C 283.796 346.416,283.959 346.689,283.959 347.023 C 283.959 347.357,284.186 347.954,284.464 348.351 C 284.919 349.001,284.902 349.157,284.294 349.931 C 283.922 350.404,283.618 350.963,283.618 351.174 C 283.618 351.385,283.407 351.638,283.149 351.737 C 282.892 351.836,282.268 352.676,281.763 353.603 C 281.258 354.531,280.701 355.290,280.525 355.290 C 280.349 355.290,280.205 355.450,280.205 355.646 C 280.205 355.842,279.845 356.391,279.405 356.865 C 278.964 357.340,278.235 358.349,277.783 359.108 C 277.332 359.867,276.694 360.778,276.365 361.131 C 276.037 361.485,275.768 361.928,275.768 362.116 C 275.768 362.304,275.614 362.457,275.427 362.457 C 275.239 362.457,275.085 362.680,275.085 362.952 C 275.085 363.225,274.875 363.570,274.618 363.720 C 274.361 363.870,274.037 364.358,273.899 364.804 C 273.726 365.361,273.765 365.541,274.025 365.381 C 274.233 365.253,274.403 365.330,274.403 365.552 C 274.403 366.167,291.217 382.921,291.841 382.929 C 292.141 382.932,292.668 382.623,293.013 382.242 C 293.358 381.860,294.457 381.081,295.455 380.510 C 296.453 379.939,297.270 379.333,297.270 379.163 C 297.270 378.993,297.846 378.537,298.549 378.150 C 300.319 377.178,304.056 374.486,306.208 372.632 L 307.273 371.715 308.841 372.508 C 309.704 372.945,311.064 373.498,311.864 373.737 C 313.903 374.347,313.861 374.241,314.898 381.417 C 315.413 384.974,315.936 387.961,316.062 388.055 C 316.187 388.148,316.399 389.147,316.532 390.273 C 316.665 391.399,316.856 392.666,316.956 393.089 L 317.139 393.857 329.710 393.857 C 337.090 393.857,342.362 393.726,342.477 393.539 C 342.585 393.365,342.823 392.098,343.007 390.724 C 343.368 388.017,344.185 382.994,344.509 381.485 C 344.888 379.716,345.059 378.667,345.273 376.805 C 345.530 374.575,345.698 374.389,348.158 373.627 C 349.209 373.301,350.423 372.728,350.855 372.353 C 351.843 371.496,351.467 371.363,354.346 373.589 C 355.710 374.644,357.175 375.640,357.603 375.803 C 358.030 375.966,358.468 376.331,358.577 376.614 C 358.686 376.897,358.912 377.044,359.080 376.940 C 359.248 376.836,359.386 376.882,359.386 377.041 C 359.386 377.282,362.384 379.458,364.453 380.719 C 364.763 380.908,365.462 381.484,366.005 381.999 C 367.611 383.520,367.890 383.344,374.505 376.643 C 385.338 365.671,385.683 365.292,385.438 364.613 C 385.181 363.895,382.854 360.524,381.485 358.884 C 380.968 358.266,380.546 357.653,380.546 357.523 C 380.546 357.292,377.546 353.241,377.123 352.901 C 377.007 352.807,376.617 352.193,376.258 351.536 C 375.899 350.879,375.387 350.072,375.120 349.743 C 374.711 349.237,374.707 348.998,375.092 348.207 C 375.343 347.691,375.572 347.193,375.602 347.099 C 375.631 347.005,375.834 346.496,376.052 345.968 C 376.271 345.439,376.451 344.786,376.451 344.517 C 376.451 344.248,376.586 344.027,376.752 344.027 C 376.918 344.027,377.128 343.743,377.219 343.396 C 377.334 342.956,377.839 342.690,378.880 342.521 C 380.882 342.196,381.309 342.107,381.911 341.890 C 382.193 341.789,384.996 341.354,388.140 340.924 C 391.284 340.494,393.857 340.043,393.857 339.923 C 393.857 339.803,394.202 339.735,394.625 339.772 C 396.249 339.913,396.246 339.942,396.246 326.579 L 396.246 313.993 395.461 313.993 C 395.029 313.993,394.530 313.860,394.352 313.698 C 394.173 313.536,391.340 313.047,388.055 312.612 C 384.770 312.176,382.005 311.718,381.911 311.593 C 381.817 311.468,380.829 311.261,379.715 311.133 C 377.284 310.854,377.024 310.666,376.480 308.792 C 376.247 307.992,375.756 306.701,375.387 305.922 L 374.717 304.507 375.579 303.192 C 376.053 302.469,376.567 301.724,376.721 301.536 C 376.875 301.348,377.017 301.058,377.038 300.891 C 377.058 300.725,377.204 300.494,377.362 300.379 C 377.695 300.137,380.095 296.889,381.041 295.401 C 381.396 294.843,381.818 294.229,381.979 294.036 C 382.141 293.844,382.897 292.841,383.659 291.809 C 386.146 288.440,386.310 288.941,380.980 283.604 C 378.395 281.015,374.446 277.041,372.204 274.773 C 368.084 270.603,367.789 270.371,367.403 270.995 C 367.285 271.186,367.045 271.254,366.871 271.146 C 366.696 271.038,366.553 271.112,366.553 271.311 C 366.553 271.510,366.339 271.672,366.077 271.672 C 365.816 271.672,365.514 271.903,365.406 272.184 C 365.298 272.466,364.996 272.696,364.736 272.696 C 364.476 272.696,363.855 273.075,363.355 273.538 C 362.855 274.002,361.758 274.784,360.916 275.277 C 360.074 275.771,359.385 276.275,359.383 276.398 C 359.382 276.521,358.806 277.004,358.103 277.471 C 357.401 277.939,356.749 278.401,356.655 278.498 C 356.561 278.596,355.794 279.116,354.949 279.654 C 354.104 280.193,353.090 280.926,352.696 281.284 C 352.071 281.851,351.926 281.870,351.561 281.430 C 351.331 281.153,349.926 280.521,348.439 280.026 C 346.951 279.530,345.734 279.082,345.734 279.029 C 345.734 278.976,345.592 278.182,345.420 277.265 C 345.247 276.348,345.009 274.906,344.892 274.061 C 344.774 273.217,344.543 272.065,344.379 271.502 C 344.214 270.939,343.825 268.558,343.515 266.212 C 343.205 263.865,342.798 261.446,342.610 260.836 L 342.268 259.727 329.703 259.727 L 317.139 259.727 316.952 260.495 M77.816 296.758 L 77.816 308.532 164.846 308.532 L 251.877 308.532 251.877 296.758 L 251.877 284.983 164.846 284.983 L 77.816 284.983 77.816 296.758 M335.007 308.170 C 336.509 308.579,338.509 309.431,339.500 310.085 C 340.482 310.733,341.354 311.263,341.437 311.263 C 342.590 311.263,346.851 317.143,347.745 319.966 C 348.161 321.280,348.646 322.622,348.824 322.948 C 349.261 323.749,349.240 330.278,348.800 330.550 C 348.609 330.667,348.539 330.902,348.643 331.072 C 348.748 331.241,348.603 331.824,348.322 332.367 C 348.041 332.911,347.742 333.741,347.656 334.214 C 347.513 335.003,346.185 337.364,345.266 338.461 C 344.111 339.841,341.603 342.321,341.363 342.321 C 341.210 342.321,340.786 342.599,340.420 342.939 C 337.776 345.403,331.012 346.817,326.477 345.855 C 325.365 345.619,324.328 345.504,324.173 345.600 C 324.018 345.696,323.891 345.631,323.891 345.455 C 323.891 345.280,323.400 345.038,322.799 344.918 C 319.302 344.219,311.979 336.764,311.950 333.874 C 311.947 333.639,311.803 333.447,311.628 333.447 C 311.197 333.447,310.598 330.385,310.460 327.474 C 310.328 324.689,311.146 319.683,311.680 320.013 C 311.880 320.136,311.964 320.025,311.873 319.757 C 311.784 319.497,312.071 318.710,312.511 318.010 C 312.951 317.310,313.311 316.636,313.311 316.513 C 313.311 315.954,317.992 311.135,319.004 310.652 C 319.627 310.355,320.137 310.008,320.137 309.881 C 320.137 309.533,323.070 308.475,325.768 307.851 C 328.814 307.146,331.597 307.242,335.007 308.170 " stroke="none" fill="#f3f3f3" fill-rule="evenodd"></path></g></svg>