<svg id="svg" version="1.1" viewBox="-80 0 500 300" width="400" height="400" xmlns="http://www.w3.org/2000/svg" xmlns:xlink="http://www.w3.org/1999/xlink" style="display: block;"><g id="svgg"><path id="path0" d="" stroke="none" fill="#000000" fill-rule="evenodd"></path><path id="path1" d="" stroke="none" fill="#d6d6d6" fill-rule="evenodd"></path><path id="path2" d="M244.680 93.117 C 244.944 93.285,245.338 93.868,245.555 94.411 C 245.903 95.284,245.952 95.304,245.975 94.580 C 246.002 93.703,245.309 92.796,244.620 92.806 C 244.377 92.810,244.403 92.941,244.680 93.117 M154.000 100.824 C 154.000 101.497,154.156 101.951,154.346 101.833 C 154.669 101.634,154.493 99.600,154.153 99.600 C 154.069 99.600,154.000 100.151,154.000 100.824 M245.484 100.400 C 245.369 100.839,245.438 101.300,245.638 101.423 C 245.837 101.546,246.000 101.187,246.000 100.624 C 246.000 99.398,245.772 99.299,245.484 100.400 M154.218 106.342 C 154.089 106.750,154.155 107.515,154.366 108.042 C 154.703 108.884,154.752 108.795,154.775 107.300 C 154.802 105.484,154.601 105.138,154.218 106.342 M245.244 107.200 C 245.262 108.861,245.294 108.916,245.660 107.915 C 245.927 107.184,245.921 106.597,245.640 106.115 C 245.309 105.546,245.228 105.767,245.244 107.200 M16.305 154.283 C 16.802 154.379,17.522 154.375,17.905 154.275 C 18.287 154.175,17.880 154.096,17.000 154.101 C 16.120 154.105,15.807 154.187,16.305 154.283 M100.000 154.153 C 100.000 154.508,101.618 154.694,101.823 154.362 C 101.946 154.163,101.587 154.000,101.024 154.000 C 100.461 154.000,100.000 154.069,100.000 154.153 M106.200 154.400 C 106.049 154.644,106.623 154.789,107.676 154.772 C 109.006 154.750,109.217 154.665,108.600 154.400 C 107.493 153.924,106.494 153.924,106.200 154.400 M291.400 154.400 C 290.791 154.662,291.030 154.749,292.400 154.766 C 293.702 154.782,294.034 154.681,293.600 154.400 C 292.888 153.940,292.471 153.940,291.400 154.400 M297.777 154.362 C 297.900 154.562,298.361 154.631,298.800 154.516 C 299.901 154.228,299.802 154.000,298.576 154.000 C 298.013 154.000,297.654 154.163,297.777 154.362 M339.400 154.400 C 339.253 154.638,339.721 154.800,340.553 154.800 C 341.323 154.800,342.064 154.620,342.200 154.400 C 342.347 154.162,341.879 154.000,341.047 154.000 C 340.277 154.000,339.536 154.180,339.400 154.400 M348.433 154.147 C 348.905 154.563,351.600 154.793,351.600 154.418 C 351.600 154.188,350.850 154.000,349.933 154.000 C 349.017 154.000,348.342 154.066,348.433 154.147 M355.400 154.400 C 355.840 154.589,356.650 154.738,357.200 154.732 L 358.200 154.720 357.200 154.400 C 356.650 154.224,355.840 154.074,355.400 154.068 L 354.600 154.056 355.400 154.400 M359.600 154.400 C 358.935 154.613,359.739 154.718,362.000 154.714 C 364.826 154.709,365.130 154.652,363.800 154.377 C 361.857 153.975,360.911 153.980,359.600 154.400 M100.400 245.600 C 99.460 245.901,99.479 245.923,100.724 245.960 C 101.513 245.984,101.947 245.838,101.800 245.600 C 101.664 245.380,101.518 245.218,101.476 245.240 C 101.434 245.262,100.950 245.424,100.400 245.600 M106.115 245.640 C 106.597 245.921,107.184 245.927,107.915 245.660 C 108.916 245.294,108.861 245.262,107.200 245.244 C 105.767 245.228,105.546 245.309,106.115 245.640 M292.085 245.660 C 292.816 245.927,293.403 245.921,293.885 245.640 C 294.454 245.309,294.233 245.228,292.800 245.244 C 291.139 245.262,291.084 245.294,292.085 245.660 M298.577 245.638 C 298.454 245.837,298.813 246.000,299.376 246.000 C 300.602 246.000,300.701 245.772,299.600 245.484 C 299.161 245.369,298.700 245.438,298.577 245.638 M339.400 245.600 C 339.536 245.820,340.582 245.987,341.724 245.972 C 343.253 245.951,343.589 245.853,343.000 245.600 C 341.859 245.110,339.097 245.110,339.400 245.600 M350.200 245.600 C 349.006 245.904,349.007 245.906,350.500 245.953 C 351.325 245.979,352.000 245.820,352.000 245.600 C 352.000 245.159,351.932 245.159,350.200 245.600 M356.200 245.600 L 355.400 245.944 356.200 245.944 C 356.640 245.944,357.360 245.789,357.800 245.600 L 358.600 245.256 357.800 245.256 C 357.360 245.256,356.640 245.411,356.200 245.600 M360.928 245.696 C 362.252 245.971,363.130 245.965,363.728 245.676 C 364.425 245.339,364.037 245.258,361.800 245.274 L 359.000 245.295 360.928 245.696 M326.500 277.476 C 326.885 277.576,327.515 277.576,327.900 277.476 C 328.285 277.375,327.970 277.293,327.200 277.293 C 326.430 277.293,326.115 277.375,326.500 277.476 M154.245 292.075 C 154.105 292.776,154.172 293.532,154.395 293.755 C 154.668 294.028,154.800 293.614,154.800 292.480 C 154.800 290.477,154.595 290.327,154.245 292.075 M245.244 292.400 C 245.228 293.833,245.309 294.054,245.640 293.485 C 245.921 293.003,245.927 292.416,245.660 291.685 C 245.294 290.684,245.262 290.739,245.244 292.400 M245.474 297.900 C 245.378 298.065,245.445 298.560,245.622 299.000 C 245.903 299.698,245.947 299.660,245.972 298.700 C 246.000 297.615,245.812 297.314,245.474 297.900 M154.000 298.976 C 154.000 300.202,154.228 300.301,154.516 299.200 C 154.631 298.761,154.562 298.300,154.362 298.177 C 154.163 298.054,154.000 298.413,154.000 298.976 M154.036 305.251 C 154.000 306.301,154.990 307.543,155.476 307.057 C 155.618 306.916,155.528 306.800,155.278 306.800 C 155.028 306.800,154.654 306.215,154.448 305.500 C 154.097 304.285,154.070 304.269,154.036 305.251 M245.654 305.071 C 245.625 305.551,245.317 306.226,244.971 306.571 C 244.626 306.917,244.514 307.200,244.722 307.200 C 245.422 307.200,246.063 306.053,245.885 305.122 C 245.715 304.232,245.707 304.230,245.654 305.071 M154.300 339.432 C 154.135 339.598,154.011 341.818,154.025 344.367 C 154.044 347.780,154.153 348.744,154.439 348.029 C 154.883 346.917,154.755 338.974,154.300 339.432 M245.223 351.676 C 245.236 358.564,245.395 364.920,245.577 365.800 C 245.779 366.776,245.926 361.991,245.954 353.524 C 245.983 344.654,245.856 339.558,245.600 339.400 C 245.336 339.237,245.208 343.423,245.223 351.676 M154.000 357.733 C 154.000 358.760,154.163 359.600,154.362 359.600 C 154.688 359.600,154.495 356.436,154.145 356.033 C 154.065 355.942,154.000 356.707,154.000 357.733 M154.080 364.400 C 154.080 364.950,154.224 365.850,154.400 366.400 L 154.720 367.400 154.720 366.400 C 154.720 365.850,154.576 364.950,154.400 364.400 L 154.080 363.400 154.080 364.400 M154.192 369.701 C 154.058 370.416,154.120 371.901,154.329 373.001 C 154.707 374.983,154.711 374.972,154.755 371.700 C 154.802 368.233,154.601 367.520,154.192 369.701 M245.508 374.383 C 245.231 375.367,245.397 375.937,245.832 375.501 C 245.960 375.373,246.001 374.848,245.924 374.334 L 245.784 373.400 245.508 374.383 " stroke="none" fill="#e6e6e6" fill-rule="evenodd"></path><path id="path3" d="M9.287 0.538 C 8.786 0.815,8.516 1.196,8.687 1.385 C 8.859 1.574,8.780 1.602,8.511 1.448 C 7.800 1.039,3.600 4.062,3.600 4.983 C 3.600 5.087,3.048 5.737,2.373 6.428 C 1.698 7.118,1.243 7.934,1.361 8.241 C 1.478 8.549,1.437 8.800,1.268 8.800 C -0.229 8.800,-0.829 141.217,0.654 144.120 C 2.645 148.017,6.353 152.012,8.400 152.467 C 8.730 152.540,9.090 152.690,9.200 152.800 C 10.421 154.021,11.491 154.082,34.559 154.250 C 47.342 154.343,58.475 154.415,59.300 154.409 L 60.800 154.400 60.800 200.000 L 60.800 245.600 59.500 245.597 C 58.785 245.595,47.670 245.660,34.800 245.742 L 11.400 245.890 8.800 247.245 C 5.795 248.811,1.775 252.693,1.402 254.389 C 1.263 255.024,0.889 255.760,0.572 256.023 C 0.074 256.437,-0.004 265.542,0.002 322.771 C 0.009 388.968,0.058 391.600,1.288 391.600 C 1.459 391.600,1.600 391.949,1.600 392.376 C 1.600 393.763,7.239 398.913,8.308 398.503 C 8.677 398.362,8.828 398.431,8.679 398.673 C 7.900 399.932,11.400 400.000,77.246 399.996 L 143.000 399.992 145.078 399.025 C 147.337 397.973,150.923 394.923,150.571 394.354 C 150.451 394.159,150.602 394.000,150.905 394.000 C 151.492 394.000,153.200 390.940,153.200 389.890 C 153.200 389.547,153.425 389.192,153.700 389.100 C 154.086 388.971,154.200 386.052,154.200 376.305 C 154.200 369.359,154.296 363.736,154.413 363.808 C 154.531 363.881,154.641 362.964,154.658 361.770 C 154.675 360.577,154.534 359.600,154.345 359.600 C 154.155 359.600,154.018 358.745,154.040 357.700 C 154.072 356.159,154.140 355.989,154.397 356.800 C 154.611 357.476,154.707 356.830,154.695 354.807 C 154.682 352.763,154.566 352.065,154.330 352.607 C 154.053 353.241,154.031 353.200,154.221 352.400 C 154.685 350.449,154.836 347.340,154.425 348.200 C 154.162 348.749,154.067 347.494,154.121 344.200 L 154.200 339.400 200.000 339.400 L 245.800 339.400 245.850 353.400 C 245.878 361.100,245.763 366.770,245.596 366.000 C 245.376 364.984,245.293 365.573,245.294 368.146 C 245.296 370.538,245.422 371.514,245.683 371.146 C 245.953 370.765,245.989 370.902,245.802 371.600 C 245.192 373.885,245.118 374.627,245.563 374.000 C 245.905 373.516,245.989 373.613,245.994 374.500 C 245.997 375.105,245.831 375.600,245.625 375.600 C 245.419 375.600,245.277 375.960,245.310 376.400 C 245.343 376.840,245.467 377.200,245.585 377.201 C 245.703 377.201,245.811 379.707,245.826 382.770 C 245.844 386.738,246.001 388.520,246.374 388.969 C 246.662 389.316,246.783 389.600,246.642 389.600 C 244.731 389.600,252.174 398.061,254.770 398.838 C 255.666 399.107,256.400 399.479,256.400 399.666 C 256.400 399.852,286.404 400.001,323.076 399.998 L 389.752 399.991 391.976 398.741 C 393.927 397.645,396.400 395.563,396.400 395.017 C 396.400 394.913,396.952 394.263,397.627 393.572 C 398.302 392.882,398.757 392.066,398.639 391.759 C 398.522 391.451,398.563 391.200,398.732 391.200 C 399.947 391.200,400.000 388.316,400.000 322.866 C 400.000 286.174,399.846 256.883,399.650 256.495 C 397.967 253.151,397.269 252.038,396.029 250.720 C 395.243 249.885,394.403 249.201,394.162 249.201 C 393.921 249.200,393.402 248.844,393.008 248.408 C 390.857 246.032,389.189 245.829,371.738 245.814 C 362.904 245.806,355.747 245.686,355.833 245.546 C 355.920 245.407,355.092 245.292,353.995 245.292 C 352.898 245.292,352.000 245.452,352.000 245.646 C 352.000 245.841,351.325 245.997,350.500 245.994 C 349.334 245.989,349.134 245.894,349.600 245.566 C 350.221 245.128,349.073 245.213,346.800 245.771 C 345.985 245.971,345.948 245.951,346.600 245.660 C 347.174 245.404,346.666 245.298,344.800 245.284 C 342.975 245.270,342.438 245.370,343.000 245.617 C 343.564 245.865,343.151 245.944,341.600 245.885 L 339.400 245.800 339.400 200.000 L 339.400 154.200 340.940 154.073 C 341.952 153.990,342.390 154.093,342.217 154.372 C 342.042 154.655,342.709 154.780,344.214 154.745 C 345.776 154.709,346.308 154.574,345.937 154.309 C 345.554 154.035,345.629 154.002,346.200 154.196 C 347.613 154.676,349.925 154.874,349.000 154.435 C 348.351 154.128,348.522 154.051,349.900 154.028 C 350.835 154.013,351.600 154.150,351.600 154.333 C 351.600 154.517,352.402 154.667,353.382 154.667 C 354.363 154.667,355.100 154.562,355.021 154.433 C 354.941 154.305,362.284 154.200,371.338 154.200 L 387.800 154.200 390.929 152.706 C 394.880 150.820,398.017 147.797,398.810 145.114 C 399.112 144.089,399.505 143.341,399.682 143.451 C 399.859 143.560,400.001 113.795,399.998 77.305 C 399.991 11.031,399.942 8.400,398.712 8.400 C 398.541 8.400,398.400 8.051,398.400 7.624 C 398.400 6.317,392.686 1.005,391.691 1.386 C 391.398 1.499,391.252 1.440,391.366 1.255 C 392.094 0.078,387.833 0.000,322.754 0.006 C 280.155 0.010,257.211 0.149,257.600 0.400 C 258.078 0.709,258.001 0.789,257.223 0.794 C 254.306 0.812,249.291 5.205,247.274 9.509 L 246.200 11.800 246.081 36.182 C 245.998 53.074,245.827 60.726,245.524 61.091 C 245.167 61.522,236.828 61.613,199.926 61.590 L 154.766 61.562 154.437 60.681 C 154.256 60.196,153.996 49.270,153.859 36.400 C 153.613 13.309,153.514 10.975,152.715 9.400 C 150.719 5.466,146.403 1.501,143.481 0.916 C 142.661 0.752,142.487 0.591,142.868 0.348 C 143.797 -0.243,10.359 -0.054,9.287 0.538 M121.767 31.443 C 122.339 31.662,122.400 36.052,122.400 77.043 L 122.400 122.400 77.000 122.400 L 31.600 122.400 31.600 77.002 L 31.600 31.603 76.300 31.500 C 100.885 31.443,121.030 31.352,121.067 31.298 C 121.104 31.244,121.419 31.309,121.767 31.443 M324.033 31.600 L 368.400 31.600 368.400 77.000 L 368.400 122.400 323.000 122.400 L 277.600 122.400 277.600 77.033 C 277.600 29.998,277.568 30.937,279.133 31.432 C 279.426 31.524,299.631 31.600,324.033 31.600 M245.760 93.600 C 246.041 93.881,246.020 94.410,245.694 95.275 C 245.337 96.220,245.332 96.677,245.672 97.086 C 246.011 97.496,246.009 97.751,245.663 98.097 C 245.097 98.663,245.042 100.145,245.600 99.800 C 245.828 99.659,246.000 100.004,246.000 100.600 C 246.000 101.176,245.850 101.555,245.667 101.441 C 245.483 101.328,245.333 101.767,245.333 102.418 C 245.333 103.068,245.438 103.600,245.567 103.600 C 245.695 103.601,245.814 111.926,245.832 122.100 C 245.869 144.191,246.127 145.578,250.993 149.886 C 255.778 154.122,255.900 154.142,277.500 154.173 C 287.674 154.188,296.000 154.290,296.000 154.400 C 296.000 154.510,296.449 154.626,296.998 154.658 C 297.546 154.689,297.895 154.554,297.774 154.358 C 297.652 154.161,298.024 154.000,298.600 154.000 C 299.196 154.000,299.541 154.172,299.400 154.400 C 299.054 154.961,300.139 154.901,300.712 154.328 C 301.074 153.966,301.423 153.984,302.217 154.409 C 303.034 154.846,303.410 154.861,304.019 154.481 C 304.443 154.216,305.107 154.018,305.495 154.040 C 305.982 154.067,305.891 154.185,305.200 154.421 C 304.279 154.734,304.303 154.755,305.505 154.684 L 306.810 154.607 306.810 200.000 L 306.810 245.393 305.505 245.316 C 304.303 245.245,304.279 245.266,305.200 245.579 C 306.033 245.863,306.067 245.926,305.400 245.954 C 304.960 245.973,304.336 245.821,304.013 245.617 C 303.639 245.380,303.235 245.405,302.896 245.686 C 302.509 246.007,302.241 246.001,301.903 245.663 C 301.337 245.097,299.855 245.042,300.200 245.600 C 300.341 245.828,299.996 246.000,299.400 246.000 C 298.824 246.000,298.445 245.850,298.559 245.667 C 298.672 245.483,298.233 245.333,297.582 245.333 C 296.932 245.333,296.400 245.438,296.400 245.567 C 296.399 245.695,287.984 245.811,277.700 245.825 C 257.261 245.851,257.605 245.816,253.497 248.281 C 246.367 252.557,245.883 254.390,245.837 277.300 C 245.817 287.584,245.710 295.999,245.600 296.000 C 245.490 296.000,245.374 296.449,245.342 296.998 C 245.311 297.546,245.446 297.895,245.642 297.774 C 245.839 297.652,246.000 298.024,246.000 298.600 C 246.000 299.196,245.828 299.541,245.600 299.400 C 245.039 299.054,245.099 300.139,245.672 300.712 C 246.034 301.074,246.016 301.423,245.591 302.217 C 245.154 303.034,245.139 303.410,245.519 304.019 C 246.091 304.935,246.148 306.261,245.630 306.582 C 245.146 306.881,154.854 306.881,154.370 306.582 C 153.849 306.259,153.910 304.933,154.490 304.005 C 154.877 303.385,154.877 303.117,154.490 302.730 C 154.220 302.460,154.013 301.961,154.028 301.620 C 154.048 301.181,154.156 301.233,154.400 301.800 C 154.675 302.439,154.749 302.293,154.772 301.076 C 154.789 300.156,154.642 299.651,154.400 299.800 C 154.172 299.941,154.000 299.596,154.000 299.000 C 154.000 298.424,154.150 298.045,154.333 298.159 C 154.517 298.272,154.667 297.833,154.667 297.182 C 154.667 296.532,154.562 296.000,154.433 296.000 C 154.305 295.999,154.186 287.764,154.168 277.700 C 154.125 252.814,153.508 251.154,142.481 246.253 C 141.900 245.995,134.648 245.836,122.781 245.822 C 112.452 245.810,104.001 245.695,104.001 245.567 C 104.000 245.438,103.468 245.333,102.818 245.333 C 102.167 245.333,101.728 245.483,101.841 245.667 C 101.955 245.850,101.452 245.997,100.724 245.994 C 99.722 245.989,99.546 245.893,100.000 245.600 C 100.440 245.316,100.174 245.218,99.000 245.234 C 97.743 245.252,97.571 245.330,98.200 245.600 C 98.640 245.789,98.773 245.956,98.495 245.972 C 98.217 245.987,97.632 245.777,97.195 245.504 C 96.562 245.109,96.238 245.109,95.605 245.504 C 95.168 245.777,94.583 245.987,94.305 245.972 C 94.027 245.956,94.160 245.789,94.600 245.600 C 95.288 245.304,95.232 245.252,94.200 245.228 L 93.000 245.200 93.095 199.904 L 93.190 154.607 94.495 154.684 C 95.697 154.755,95.721 154.734,94.800 154.421 C 94.109 154.185,94.018 154.067,94.505 154.040 C 94.893 154.018,95.564 154.220,95.995 154.490 C 96.615 154.877,96.883 154.877,97.270 154.490 C 97.540 154.220,98.039 154.013,98.380 154.028 C 98.819 154.048,98.767 154.156,98.200 154.400 C 97.561 154.675,97.707 154.749,98.924 154.772 C 99.844 154.789,100.349 154.642,100.200 154.400 C 100.059 154.172,100.404 154.000,101.000 154.000 C 101.576 154.000,101.955 154.150,101.841 154.333 C 101.728 154.517,102.167 154.667,102.818 154.667 C 103.468 154.667,104.000 154.562,104.000 154.433 C 104.000 154.305,110.795 154.219,119.100 154.243 C 143.377 154.311,144.740 154.091,149.458 149.327 C 154.079 144.663,154.128 144.386,154.167 122.500 C 154.185 112.326,154.305 104.001,154.433 104.000 C 154.562 104.000,154.667 103.468,154.667 102.818 C 154.667 102.167,154.517 101.728,154.333 101.841 C 154.150 101.955,154.003 101.452,154.006 100.724 C 154.011 99.722,154.107 99.546,154.400 100.000 C 154.684 100.440,154.782 100.174,154.766 99.000 C 154.748 97.743,154.670 97.571,154.400 98.200 C 154.211 98.640,154.044 98.773,154.028 98.495 C 154.013 98.217,154.223 97.632,154.496 97.195 C 154.891 96.562,154.891 96.238,154.496 95.605 C 154.223 95.168,154.018 94.493,154.040 94.105 C 154.067 93.628,154.183 93.724,154.400 94.400 C 154.714 95.381,154.721 95.377,154.760 94.200 L 154.800 93.000 200.075 93.095 C 230.389 93.158,245.485 93.325,245.760 93.600 M368.282 277.748 C 368.447 277.914,368.437 368.096,368.272 368.262 C 368.204 368.329,347.776 368.433,322.875 368.492 L 277.600 368.600 277.600 323.105 L 277.600 277.611 290.900 277.505 C 307.240 277.376,368.100 277.567,368.282 277.748 " stroke="none" fill="#f3f3f3" fill-rule="evenodd"></path><path id="path4" d="M7.900 0.827 C 7.075 1.263,6.400 1.708,6.400 1.818 C 6.400 1.927,7.120 1.649,8.000 1.200 C 8.880 0.751,9.600 0.297,9.600 0.192 C 9.600 -0.070,9.597 -0.069,7.900 0.827 M390.800 0.600 C 391.350 0.914,391.980 1.172,392.200 1.172 C 392.420 1.172,392.150 0.914,391.600 0.600 C 391.050 0.286,390.420 0.028,390.200 0.028 C 389.980 0.028,390.250 0.286,390.800 0.600 M394.358 2.744 C 395.325 3.664,396.203 4.330,396.309 4.225 C 396.414 4.119,395.911 3.530,395.191 2.916 C 393.023 1.068,392.477 0.955,394.358 2.744 M3.400 4.256 C 1.023 6.900,0.398 8.125,2.640 5.744 C 5.833 2.356,6.131 2.000,5.770 2.016 C 5.566 2.025,4.500 3.033,3.400 4.256 M398.925 8.427 C 399.396 9.542,399.841 10.276,399.914 10.057 C 400.044 9.668,398.536 6.400,398.226 6.400 C 398.140 6.400,398.454 7.312,398.925 8.427 M0.465 8.617 C -0.205 10.088,-0.077 10.402,0.647 9.065 C 0.986 8.440,1.188 7.854,1.096 7.763 C 1.005 7.671,0.721 8.056,0.465 8.617 M153.724 19.400 C 153.726 20.720,153.801 21.212,153.890 20.493 C 153.979 19.774,153.977 18.694,153.886 18.093 C 153.795 17.492,153.722 18.080,153.724 19.400 M154.128 57.600 C 154.128 59.030,154.201 59.615,154.289 58.900 C 154.378 58.185,154.378 57.015,154.289 56.300 C 154.201 55.585,154.128 56.170,154.128 57.600 M245.724 57.800 C 245.726 59.120,245.801 59.612,245.890 58.893 C 245.979 58.174,245.977 57.094,245.886 56.493 C 245.795 55.892,245.722 56.480,245.724 57.800 M165.700 61.498 C 168.065 61.569,171.935 61.569,174.300 61.498 C 176.665 61.428,174.730 61.370,170.000 61.370 C 165.270 61.370,163.335 61.428,165.700 61.498 M235.282 61.496 C 236.758 61.573,239.278 61.573,240.882 61.497 C 242.487 61.421,241.280 61.358,238.200 61.358 C 235.120 61.357,233.807 61.419,235.282 61.496 M154.558 114.200 C 154.558 117.280,154.621 118.487,154.697 116.882 C 154.773 115.278,154.773 112.758,154.696 111.282 C 154.619 109.807,154.557 111.120,154.558 114.200 M245.358 114.200 C 245.358 117.280,245.421 118.487,245.497 116.882 C 245.573 115.278,245.573 112.758,245.496 111.282 C 245.419 109.807,245.357 111.120,245.358 114.200 M245.693 138.000 C 245.693 138.770,245.775 139.085,245.876 138.700 C 245.976 138.315,245.976 137.685,245.876 137.300 C 245.775 136.915,245.693 137.230,245.693 138.000 M154.093 138.400 C 154.093 139.170,154.175 139.485,154.276 139.100 C 154.376 138.715,154.376 138.085,154.276 137.700 C 154.175 137.315,154.093 137.630,154.093 138.400 M12.905 154.287 C 13.514 154.379,14.414 154.377,14.905 154.282 C 15.397 154.187,14.900 154.111,13.800 154.114 C 12.700 154.117,12.297 154.195,12.905 154.287 M260.900 154.276 C 261.285 154.376,261.915 154.376,262.300 154.276 C 262.685 154.175,262.370 154.093,261.600 154.093 C 260.830 154.093,260.515 154.175,260.900 154.276 M50.600 154.668 C 55.426 154.959,60.802 154.975,60.801 154.700 C 60.800 154.535,58.055 154.433,54.700 154.474 C 51.345 154.515,49.500 154.602,50.600 154.668 M111.700 154.697 C 113.185 154.774,115.615 154.774,117.100 154.697 C 118.585 154.620,117.370 154.557,114.400 154.557 C 111.430 154.557,110.215 154.620,111.700 154.697 M282.900 154.697 C 284.385 154.774,286.815 154.774,288.300 154.697 C 289.785 154.620,288.570 154.557,285.600 154.557 C 282.630 154.557,281.415 154.620,282.900 154.697 M368.100 154.697 C 369.805 154.772,372.595 154.772,374.300 154.697 C 376.005 154.622,374.610 154.561,371.200 154.561 C 367.790 154.561,366.395 154.622,368.100 154.697 M54.400 245.200 L 48.200 245.432 54.500 245.516 C 58.489 245.569,60.800 245.453,60.800 245.200 C 60.800 244.980,60.755 244.838,60.700 244.884 C 60.645 244.930,57.810 245.073,54.400 245.200 M111.282 245.496 C 112.758 245.573,115.278 245.573,116.882 245.497 C 118.487 245.421,117.280 245.358,114.200 245.358 C 111.120 245.357,109.807 245.419,111.282 245.496 M282.882 245.496 C 284.358 245.573,286.878 245.573,288.482 245.497 C 290.087 245.421,288.880 245.358,285.800 245.358 C 282.720 245.357,281.407 245.419,282.882 245.496 M368.918 245.498 C 370.633 245.573,373.333 245.572,374.918 245.497 C 376.503 245.421,375.100 245.359,371.800 245.360 C 368.500 245.361,367.203 245.422,368.918 245.498 M12.705 245.883 C 13.202 245.979,13.922 245.975,14.305 245.875 C 14.687 245.775,14.280 245.696,13.400 245.701 C 12.520 245.705,12.207 245.787,12.705 245.883 M137.700 245.876 C 138.085 245.976,138.715 245.976,139.100 245.876 C 139.485 245.775,139.170 245.693,138.400 245.693 C 137.630 245.693,137.315 245.775,137.700 245.876 M261.300 245.876 C 261.685 245.976,262.315 245.976,262.700 245.876 C 263.085 245.775,262.770 245.693,262.000 245.693 C 261.230 245.693,260.915 245.775,261.300 245.876 M245.693 261.600 C 245.693 262.370,245.775 262.685,245.876 262.300 C 245.976 261.915,245.976 261.285,245.876 260.900 C 245.775 260.515,245.693 260.830,245.693 261.600 M277.766 278.145 C 277.651 278.444,277.622 279.749,277.703 281.045 L 277.849 283.400 277.924 280.716 L 278.000 278.031 281.500 277.898 L 285.000 277.765 281.487 277.682 C 278.834 277.620,277.924 277.733,277.766 278.145 M360.313 277.895 C 361.476 277.976,363.276 277.976,364.313 277.893 C 365.351 277.811,364.400 277.745,362.200 277.746 C 360.000 277.747,359.151 277.814,360.313 277.895 M367.300 277.852 C 367.836 278.010,368.001 278.496,368.006 279.929 C 368.010 281.059,368.142 281.595,368.340 281.283 C 368.942 280.334,368.272 277.817,367.394 277.727 C 366.769 277.663,366.749 277.690,367.300 277.852 M154.557 285.600 C 154.557 288.570,154.620 289.785,154.697 288.300 C 154.774 286.815,154.774 284.385,154.697 282.900 C 154.620 281.415,154.557 282.630,154.557 285.600 M245.357 285.600 C 245.357 288.570,245.420 289.785,245.497 288.300 C 245.574 286.815,245.574 284.385,245.497 282.900 C 245.420 281.415,245.357 282.630,245.357 285.600 M277.680 365.056 L 277.600 368.312 279.024 368.479 C 279.808 368.570,280.538 368.500,280.648 368.323 C 280.758 368.145,280.214 368.000,279.440 368.000 L 278.034 368.000 277.897 364.900 L 277.761 361.800 277.680 365.056 M154.553 379.400 C 154.553 382.040,154.618 383.068,154.697 381.684 C 154.775 380.301,154.774 378.141,154.695 376.884 C 154.616 375.628,154.552 376.760,154.553 379.400 M245.320 382.800 C 245.320 384.010,245.395 384.505,245.487 383.900 C 245.578 383.295,245.578 382.305,245.487 381.700 C 245.395 381.095,245.320 381.590,245.320 382.800 M0.000 389.949 C 0.000 390.490,1.521 393.600,1.786 393.600 C 1.948 393.600,0.452 389.975,0.148 389.633 C 0.067 389.542,0.000 389.684,0.000 389.949 M399.265 391.017 C 398.595 392.488,398.723 392.802,399.447 391.465 C 399.786 390.840,399.988 390.254,399.896 390.163 C 399.805 390.071,399.521 390.456,399.265 391.017 M396.327 395.333 C 395.077 396.683,394.121 397.854,394.203 397.936 C 394.285 398.018,394.767 397.648,395.276 397.113 C 398.218 394.020,398.928 393.195,398.773 393.046 C 398.678 392.954,397.577 393.984,396.327 395.333 M3.600 395.826 C 3.600 396.096,5.853 398.050,6.759 398.564 C 7.112 398.765,6.613 398.180,5.651 397.264 C 3.914 395.612,3.600 395.392,3.600 395.826 M391.900 398.827 C 391.075 399.263,390.400 399.708,390.400 399.818 C 390.400 399.927,391.120 399.649,392.000 399.200 C 392.880 398.751,393.600 398.297,393.600 398.192 C 393.600 397.930,393.597 397.931,391.900 398.827 M8.400 399.400 C 8.950 399.714,9.580 399.972,9.800 399.972 C 10.020 399.972,9.750 399.714,9.200 399.400 C 8.650 399.086,8.020 398.828,7.800 398.828 C 7.580 398.828,7.850 399.086,8.400 399.400 " stroke="none" fill="#ffffff" fill-rule="evenodd"></path></g></svg>