<svg id="svg" viewBox="-80 0 500 300" version="1.1" width="400" height="396.03356216628526" xmlns="http://www.w3.org/2000/svg" xmlns:xlink="http://www.w3.org/1999/xlink" style="display: block;"><g id="svgg"><path id="path0" d="" stroke="none" fill="#ececec" fill-rule="evenodd"></path><path id="path1" d="M92.372 164.378 C 94.764 164.429,98.677 164.429,101.068 164.378 C 103.459 164.326,101.503 164.284,96.720 164.284 C 91.937 164.284,89.981 164.326,92.372 164.378 " stroke="none" fill="#f0f0f0" fill-rule="evenodd"></path><path id="path2" d="M0.000 96.720 L 0.000 193.440 96.720 193.440 L 193.440 193.440 193.440 96.720 L 193.440 0.000 96.720 0.000 L 0.000 0.000 0.000 96.720 M201.678 198.017 L 201.678 396.034 300.839 396.034 L 400.000 396.034 400.000 198.017 L 400.000 0.000 300.839 0.000 L 201.678 0.000 201.678 198.017 M176.354 96.720 L 176.354 176.354 96.720 176.354 L 17.086 176.354 17.086 96.720 L 17.086 17.086 96.720 17.086 L 176.354 17.086 176.354 96.720 M382.914 198.017 L 382.914 378.947 300.839 378.947 L 218.764 378.947 218.764 198.017 L 218.764 17.086 300.839 17.086 L 382.914 17.086 382.914 198.017 M88.177 58.734 L 88.177 88.177 58.734 88.177 L 29.291 88.177 29.291 96.720 L 29.291 105.263 58.734 105.263 L 88.177 105.263 88.177 134.706 L 88.177 164.150 96.720 164.150 L 105.263 164.150 105.263 134.708 L 105.263 105.266 134.630 105.188 L 163.997 105.111 163.997 96.720 L 163.997 88.330 134.630 88.252 L 105.263 88.174 105.263 58.732 L 105.263 29.291 96.720 29.291 L 88.177 29.291 88.177 58.734 M233.410 169.946 L 233.410 178.490 300.844 178.490 L 368.278 178.490 368.197 170.023 L 368.116 161.556 300.763 161.479 L 233.410 161.402 233.410 169.946 M0.000 299.314 L 0.000 396.034 96.720 396.034 L 193.440 396.034 193.440 299.314 L 193.440 202.593 96.720 202.593 L 0.000 202.593 0.000 299.314 M233.410 226.088 L 233.410 234.631 300.763 234.554 L 368.116 234.477 368.197 226.011 L 368.278 217.544 300.844 217.544 L 233.410 217.544 233.410 226.088 M176.354 299.314 L 176.354 378.947 96.720 378.947 L 17.086 378.947 17.086 299.314 L 17.086 219.680 96.720 219.680 L 176.354 219.680 176.354 299.314 M29.291 299.314 L 29.291 307.858 96.644 307.781 L 163.997 307.704 163.997 299.314 L 163.997 290.923 96.644 290.846 L 29.291 290.769 29.291 299.314 " stroke="none" fill="#f3f3f3" fill-rule="evenodd"></path><path id="path3" d="M164.283 96.720 C 164.283 101.335,164.326 103.223,164.378 100.915 C 164.429 98.608,164.429 94.832,164.378 92.525 C 164.326 90.217,164.283 92.105,164.283 96.720 M164.283 299.314 C 164.283 303.928,164.326 305.816,164.378 303.509 C 164.429 301.201,164.429 297.426,164.378 295.118 C 164.326 292.811,164.283 294.699,164.283 299.314 " stroke="none" fill="#f6f6f6" fill-rule="evenodd"></path><path id="path4" d="M176.199 96.720 C 176.199 140.603,176.234 158.555,176.278 136.613 C 176.321 114.672,176.321 78.768,176.278 56.827 C 176.234 34.886,176.199 52.838,176.199 96.720 M218.916 198.017 C 218.916 297.613,218.951 338.356,218.993 288.558 C 219.036 238.760,219.036 157.273,218.993 107.475 C 218.951 57.677,218.916 98.421,218.916 198.017 M88.018 58.886 C 88.018 75.080,88.055 81.705,88.101 73.608 C 88.146 65.511,88.146 52.262,88.101 44.165 C 88.055 36.068,88.018 42.693,88.018 58.886 M88.018 134.859 C 88.018 151.220,88.055 157.914,88.101 149.733 C 88.146 141.552,88.146 128.166,88.101 119.985 C 88.055 111.804,88.018 118.497,88.018 134.859 M368.402 169.947 C 368.402 174.561,368.445 176.449,368.497 174.142 C 368.548 171.834,368.548 168.059,368.497 165.751 C 368.445 163.444,368.402 165.332,368.402 169.947 M368.402 226.087 C 368.402 230.702,368.445 232.590,368.497 230.282 C 368.548 227.975,368.548 224.199,368.497 221.892 C 368.445 219.584,368.402 221.472,368.402 226.087 M176.199 299.314 C 176.199 343.196,176.234 361.148,176.278 339.207 C 176.321 317.265,176.321 281.362,176.278 259.420 C 176.234 237.479,176.199 255.431,176.199 299.314 " stroke="none" fill="#ffffff" fill-rule="evenodd"></path></g></svg>