<?xml version="1.0" standalone="no"?>

<!DOCTYPE svg PUBLIC "-//W3C//DTD SVG 20010904//EN"

 "http://www.w3.org/TR/2001/REC-SVG-20010904/DTD/svg10.dtd">

<svg version="1.0" xmlns="http://www.w3.org/2000/svg"

 width="1225.000000pt" height="1212.000000pt" viewBox="-230 0 1625.000000 1712.000000"

 preserveAspectRatio="xMidYMid meet">

<path fill="#0b0b0b" stroke="none" d="
M0 916

L0 620

L296 620

L592 620

L592 916

L592 1212

L296 1212

L0 1212

L0 916

Z

M540 916

L540 672

L296 672

L52 672

L52 916

L52 1160

L296 1160

L540 1160

L540 916

Z

M618 606

L618 0

L922 0

L1225 0

L1225 606

L1225 1212

L922 1212

L618 1212

L618 606

Z

M1173 606

L1173 52

L922 52

L670 52

L670 606

L670 1160

L922 1160

L1173 1160

L1173 606

Z

M0 296

L0 0

L296 0

L592 0

L592 296

L592 592

L296 592

L0 592

L0 296

Z

M540 296

L540 52

L296 52

L52 52

L52 296

L52 540

L296 540

L540 540

L540 296

Z

M90 916

L90 869

L296 869

L502 869

L502 916

L502 963

L296 963

L90 963

L90 916

Z

M715 692

L715 645

L921 645

L1127 645

L1127 692

L1127 739

L921 739

L715 739

L715 692

Z

M715 520

L715 473

L921 473

L1127 473

L1127 520

L1127 567

L921 567

L715 567

L715 520

Z

M249 423

L249 343

L170 343

L90 343

L90 296

L90 249

L170 249

L249 249

L249 170

L249 90

L296 90

L343 90

L343 170

L343 249

L423 249

L502 249

L502 296

L502 343

L423 343

L343 343

L343 423

L343 502

L296 502

L249 502

L249 423

Z

"/>

<path fill="#4c4c4c" stroke="none" d="
M0 916

L0 620

L296 620

L592 620

L592 916

L592 1212

L296 1212

L0 1212

L0 916

Z

M540 916

L540 672

L296 672

L52 672

L52 916

L52 1160

L296 1160

L540 1160

L540 916

Z

M618 606

L618 0

L922 0

L1225 0

L1225 606

L1225 1212

L922 1212

L618 1212

L618 606

Z

M1173 606

L1173 52

L922 52

L670 52

L670 606

L670 1160

L922 1160

L1173 1160

L1173 606

Z

M0 296

L0 0

L296 0

L592 0

L592 296

L592 592

L296 592

L0 592

L0 296

Z

M540 296

L540 52

L296 52

L52 52

L52 296

L52 540

L296 540

L540 540

L540 296

Z

M90 916

L90 869

L296 869

L502 869

L502 916

L502 963

L296 963

L90 963

L90 916

Z

M715 692

L715 645

L921 645

L1127 645

L1127 692

L1127 739

L921 739

L715 739

L715 692

Z

M715 520

L715 473

L921 473

L1127 473

L1127 520

L1127 567

L921 567

L715 567

L715 520

Z

M249 423

L249 343

L170 343

L90 343

L90 296

L90 249

L170 249

L249 249

L249 170

L249 90

L296 90

L343 90

L343 170

L343 249

L423 249

L502 249

L502 296

L502 343

L423 343

L343 343

L343 423

L343 502

L296 502

L249 502

L249 423

Z

"/>

<path fill="#b4b4b4" stroke="none" d="
M0 916

L0 620

L296 620

L592 621

L592 916

L592 1212

L296 1212

L0 1212

L0 916

Z

M540 916

L540 672

L296 672

L52 672

L52 916

L52 1160

L296 1160

L540 1160

L540 916

Z

M618 606

L618 0

L922 0

L1225 0

L1225 606

L1225 1212

L922 1212

L618 1212

L618 606

Z

M1173 606

L1173 52

L922 52

L670 52

L670 606

L670 1160

L922 1160

L1173 1160

L1173 606

Z

M0 296

L0 0

L296 0

L592 0

L592 296

L592 592

L296 592

L0 592

L0 296

Z

M540 296

L540 52

L296 52

L52 52

L52 296

L52 540

L296 540

L540 540

L540 296

Z

M90 962

C90 961 90 940 90 915

L91 870

L296 870

L502 870

L502 916

L502 963

L296 963

L91 963

L90 962

Z

M715 738

C715 737 715 716 715 691

L716 646

L921 646

L1127 646

L1127 692

L1127 739

L921 739

L716 739

L715 738

Z

M715 566

C715 565 715 544 715 519

L716 474

L921 474

L1127 474

L1127 520

L1127 567

L921 567

L716 567

L715 566

Z

M250 501

C249 501 249 465 249 422

L249 343

L170 343

L91 343

L91 296

L91 250

L170 249

L249 249

L249 170

L250 91

L296 91

L343 91

L343 170

L343 249

L422 249

L502 250

L502 296

L502 343

L422 343

L343 343

L343 422

L343 502

L296 502

C271 502 250 502 250 501

Z

"/>

<path fill="#eeeeee" stroke="none" d="
M0 917

L0 621

L296 621

L591 621

L591 917

L591 1212

L296 1212

L0 1212

L0 917

Z

M541 916

L541 672

L296 672

L52 672

L51 915

C51 1049 51 1159 51 1160

L52 1161

L296 1161

L541 1161

L541 916

Z

M619 606

L619 0

L922 0

L1225 0

L1225 606

L1225 1212

L922 1212

L619 1212

L619 606

Z

M1174 606

L1174 52

L922 52

L670 52

L669 605

C669 909 669 1159 669 1160

L670 1161

L922 1161

L1174 1161

L1174 606

Z

M0 296

L0 0

L296 0

L591 0

L591 296

L591 591

L296 591

L0 591

L0 296

Z

M541 296

L541 52

L296 52

L52 52

L51 295

C51 429 51 539 51 540

L52 541

L296 541

L541 541

L541 296

Z

M91 916

L91 870

L296 870

L501 870

L501 916

L501 962

L296 962

L91 962

L91 916

Z

M716 692

L716 646

L921 646

L1126 646

L1126 692

L1126 738

L921 738

L716 738

L716 692

Z

M716 520

L716 474

L921 474

L1126 474

L1126 520

L1126 566

L921 566

L716 566

L716 520

Z

M250 422

L250 343

L170 342

L91 342

L91 296

L91 250

L170 250

L250 250

L250 170

L250 91

L296 91

L342 91

L342 170

L343 250

L422 250

L501 250

L501 296

L501 342

L422 342

L343 343

L342 422

L342 501

L296 501

L250 501

L250 422

Z

"/>

<path fill="#f7f7f7" stroke="none" d="
M0 916

L0 621

L295 621

L591 622

L591 917

L591 1212

L296 1212

L0 1212

L0 916

Z

M541 916

L541 671

L296 671

L51 671

L51 916

L51 1161

L296 1161

L541 1161

L541 916

Z

M619 606

L619 0

L922 0

L1225 0

L1225 606

L1225 1212

L922 1212

L619 1212

L619 606

Z

M1174 606

L1174 51

L922 51

L669 51

L669 606

L669 1161

L922 1161

L1174 1161

L1174 606

Z

M0 296

L0 0

L296 0

L591 0

L591 295

L591 591

L295 591

L0 591

L0 296

Z

M541 296

L541 51

L296 51

L51 51

L51 296

L51 541

L296 541

L541 541

L541 296

Z

M91 961

C91 960 91 939 91 915

L92 871

L296 871

L501 871

L501 916

L501 962

L296 962

L92 962

L91 961

Z

M716 737

C716 736 716 715 716 691

L717 647

L921 647

L1126 647

L1126 692

L1126 738

L921 738

L717 738

L716 737

Z

M716 565

C716 564 716 543 716 519

L717 475

L921 475

L1126 475

L1126 520

L1126 566

L921 566

L717 566

L716 565

Z

M251 500

C250 500 250 464 250 421

L250 342

L171 342

L92 342

L92 296

L92 251

L171 250

L250 250

L250 171

L251 92

L296 92

L342 92

L342 171

L342 250

L421 250

L501 251

L501 296

L501 342

L421 342

L342 342

L342 421

L342 501

L296 501

C272 501 251 501 251 500

Z

"/>

<path fill="#fcfcfc" stroke="none" d="
M0 917

L0 622

L295 622

L590 622

L590 917

L590 1212

L295 1212

L0 1212

L0 917

Z

M541 1161

C542 1160 542 672 541 671

C540 670 52 670 51 671

C50 672 50 1153 50 1158

C51 1160 52 1161 53 1161

C56 1162 540 1162 541 1161

Z

M620 606

L620 0

L923 0

L1225 0

L1225 606

L1225 1212

L923 1212

L620 1212

L620 606

Z

M1174 1161

C1175 1160 1175 52 1174 51

C1173 50 670 50 669 51

C668 52 668 1153 668 1158

C669 1160 670 1161 671 1161

C674 1162 1173 1162 1174 1161

Z

M0 295

L0 0

L295 0

L590 0

L590 295

L590 590

L295 590

L0 590

L0 295

Z

M541 541

C542 540 542 52 541 51

C540 50 52 50 51 51

C50 52 50 533 50 538

C51 540 52 541 53 541

C56 542 540 542 541 541

Z

M92 916

L92 871

L296 871

L500 871

L500 916

L500 961

L296 961

L92 961

L92 916

Z

M717 692

L717 647

L921 647

L1125 647

L1125 692

L1125 737

L921 737

L717 737

L717 692

Z

M717 520

L717 475

L921 475

L1125 475

L1125 520

L1125 565

L921 565

L717 565

L717 520

Z

M251 422

C251 378 250 343 250 342

C249 342 214 341 170 341

L92 341

L92 296

L92 251

L170 251

C214 251 249 250 250 250

C250 249 251 214 251 170

L251 92

L296 92

L341 92

L341 170

C341 214 342 249 342 250

C343 250 378 251 422 251

L500 251

L500 296

L500 341

L422 341

C378 341 343 342 342 342

C342 343 341 378 341 422

L341 500

L296 500

L251 500

L251 422

Z

"/>

<path fill="#ffffff" stroke="none" d="
M0 917

L0 622

L295 622

L590 622

L590 917

L590 1212

L295 1212

L0 1212

L0 917

Z

M541 1161

C543 1159 543 673 541 671

C539 669 53 669 51 671

C49 673 49 1159 51 1161

C53 1163 539 1163 541 1161

Z

M620 606

L620 0

L923 0

L1225 0

L1225 606

L1225 1212

L923 1212

L620 1212

L620 606

Z

M1174 1161

C1176 1159 1176 53 1174 51

C1172 49 671 49 669 51

C667 53 667 1159 669 1161

C671 1163 1172 1163 1174 1161

Z

M0 295

L0 0

L295 0

L590 0

L590 295

L590 590

L295 590

L0 590

L0 295

Z

M541 541

C543 539 543 53 541 51

C539 49 53 49 51 51

C49 53 49 539 51 541

C53 543 539 543 541 541

Z

M92 916

L92 871

L296 871

L500 871

L500 916

L500 961

L296 961

L92 961

L92 916

Z

M717 692

L717 647

L921 647

L1125 647

L1125 692

L1125 737

L921 737

L717 737

L717 692

Z

M717 520

L717 475

L921 475

L1125 475

L1125 520

L1125 565

L921 565

L717 565

L717 520

Z

M251 422

C251 362 251 343 250 342

C249 341 230 341 170 341

L92 341

L92 296

L92 251

L170 251

C230 251 249 251 250 250

C251 249 251 230 251 170

L251 92

L296 92

L341 92

L341 170

C341 230 341 249 342 250

C343 251 362 251 422 251

L500 251

L500 296

L500 341

L422 341

C362 341 343 341 342 342

C341 343 341 362 341 422

L341 500

L296 500

L251 500

L251 422

Z

"/>

<path fill="#ffffff" stroke="none" d="
M0 917

L0 622

L295 622

L590 622

L590 917

L590 1212

L295 1212

L0 1212

L0 917

Z

M541 1161

C543 1159 543 673 541 671

C539 669 53 669 51 671

C49 673 49 1159 51 1161

C53 1163 539 1163 541 1161

Z

M620 606

L620 0

L923 0

L1225 0

L1225 606

L1225 1212

L923 1212

L620 1212

L620 606

Z

M1174 1161

C1176 1159 1176 53 1174 51

C1172 49 671 49 669 51

C667 53 667 1159 669 1161

C671 1163 1172 1163 1174 1161

Z

M0 295

L0 0

L295 0

L590 0

L590 295

L590 590

L295 590

L0 590

L0 295

Z

M541 541

C543 539 543 53 541 51

C539 49 53 49 51 51

C49 53 49 539 51 541

C53 543 539 543 541 541

Z

M92 916

L92 871

L296 871

L500 871

L500 916

L500 961

L296 961

L92 961

L92 916

Z

M717 692

L717 647

L921 647

L1125 647

L1125 692

L1125 737

L921 737

L717 737

L717 692

Z

M717 520

L717 475

L921 475

L1125 475

L1125 520

L1125 565

L921 565

L717 565

L717 520

Z

M251 422

C251 362 251 343 250 342

C249 341 230 341 170 341

L92 341

L92 296

L92 251

L170 251

C230 251 249 251 250 250

C251 249 251 230 251 170

L251 92

L296 92

L341 92

L341 170

C341 230 341 249 342 250

C343 251 362 251 422 251

L500 251

L500 296

L500 341

L422 341

C362 341 343 341 342 342

C341 343 341 362 341 422

L341 500

L296 500

L251 500

L251 422

Z

"/>

</svg>

