<svg id="svg" version="1.1" width="400" height="79.22535211267606" viewBox="0 0 400.000000 79.000000" xmlns="http://www.w3.org/2000/svg" xmlns:xlink="http://www.w3.org/1999/xlink" style="display: block;"><g id="svgg"><path id="path0" d="" stroke="none" fill="#ffffff" fill-rule="evenodd"></path><path id="path1" d="M-0.004 37.958 C -0.008 38.657,0.699 47.886,0.763 47.971 C 0.785 48.001,1.504 47.942,2.360 47.839 C 4.335 47.602,4.383 47.594,4.583 47.476 C 4.675 47.421,5.237 47.326,5.833 47.264 C 7.495 47.091,22.620 45.376,26.750 44.893 C 28.767 44.657,30.529 44.461,30.667 44.457 C 30.804 44.453,30.954 44.400,31.000 44.339 C 31.046 44.278,32.921 44.025,35.167 43.777 C 37.412 43.528,41.537 43.063,44.333 42.744 C 47.129 42.425,51.142 41.974,53.250 41.742 C 55.358 41.510,57.214 41.249,57.373 41.160 C 57.532 41.072,57.813 41.000,57.998 41.000 C 59.106 41.000,57.607 41.412,51.722 42.725 C 48.085 43.535,44.992 44.267,44.847 44.350 C 44.702 44.433,41.771 45.128,38.333 45.895 C 31.132 47.502,31.608 47.390,31.500 47.509 C 31.454 47.560,29.279 48.073,26.667 48.649 C 20.607 49.984,18.500 50.481,18.083 50.673 C 17.802 50.803,12.802 51.949,6.333 53.366 C 5.462 53.557,4.712 53.767,4.667 53.833 C 4.621 53.898,4.077 54.052,3.458 54.173 C 2.125 54.435,2.108 54.503,3.108 55.583 C 3.531 56.042,4.067 56.717,4.297 57.083 C 4.652 57.648,5.327 58.517,6.300 59.662 C 6.419 59.802,7.116 60.726,7.848 61.715 C 8.581 62.704,9.320 63.679,9.490 63.882 C 9.660 64.084,9.981 64.467,10.203 64.732 L 10.607 65.215 12.887 64.333 C 14.141 63.848,15.167 63.387,15.167 63.309 C 15.167 63.231,15.260 63.168,15.375 63.169 C 15.490 63.170,16.221 62.912,17.000 62.594 C 17.779 62.277,19.317 61.668,20.417 61.242 C 21.517 60.815,22.510 60.390,22.625 60.296 C 22.740 60.202,22.834 60.191,22.836 60.271 C 22.837 60.351,22.894 60.340,22.961 60.245 C 23.098 60.054,23.571 59.848,26.333 58.780 C 30.047 57.343,30.584 57.125,30.667 57.018 C 30.712 56.959,31.688 56.549,32.833 56.107 C 33.979 55.665,35.629 55.003,36.500 54.637 C 40.085 53.128,41.647 52.501,44.958 51.241 C 45.623 50.988,46.167 50.721,46.167 50.648 C 46.167 50.575,46.410 50.447,46.708 50.362 C 47.460 50.149,53.712 47.666,53.917 47.500 C 54.008 47.425,54.608 47.163,55.250 46.917 C 55.892 46.672,57.054 46.221,57.833 45.917 C 58.612 45.612,59.765 45.165,60.394 44.925 C 61.023 44.684,61.647 44.377,61.781 44.243 C 61.914 44.109,62.104 44.000,62.201 44.000 C 62.580 44.000,61.194 44.881,58.903 46.097 C 58.306 46.414,57.509 46.878,57.134 47.128 C 56.758 47.378,56.368 47.636,56.267 47.699 C 55.850 47.963,53.670 49.170,52.583 49.740 C 51.942 50.077,51.342 50.444,51.250 50.556 C 51.106 50.733,49.047 51.914,46.506 53.279 C 46.097 53.498,45.722 53.741,45.673 53.818 C 45.624 53.895,44.536 54.538,43.255 55.246 C 41.974 55.955,40.624 56.738,40.255 56.986 C 39.459 57.522,38.397 58.138,36.890 58.937 C 35.785 59.523,34.988 59.999,34.833 60.165 C 34.733 60.273,31.093 62.343,30.500 62.630 C 30.008 62.867,29.548 63.163,29.181 63.476 C 29.036 63.601,27.847 64.283,26.541 64.993 C 25.234 65.703,24.034 66.400,23.874 66.542 C 23.714 66.684,22.833 67.211,21.917 67.714 C 21.000 68.216,19.950 68.808,19.583 69.029 C 19.217 69.251,18.673 69.578,18.376 69.758 C 17.692 70.170,17.691 70.407,18.375 70.662 C 18.673 70.773,19.554 71.111,20.333 71.413 C 21.112 71.714,22.200 72.134,22.750 72.345 C 23.300 72.556,23.787 72.778,23.833 72.837 C 23.912 72.938,30.491 75.502,31.292 75.743 C 31.498 75.805,31.667 75.920,31.667 75.998 C 31.667 76.494,32.684 76.333,33.287 75.742 C 33.633 75.403,34.179 74.955,34.500 74.746 C 34.821 74.538,35.496 73.978,36.000 73.503 C 36.504 73.029,37.215 72.402,37.579 72.112 C 38.365 71.485,42.659 67.836,44.083 66.584 C 44.633 66.101,45.421 65.428,45.833 65.089 C 47.120 64.031,47.381 63.806,48.682 62.637 C 49.378 62.012,49.996 61.500,50.056 61.500 C 50.203 61.500,50.921 60.892,51.740 60.074 C 52.112 59.702,52.829 59.092,53.333 58.719 C 53.837 58.345,54.676 57.637,55.197 57.145 C 55.718 56.653,56.750 55.762,57.490 55.167 C 58.231 54.571,58.950 53.915,59.089 53.708 C 59.228 53.502,59.422 53.333,59.520 53.333 C 59.677 53.333,60.162 52.938,62.413 50.977 C 62.690 50.736,63.554 50.010,64.333 49.365 C 65.112 48.720,65.975 47.981,66.250 47.723 C 66.967 47.049,69.017 45.333,69.104 45.333 C 69.145 45.333,69.098 45.483,69.000 45.667 C 68.902 45.850,68.758 46.000,68.681 46.000 C 68.604 46.000,68.252 46.431,67.898 46.958 C 67.355 47.769,66.138 49.400,65.379 50.332 C 65.267 50.470,64.654 51.296,64.017 52.167 C 63.380 53.038,62.752 53.870,62.621 54.017 C 62.111 54.589,60.167 57.195,60.167 57.307 C 60.167 57.372,59.926 57.686,59.631 58.005 C 59.001 58.685,58.000 59.965,58.000 60.090 C 58.000 60.173,57.169 61.259,56.158 62.500 C 55.896 62.821,55.123 63.833,54.440 64.750 C 53.756 65.667,52.665 67.114,52.015 67.966 C 51.365 68.819,50.833 69.570,50.833 69.636 C 50.833 69.702,50.456 70.167,49.995 70.669 C 49.533 71.172,48.749 72.183,48.252 72.917 C 47.754 73.650,47.044 74.578,46.674 74.979 C 46.303 75.381,46.000 75.767,46.000 75.838 C 46.000 75.910,45.437 76.688,44.750 77.567 L 43.500 79.167 54.736 79.167 L 65.973 79.167 66.464 77.625 C 66.734 76.777,67.163 75.371,67.417 74.500 C 68.210 71.778,68.688 70.268,68.921 69.748 C 69.044 69.472,69.364 68.497,69.632 67.581 C 69.901 66.666,70.483 64.679,70.927 63.167 C 71.370 61.654,71.785 60.379,71.848 60.333 C 71.910 60.288,72.426 58.675,72.993 56.750 C 73.560 54.825,74.207 52.687,74.429 51.999 C 74.651 51.312,74.833 50.618,74.833 50.458 C 74.833 50.298,74.892 50.167,74.963 50.167 C 75.105 50.167,75.302 49.552,76.921 44.083 C 77.517 42.067,78.110 40.192,78.237 39.917 C 78.473 39.407,79.000 37.717,79.000 37.470 C 79.000 37.395,61.225 37.333,39.500 37.333 L 0.000 37.333 -0.004 37.958 " stroke="none" fill="#163e34" fill-rule="evenodd"></path><path id="path2" d="" stroke="none" fill="#008000" fill-rule="evenodd"></path><path id="path3" d="" stroke="none" fill="#ff0000" fill-rule="evenodd"></path><path id="path4" d="M81.319 0.121 L 80.554 0.183 80.444 6.952 C 80.279 17.028,80.306 29.297,80.492 29.412 C 80.580 29.466,80.734 29.189,80.835 28.797 C 81.140 27.617,81.206 27.420,81.327 27.333 C 81.431 27.259,82.317 24.451,82.931 22.250 C 83.285 20.981,84.263 17.873,84.662 16.750 C 84.857 16.200,85.537 13.988,86.172 11.833 C 86.808 9.679,87.401 7.792,87.490 7.639 C 87.613 7.428,89.165 2.467,89.789 0.292 C 89.870 0.008,84.164 -0.107,81.319 0.121 M65.183 0.604 C 63.129 0.728,61.422 0.856,61.389 0.889 C 61.309 0.969,61.977 2.480,62.323 3.000 C 62.475 3.229,63.000 4.279,63.490 5.333 C 63.980 6.388,65.109 8.750,66.000 10.583 C 66.890 12.417,67.828 14.367,68.083 14.917 C 68.338 15.467,68.593 15.954,68.649 16.000 C 68.706 16.046,69.115 16.871,69.558 17.833 C 70.301 19.447,71.682 22.300,74.338 27.708 C 74.912 28.877,75.477 29.833,75.592 29.833 C 75.825 29.833,75.813 29.685,75.305 26.333 C 74.689 22.278,73.815 15.848,72.665 6.917 C 72.299 4.075,71.925 1.578,71.833 1.367 C 71.742 1.157,71.667 0.838,71.667 0.659 C 71.667 0.263,70.929 0.257,65.183 0.604 M49.583 2.821 C 49.125 2.979,48.545 3.194,48.295 3.298 C 48.045 3.403,46.338 3.917,44.503 4.440 C 42.603 4.982,41.167 5.476,41.167 5.587 C 41.167 5.832,42.685 7.320,43.616 7.988 C 44.001 8.264,44.826 8.963,45.450 9.541 C 46.073 10.120,46.846 10.787,47.167 11.024 C 47.487 11.260,48.244 11.896,48.848 12.435 C 49.451 12.975,51.281 14.542,52.914 15.917 C 54.546 17.292,56.397 18.880,57.025 19.447 C 57.654 20.014,58.636 20.833,59.209 21.269 C 59.781 21.704,60.381 22.228,60.542 22.433 C 60.704 22.638,61.391 23.223,62.069 23.734 C 62.747 24.244,63.590 24.945,63.943 25.290 C 64.295 25.636,64.958 26.218,65.417 26.584 C 65.875 26.950,67.056 27.944,68.041 28.792 C 70.748 31.121,70.972 30.958,68.901 28.167 C 68.119 27.113,67.155 25.762,66.759 25.167 C 66.363 24.571,65.872 23.896,65.667 23.667 C 65.463 23.438,64.735 22.406,64.048 21.374 C 63.362 20.342,62.714 19.442,62.609 19.374 C 62.503 19.306,61.783 18.313,61.008 17.167 C 60.233 16.021,59.460 14.933,59.289 14.750 C 59.119 14.567,58.487 13.677,57.885 12.773 C 57.283 11.869,56.590 10.894,56.344 10.606 C 56.099 10.319,55.471 9.434,54.949 8.640 C 54.426 7.847,53.756 6.898,53.458 6.533 C 53.160 6.167,52.394 5.110,51.756 4.184 C 51.118 3.258,50.555 2.508,50.506 2.517 C 50.457 2.527,50.042 2.663,49.583 2.821 M27.618 11.226 C 26.537 11.801,25.524 12.381,25.368 12.514 C 25.211 12.648,24.633 12.993,24.083 13.282 C 21.508 14.633,20.101 15.448,20.043 15.621 C 19.951 15.896,20.167 15.983,24.750 17.515 C 27.042 18.281,28.954 18.954,29.000 19.010 C 29.046 19.066,31.033 19.765,33.417 20.563 C 35.800 21.362,38.050 22.151,38.417 22.318 C 38.783 22.484,40.846 23.203,43.000 23.916 C 45.154 24.628,47.001 25.278,47.104 25.359 C 47.208 25.440,49.233 26.173,51.604 26.987 C 53.976 27.801,57.995 29.181,60.535 30.053 C 63.076 30.926,65.227 31.684,65.316 31.739 C 65.524 31.868,65.679 31.619,65.531 31.396 C 65.468 31.301,64.442 30.677,63.250 30.008 C 62.058 29.339,60.971 28.697,60.833 28.580 C 60.520 28.313,56.504 26.000,56.354 26.000 C 56.294 26.000,55.950 25.794,55.591 25.542 C 55.015 25.137,52.220 23.458,48.528 21.298 C 47.855 20.905,46.655 20.195,45.861 19.721 C 45.067 19.247,43.479 18.319,42.333 17.659 C 41.188 17.000,39.762 16.142,39.167 15.753 C 38.571 15.364,37.298 14.604,36.338 14.064 C 34.367 12.957,34.293 12.913,33.399 12.320 C 33.042 12.083,32.225 11.604,31.583 11.255 C 30.942 10.906,30.269 10.519,30.088 10.394 C 29.661 10.099,29.868 10.030,27.618 11.226 M7.458 25.323 C 5.648 27.134,4.167 28.697,4.167 28.796 C 4.167 29.021,4.407 29.048,12.917 29.759 C 16.767 30.081,22.092 30.531,24.750 30.758 C 27.408 30.986,30.708 31.260,32.083 31.367 C 33.458 31.474,34.621 31.611,34.667 31.672 C 34.712 31.733,35.387 31.831,36.167 31.891 C 36.946 31.950,41.108 32.298,45.417 32.664 C 49.725 33.029,54.637 33.442,56.333 33.581 C 58.029 33.719,59.698 33.871,60.042 33.918 C 60.479 33.978,60.666 33.941,60.666 33.794 C 60.666 33.654,59.275 33.282,56.541 32.688 C 54.273 32.196,52.342 31.738,52.250 31.669 C 52.158 31.601,51.896 31.507,51.667 31.461 C 49.077 30.938,38.854 28.623,38.658 28.515 C 38.408 28.376,34.903 27.572,28.417 26.163 C 26.675 25.785,25.100 25.404,24.917 25.317 C 24.733 25.230,21.621 24.492,18.000 23.676 C 14.379 22.861,11.267 22.157,11.083 22.112 C 10.824 22.048,10.018 22.762,7.458 25.323 M122.250 23.688 C 117.233 24.315,112.304 27.637,110.279 31.758 C 109.072 34.214,108.837 34.796,108.497 36.167 C 106.948 42.422,108.746 48.990,113.197 53.346 C 114.656 54.773,116.397 55.969,117.917 56.587 C 118.283 56.737,118.883 56.998,119.250 57.169 C 120.826 57.903,125.296 58.251,127.761 57.832 C 129.029 57.616,130.667 57.147,130.667 57.000 C 130.667 56.937,130.985 56.793,131.375 56.678 C 132.812 56.257,134.932 54.798,136.299 53.288 C 137.376 52.098,137.389 52.207,136.043 51.140 C 133.794 49.357,133.001 48.876,133.000 49.292 C 132.999 49.360,132.775 49.679,132.500 50.000 C 132.225 50.321,132.001 50.637,132.000 50.702 C 131.998 51.361,128.299 53.066,126.249 53.352 C 117.741 54.543,111.422 46.756,113.453 37.585 C 114.464 33.022,116.515 30.679,121.417 28.488 C 124.410 27.151,129.892 28.531,132.125 31.186 C 132.638 31.796,132.677 31.792,133.669 31.042 C 134.124 30.698,134.946 30.092,135.498 29.695 C 136.711 28.822,136.716 28.763,135.667 27.615 C 132.861 24.545,127.634 23.015,122.250 23.688 M171.653 23.661 C 169.788 23.898,166.333 24.984,166.333 25.332 C 166.333 25.400,165.977 25.604,165.542 25.785 C 163.777 26.521,160.998 29.199,159.914 31.209 C 159.655 31.690,159.384 32.123,159.312 32.172 C 159.240 32.221,158.995 32.671,158.766 33.172 C 156.604 37.915,156.951 45.703,159.499 49.625 C 159.866 50.190,160.167 50.698,160.167 50.754 C 160.167 51.218,163.198 54.362,164.373 55.115 C 166.100 56.224,169.106 57.459,170.793 57.753 C 173.818 58.280,178.387 57.939,180.371 57.037 C 180.763 56.859,181.533 56.509,182.083 56.259 C 185.677 54.626,188.794 51.180,190.092 47.404 C 190.378 46.571,190.657 45.817,190.711 45.730 C 191.503 44.448,191.466 36.847,190.662 35.750 C 190.595 35.658,190.413 35.139,190.257 34.595 C 189.600 32.306,187.858 29.619,185.700 27.568 C 185.214 27.105,182.948 25.653,181.724 25.019 C 179.505 23.871,174.888 23.248,171.653 23.661 M280.333 23.661 C 270.700 24.910,264.649 33.515,266.164 43.815 C 267.140 50.450,271.907 55.756,278.569 57.623 C 281.429 58.424,286.522 57.965,289.308 56.654 C 290.073 56.295,290.755 56.000,290.822 56.000 C 291.345 56.000,295.167 52.636,295.167 52.175 C 295.167 52.081,294.848 51.799,294.458 51.548 C 294.069 51.296,293.354 50.744,292.871 50.321 C 291.322 48.966,291.392 48.966,290.084 50.321 C 284.295 56.316,273.837 53.357,271.418 45.039 C 269.633 38.904,272.265 31.993,277.390 29.357 C 281.776 27.102,286.144 27.608,289.483 30.757 L 290.583 31.795 292.333 30.471 C 294.891 28.537,294.795 28.868,293.236 27.372 C 292.498 26.663,291.600 25.934,291.239 25.752 C 290.878 25.569,290.543 25.366,290.494 25.300 C 289.696 24.225,283.585 23.239,280.333 23.661 M380.417 23.690 C 378.405 23.946,375.167 24.972,375.167 25.354 C 375.167 25.434,375.060 25.500,374.931 25.500 C 373.069 25.500,368.300 31.000,367.185 34.433 C 365.515 39.577,366.215 47.631,368.541 50.023 C 368.662 50.148,368.979 50.625,369.244 51.083 C 370.311 52.924,373.303 55.399,375.667 56.394 C 376.262 56.645,376.879 56.921,377.036 57.006 C 379.568 58.388,386.434 58.303,389.570 56.852 C 390.186 56.567,390.781 56.333,390.891 56.333 C 392.272 56.333,396.859 51.892,398.201 49.256 C 400.936 43.885,400.405 34.098,397.185 30.551 C 397.035 30.385,396.437 29.672,395.857 28.966 C 392.539 24.930,386.608 22.904,380.417 23.690 M214.333 40.747 L 214.333 57.160 214.708 57.253 C 214.915 57.305,215.983 57.325,217.083 57.298 L 219.083 57.250 219.167 44.022 L 219.250 30.794 219.654 31.522 C 219.876 31.922,220.438 32.806,220.904 33.485 C 221.369 34.164,222.373 35.664,223.135 36.818 C 223.896 37.972,224.650 39.068,224.809 39.254 C 225.215 39.726,226.167 41.123,226.167 41.246 C 226.167 41.354,227.388 43.169,227.988 43.954 C 228.377 44.462,231.437 49.035,233.233 51.792 C 233.636 52.410,234.084 53.067,234.228 53.250 C 234.372 53.433,235.036 54.408,235.703 55.417 L 236.917 57.250 239.833 57.250 L 242.750 57.250 242.792 40.792 L 242.835 24.333 240.502 24.333 L 238.169 24.333 238.126 37.542 L 238.083 50.750 236.714 48.667 C 235.961 47.521,235.003 46.096,234.585 45.500 C 234.167 44.904,232.818 42.879,231.586 41.000 C 230.355 39.121,228.930 36.983,228.420 36.250 C 227.911 35.517,226.501 33.412,225.288 31.573 C 222.022 26.620,222.030 26.632,221.538 25.975 C 221.288 25.641,220.956 25.134,220.799 24.850 L 220.516 24.333 217.424 24.333 L 214.333 24.333 214.333 40.747 M317.167 40.833 L 317.167 57.333 319.411 57.333 C 321.459 57.333,321.670 57.305,321.827 57.011 C 321.939 56.803,322.000 54.140,322.000 49.511 L 322.000 42.333 330.167 42.333 L 338.333 42.333 338.333 49.833 L 338.333 57.333 340.667 57.333 L 343.000 57.333 343.000 40.833 L 343.000 24.333 340.667 24.333 L 338.333 24.333 338.333 31.083 L 338.333 37.833 330.167 37.833 L 322.000 37.833 322.000 31.347 C 322.000 27.779,321.954 24.742,321.899 24.597 C 321.813 24.374,321.440 24.333,319.482 24.333 L 317.167 24.333 317.167 40.833 M176.700 28.183 C 179.060 28.672,181.988 30.484,183.348 32.295 C 183.743 32.820,184.152 33.325,184.258 33.417 C 185.322 34.339,186.510 39.345,186.252 41.823 C 186.016 44.082,184.940 47.597,184.362 47.991 C 184.288 48.042,183.921 48.496,183.548 49.000 C 178.597 55.682,167.541 54.697,163.914 47.250 C 162.392 44.127,161.702 39.714,162.496 38.190 C 162.574 38.040,162.765 37.414,162.919 36.799 C 163.788 33.338,166.109 30.555,169.302 29.144 C 169.915 28.873,170.567 28.578,170.750 28.489 C 171.701 28.026,175.099 27.851,176.700 28.183 M385.500 28.179 C 388.857 28.941,391.546 30.888,393.253 33.792 C 393.429 34.090,393.620 34.333,393.679 34.333 C 393.877 34.333,394.826 37.402,394.994 38.583 C 395.975 45.482,392.280 51.558,386.167 53.101 C 380.787 54.459,374.913 51.873,372.735 47.187 C 372.410 46.488,372.034 45.712,371.898 45.462 C 370.947 43.705,370.961 37.785,371.921 36.000 C 372.044 35.771,372.376 35.096,372.659 34.500 C 373.786 32.119,375.633 30.293,378.000 29.216 C 378.688 28.903,379.400 28.577,379.583 28.491 C 380.584 28.022,384.014 27.841,385.500 28.179 " stroke="none" fill="#acaa9f" fill-rule="evenodd"></path></g></svg>