<?xml version="1.0" encoding="iso-8859-1"?>
<!-- Generator: Adobe Illustrator 19.0.0, SVG Export Plug-In . SVG Version: 6.00 Build 0)  -->
<svg xmlns="http://www.w3.org/2000/svg" xmlns:xlink="http://www.w3.org/1999/xlink" version="1.1" id="Capa_1" x="0px" y="0px" viewBox="0 0 512 512" style="enable-background:new 0 0 512 512;" xml:space="preserve" width="512px" height="512px">
<g>
	<g>
		<path d="M467,211c-1.868,0-3.646,0.33-5.453,0.551l-53.2-104.401C416.144,99.055,421,88.101,421,76c0-24.814-20.186-45-45-45    c-19.53,0-36.024,12.578-42.237,30H178.237C172.024,43.578,155.53,31,136,31c-24.814,0-45,20.186-45,45    c0,12.101,4.856,23.055,12.653,31.15l-53.2,104.401C48.646,211.33,46.868,211,45,211c-24.814,0-45,20.186-45,45    c0,24.814,20.186,45,45,45c1.868,0,3.646-0.33,5.453-0.551l53.2,104.401C95.856,412.945,91,423.899,91,436    c0,24.814,20.186,45,45,45c19.53,0,36.024-12.578,42.237-30h155.526c6.213,17.422,22.707,30,42.237,30c24.814,0,45-20.186,45-45    c0-12.101-4.856-23.055-12.653-31.15l53.2-104.401C463.354,300.67,465.132,301,467,301c24.814,0,45-20.186,45-45    C512,231.186,491.814,211,467,211z M376,121c1.868,0,3.646-0.33,5.453-0.551l53.185,104.372l-74.01-25.137    c0.103-1.236,0.372-2.422,0.372-3.684c0-13.542-6.138-25.56-15.632-33.816l30.311-41.217C375.789,120.967,375.89,121,376,121z     M421.346,251.963l-157.87,39.212c-0.016-0.026-0.027-0.059-0.046-0.084l39.24-52.335c4.239,1.328,8.659,2.245,13.33,2.245    c12.704,0,24.141-5.338,32.331-13.832L421.346,251.963z M333.763,91c2.628,7.366,7.081,13.782,12.869,18.816l-30.311,41.217    c-0.11,0-0.211-0.033-0.32-0.033c-10.091,0-19.316,3.457-26.829,9.088L185.541,91H333.763z M272.509,185.034    C271.617,188.564,271,192.197,271,196c0,9.212,2.802,17.77,7.57,24.91l-39.24,52.335C235.091,271.917,230.671,271,226,271    c-0.28,0-0.536,0.077-0.815,0.082l-58.808-156.804L272.509,185.034z M130.548,120.45c1.806,0.22,3.584,0.55,5.452,0.55    c0.28,0,0.536-0.077,0.815-0.082l60.324,160.847c-2.371,2.001-4.521,4.215-6.436,6.66L89.916,255.171    c-0.22-11.766-4.955-22.416-12.568-30.32L130.548,120.45z M149.329,393.245C145.091,391.917,140.671,391,136,391    c-1.868,0-3.646,0.33-5.453,0.551l-53.2-104.401c1.071-1.113,1.996-2.357,2.95-3.574l100.787,33.254    c0.167,8.89,2.864,17.161,7.485,24.08L149.329,393.245z M178.237,421c-1.249-3.503-2.774-6.866-4.807-9.91l39.24-52.335    c4.239,1.328,8.659,2.245,13.33,2.245c8.694,0,16.745-2.589,23.633-6.876L333.223,421H178.237z M381.454,391.55    c-1.808-0.22-3.586-0.55-5.454-0.55c-8.694,0-16.745,2.589-23.633,6.876l-84.023-67.222c1.144-3.296,1.873-6.751,2.221-10.344    l158.96-39.485c1.509,2.269,3.245,4.369,5.129,6.324L381.454,391.55z" fill="#FFFFFF"/>
	</g>
</g>
<g>
</g>
<g>
</g>
<g>
</g>
<g>
</g>
<g>
</g>
<g>
</g>
<g>
</g>
<g>
</g>
<g>
</g>
<g>
</g>
<g>
</g>
<g>
</g>
<g>
</g>
<g>
</g>
<g>
</g>
</svg>
