<?xml version="1.0" standalone="no"?>
<!DOCTYPE svg PUBLIC "-//W3C//DTD SVG 20010904//EN"
 "http://www.w3.org/TR/2001/REC-SVG-20010904/DTD/svg10.dtd">
<svg version="1.0" xmlns="http://www.w3.org/2000/svg"
 width="900.000000pt" height="900.000000pt" viewBox="0 0 900.000000 900.000000"
 preserveAspectRatio="xMidYMid meet">
<metadata>
Created by potrace 1.15, written by Peter Selinger 2001-2017
</metadata>
<g transform="translate(0.000000,900.000000) scale(0.100000,-0.100000)"
fill="#000000" stroke="none">
<path d="M1124 4500 l0 -4500 3378 0 3378 0 0 3713 0 3712 -788 788 -787 787
-2591 0 -2590 0 0 -4500z m4499 3095 l2 -840 843 -3 842 -2 0 -3095 0 -3095
-2810 0 -2810 0 0 3940 0 3940 1965 -2 1966 -3 2 -840z m1072 215 l500 -500
-503 0 -502 0 0 500 c0 275 1 500 3 500 1 0 227 -225 502 -500z"/>
<path d="M5770 6176 c-349 -63 -617 -319 -691 -661 -7 -33 -13 -109 -13 -169
l0 -108 -692 -346 -692 -346 -73 56 c-145 110 -292 165 -466 175 -402 23 -753
-229 -865 -622 -30 -106 -32 -313 -4 -420 80 -308 325 -548 632 -621 101 -24
287 -21 389 5 104 27 244 97 323 160 l62 51 693 -346 692 -347 1 -116 c4 -370
237 -684 594 -796 116 -36 289 -45 410 -21 520 106 815 655 616 1148 -76 187
-259 374 -443 450 l-53 22 0 613 0 613 64 29 c244 111 423 335 478 598 23 113
20 262 -7 373 -25 97 -106 255 -170 333 -189 225 -505 343 -785 293z m-396
-1485 c73 -55 133 -91 194 -116 l53 -22 0 -613 0 -613 -88 -43 c-48 -24 -116
-66 -150 -94 l-62 -50 -694 347 -694 346 1 105 1 104 685 344 c377 188 689
343 694 343 5 1 32 -16 60 -38z"/>
</g>
</svg>
