<svg width="24.92" height="24.92" xmlns="http://www.w3.org/2000/svg">

 <g>
  <title>background</title>
  <rect fill="none" id="canvas_background" height="402" width="582" y="-1" x="-1"/>
 </g>
 <g>
  <title>Layer 1</title>
  <g id="svg_1">
   <g id="c25_diagram">
    <path fill="#ffffff" id="svg_2" d="m20.226,14.389l-6.576,-3.859l3.672,0l0,-10.53l-10.531,0l0,10.529l3.822,0l-5.949,3.859l-4.334,0l0,10.532l10.529,0l0,-10.531l-4.03,0l5.227,-3.404l6.045,3.404l-4.042,0l0,10.531l10.531,0l0,-10.531l-4.364,0zm-11.468,-12.342l6.596,0l0,6.598l-6.596,0l0,-6.598zm0.136,14.389l0,6.598l-6.597,0l0,-6.598l6.597,0zm13.729,6.597l-6.596,0l0,-6.598l6.596,0l0,6.598z"/>
   </g>
   <g id="Capa_1_120_"/>
  </g>
  <g id="svg_3"/>
  <g id="svg_4"/>
  <g id="svg_5"/>
  <g id="svg_6"/>
  <g id="svg_7"/>
  <g id="svg_8"/>
  <g id="svg_9"/>
  <g id="svg_10"/>
  <g id="svg_11"/>
  <g id="svg_12"/>
  <g id="svg_13"/>
  <g id="svg_14"/>
  <g id="svg_15"/>
  <g id="svg_16"/>
  <g id="svg_17"/>
 </g>
</svg>