<svg version="1.0" xmlns="http://www.w3.org/2000/svg"

 width="1573.000000pt" height="637.000000pt" viewBox="0 0 1573.000000 637.000000"

 preserveAspectRatio="xMidYMid meet">

<path fill="#0a0a0a" stroke="none" d="
M482 584

C482 583 486 571 491 558

L500 533

L504 533

L508 533

L508 534

C508 535 504 547 499 560

L491 585

L486 585

L482 585

L482 584

Z

M323 557

L324 534

L328 533

L332 533

L332 557

L332 581

L327 581

L323 581

L323 557

Z

M353 557

L354 534

L358 533

L362 533

L362 557

L362 581

L357 581

L353 581

L353 557

Z

M393 580

C390 579 385 575 383 571

C383 569 382 564 381 560

C381 551 383 543 387 539

C393 533 401 532 409 535

C417 538 420 543 420 557

C420 562 420 568 419 570

C417 574 413 578 409 580

C406 581 397 581 393 580

Z

M407 573

C407 573 408 572 409 570

C411 567 411 565 411 557

C411 547 410 544 406 541

C397 537 391 542 390 555

C390 570 394 576 403 574

C405 573 407 573 407 573

Z

M449 561

L449 541

L442 540

L435 540

L435 536

L435 533

L453 533

L471 533

L471 537

L471 540

L465 540

L458 540

L458 561

L458 581

L454 581

L449 581

L449 561

Z

M524 557

L525 534

L529 533

L533 533

L533 557

L533 581

L528 581

L524 581

L524 557

Z

M564 580

C561 579 556 575 554 571

C554 569 553 564 552 560

C552 551 554 543 558 539

C564 533 572 532 580 535

C588 538 591 543 591 557

C591 562 591 568 590 570

C588 574 584 578 580 580

C577 581 568 581 564 580

Z

M578 573

C578 573 579 572 580 570

C582 567 582 565 582 557

C582 547 581 544 577 541

C568 537 562 542 561 555

C561 570 565 576 574 574

C576 573 578 573 578 573

Z

M620 561

L620 541

L613 540

L606 540

L606 536

L606 533

L624 533

L642 533

L642 537

L642 540

L636 540

L629 540

L629 561

L629 581

L625 581

L620 581

L620 561

Z

M681 557

L682 534

L698 533

L714 533

L714 536

L714 540

L703 540

L691 540

L691 547

L691 554

L701 554

L711 554

L711 558

L711 561

L701 561

L691 561

L691 571

L691 581

L686 581

L681 581

L681 557

Z

M730 557

L731 534

L742 534

C760 534 765 537 765 548

C765 551 764 553 762 555

L759 558

L761 560

C764 562 766 567 766 573

C766 575 766 578 767 579

L768 581

L764 581

C761 581 759 580 758 580

C758 579 757 576 757 573

C757 568 757 567 755 564

C752 562 751 562 746 562

L740 562

L740 572

L740 581

L735 581

L730 581

L730 557

Z

M754 553

C757 551 756 545 754 543

C753 541 750 541 746 540

L740 540

L740 547

L740 555

L746 555

C750 555 754 554 754 553

Z

M781 581

C781 580 792 547 795 539

L797 533

L802 533

L806 534

L811 548

C817 563 822 579 822 580

L822 581

L818 581

L813 581

L812 577

C811 574 811 572 810 571

L810 570

L802 570

C793 570 793 570 791 577

L790 581

L785 581

L781 581

L781 581

Z

M807 563

C808 563 803 547 802 546

L801 545

L799 553

C797 557 796 562 796 563

L796 564

L801 564

C804 564 807 564 807 563

Z

M837 557

L838 534

L843 533

L849 533

L850 536

C851 538 854 546 857 554

L862 568

L862 568

L863 568

L869 551

L875 534

L881 534

L887 534

L887 557

L887 581

L882 581

L878 581

L878 564

L879 546

L878 547

C877 547 875 553 873 559

C866 580 866 580 862 581

L859 581

L853 564

C850 554 847 546 846 546

L846 546

L847 563

L847 581

L842 581

L837 581

L837 557

Z

M905 557

L906 534

L922 533

L938 533

L938 536

L938 540

L927 540

L915 540

L915 547

L915 553

L925 553

L934 553

L934 557

L934 560

L925 560

L915 560

L915 567

L915 574

L927 574

L938 574

L938 578

L938 581

L921 581

L905 581

L905 557

Z

M961 581

C961 580 951 537 950 535

L950 533

L954 533

L959 533

L959 535

C960 536 961 544 963 551

C964 558 966 565 966 565

L967 566

L970 552

C972 544 975 537 975 535

L976 533

L979 533

L982 533

L986 548

C988 557 990 564 991 565

L991 567

L992 565

C992 564 994 557 995 549

L999 534

L1003 533

L1007 533

L1007 534

C1007 534 998 572 997 577

L996 581

L992 581

L988 581

L984 566

C981 558 979 551 979 551

L978 550

L977 555

C976 558 974 565 972 571

L970 581

L965 581

L961 581

L961 581

Z

M1033 580

C1030 579 1025 575 1023 571

C1023 569 1022 564 1021 560

C1021 551 1023 543 1027 539

C1033 533 1041 532 1049 535

C1057 538 1060 543 1060 557

C1060 562 1060 568 1059 570

C1057 574 1053 578 1049 580

C1046 581 1037 581 1033 580

Z

M1047 573

C1047 573 1048 572 1049 570

C1051 567 1051 565 1051 557

C1051 547 1050 544 1046 541

C1037 537 1031 542 1030 555

C1030 570 1034 576 1043 574

C1045 573 1047 573 1047 573

Z

M1078 557

L1079 534

L1090 534

C1108 534 1113 537 1113 548

C1113 551 1112 553 1110 555

L1107 558

L1109 560

C1112 562 1114 567 1114 573

C1114 575 1114 578 1115 579

L1116 581

L1112 581

C1109 581 1107 580 1106 580

C1106 579 1105 576 1105 573

C1105 568 1105 567 1103 564

C1100 562 1099 562 1094 562

L1088 562

L1088 572

L1088 581

L1083 581

L1078 581

L1078 557

Z

M1102 553

C1105 551 1104 545 1102 543

C1101 541 1098 541 1094 540

L1088 540

L1088 547

L1088 555

L1094 555

C1098 555 1102 554 1102 553

Z

M1132 557

L1133 534

L1137 533

L1142 533

L1142 543

L1142 553

L1144 553

C1146 553 1148 551 1153 543

C1159 533 1159 533 1165 533

L1170 533

L1169 534

C1169 535 1167 538 1165 541

C1163 543 1160 548 1158 551

L1154 556

L1162 567

C1166 573 1170 578 1170 579

L1171 581

L1166 581

C1160 581 1160 581 1154 571

C1148 562 1147 561 1145 561

L1142 561

L1142 571

L1142 581

L1137 581

L1132 581

L1132 557

Z

M522 501

C646 501 848 501 972 501

L1198 502

L748 502

L298 502

L522 501

Z

M292 475

C280 473 274 464 274 446

C274 430 278 421 287 418

C296 414 308 416 313 422

C315 424 318 430 318 433

L318 435

L315 435

L311 435

L310 431

C308 424 301 420 293 421

C289 422 283 429 282 434

C281 439 281 455 283 459

C285 464 289 469 294 470

C302 471 308 467 310 460

L311 456

L315 456

L318 456

L318 460

C317 464 313 470 309 472

C305 475 298 476 292 475

Z

M408 474

C402 472 398 469 395 464

C393 460 393 459 393 446

C393 432 393 431 395 427

C400 418 409 414 420 416

C427 417 433 422 436 429

C438 433 439 435 439 446

C439 456 438 458 436 462

C431 473 419 478 408 474

Z

M424 467

C429 464 431 458 431 446

C431 437 431 434 429 431

C426 425 421 422 415 422

C403 422 398 432 399 450

C400 454 401 459 401 461

C406 469 415 472 424 467

Z

M474 474

C468 473 464 469 462 466

C461 463 460 459 460 439

L460 416

L464 416

L468 416

L468 438

C468 462 468 464 473 467

C477 470 487 470 491 467

C496 463 497 461 497 437

L497 416

L501 416

L504 416

L504 440

C504 464 504 464 501 467

C499 470 496 472 494 473

C488 475 478 476 474 474

Z

M862 475

C856 474 853 471 849 467

C844 462 843 457 843 445

C843 425 851 416 867 416

C878 416 885 421 887 429

L887 433

L884 433

C881 433 880 432 879 429

C874 419 861 419 854 428

C852 431 851 433 851 444

C851 456 851 458 853 462

C856 467 863 470 870 470

C873 469 876 468 878 468

C880 466 880 465 880 459

L880 452

L874 452

L867 452

L867 449

L867 446

L878 446

L888 446

L888 456

C888 465 888 467 886 469

C881 474 870 477 862 475

Z

M339 446

L339 416

L343 416

L347 416

L347 443

L347 469

L361 469

L375 469

L375 472

L375 475

L357 475

L339 475

L339 446

Z

M527 446

L527 416

L540 416

C554 417 560 419 565 424

C569 430 570 434 570 446

C570 457 569 461 565 467

C560 472 554 474 540 475

L527 475

L527 446

Z

M552 468

C556 466 560 462 562 458

C563 456 563 451 563 446

C563 435 562 432 558 428

C554 423 550 422 542 422

L535 422

L535 446

L535 469

L542 469

C546 469 551 468 552 468

Z

M721 446

L721 416

L741 416

L760 416

L760 419

L760 422

L745 422

L729 422

L729 432

L729 442

L743 442

L756 442

L756 445

L756 447

L743 447

L729 447

L729 458

L729 469

L745 469

L760 469

L760 472

L760 475

L741 475

L721 475

L721 446

Z

M780 446

L780 416

L793 416

C807 417 813 419 818 424

C822 430 823 434 823 446

C823 457 822 461 818 467

C813 472 807 474 793 475

L780 475

L780 446

Z

M805 468

C809 466 813 462 815 458

C816 456 816 451 816 446

C816 435 815 432 811 428

C807 423 803 422 795 422

L788 422

L788 446

L788 469

L795 469

C799 469 804 468 805 468

Z

M912 446

L912 416

L932 416

L951 416

L951 419

L951 422

L936 422

L920 422

L920 432

L920 442

L934 442

L947 442

L947 445

L947 447

L934 447

L920 447

L920 458

L920 469

L936 469

L951 469

L951 472

L951 475

L932 475

L912 475

L912 446

Z

M1099 445

L1099 416

L1104 416

C1109 417 1109 417 1119 440

C1124 453 1128 463 1128 464

L1129 464

L1135 447

C1139 437 1143 428 1143 427

C1144 425 1145 422 1146 420

L1147 416

L1152 416

L1157 416

L1157 446

L1157 475

L1153 475

L1150 475

L1150 452

L1151 428

L1150 429

C1149 429 1145 440 1140 452

L1131 475

L1128 475

C1126 475 1125 473 1119 459

C1116 450 1113 442 1112 441

C1112 439 1110 436 1109 434

C1108 431 1107 429 1107 429

L1106 428

L1107 452

L1107 475

L1103 475

L1099 475

L1099 445

Z

M1182 446

L1182 416

L1186 416

L1190 416

L1190 443

L1190 469

L1204 469

L1218 469

L1218 472

L1218 475

L1200 475

L1182 475

L1182 446

Z

M624 446

L624 443

L646 443

L667 443

L667 446

L667 448

L646 448

L624 448

L624 446

Z

M1002 446

L1002 443

L1024 443

L1045 443

L1045 446

L1045 448

L1024 448

L1002 448

L1002 446

Z

M1026 372

C994 368 973 351 965 323

C963 316 963 313 962 238

L962 161

L976 161

L990 161

L990 235

C990 315 990 317 996 328

C1004 343 1021 352 1043 351

C1067 350 1083 339 1089 320

C1091 314 1091 312 1092 237

L1092 161

L1106 161

L1119 161

L1119 232

C1120 304 1119 314 1116 324

C1109 353 1082 371 1045 372

C1039 373 1030 372 1026 372

Z

M1221 372

C1201 370 1182 361 1169 348

C1161 339 1155 326 1155 314

L1155 310

L1168 310

L1182 310

L1182 316

C1183 324 1186 330 1191 336

C1209 355 1254 356 1271 338

C1278 331 1279 327 1279 318

C1279 307 1277 301 1270 294

C1261 286 1253 283 1223 275

C1188 265 1167 248 1162 226

C1160 218 1161 204 1164 196

C1173 176 1193 162 1221 159

C1239 157 1256 159 1272 167

C1280 171 1283 173 1289 179

C1299 190 1306 204 1306 216

L1306 221

L1293 221

L1279 221

L1279 215

C1277 200 1268 188 1253 183

C1239 179 1221 179 1208 185

C1187 194 1182 222 1199 236

C1208 243 1220 248 1245 255

C1275 263 1294 277 1303 294

C1311 311 1309 332 1298 347

C1284 366 1253 376 1221 372

Z

M249 277

L249 183

L216 183

L182 183

L182 172

L182 161

L263 161

L344 161

L344 172

L344 183

L311 183

L277 183

L277 277

L277 370

L263 370

L249 370

L249 277

Z

M364 360

L364 349

L381 349

C390 348 417 348 442 348

L486 348

L486 359

L486 370

L425 370

L364 370

L364 360

Z

M521 266

L521 161

L539 161

L557 161

L563 176

C566 184 573 202 579 217

C584 231 597 262 606 287

L623 331

L624 331

L625 331

L627 326

C628 323 640 291 654 255

C669 219 683 183 686 175

L691 161

L709 161

L727 161

L727 266

L727 370

L713 370

L699 370

L699 331

C699 309 700 273 701 251

C701 229 702 208 702 206

L702 202

L701 203

C700 204 685 242 667 287

L633 370

L624 370

L615 370

L607 350

C603 339 599 330 598 329

C598 327 593 315 587 301

C581 287 573 267 569 256

C564 245 558 229 554 220

L548 203

L547 203

L546 203

L547 221

C547 231 547 241 548 243

C548 245 548 275 549 309

L549 370

L535 370

L521 370

L521 266

Z

M779 266

L779 161

L821 161

C844 161 866 161 871 162

C909 166 931 192 929 228

C927 260 907 280 873 285

C868 286 852 286 836 286

L807 286

L807 328

L807 370

L793 370

L779 370

L779 266

Z

M873 263

C875 262 880 260 883 258

C898 250 905 229 899 210

C895 198 886 189 876 185

C871 184 865 184 839 183

L807 183

L807 223

L807 264

L837 264

C860 264 869 264 873 263

Z

M364 265

L364 254

L381 254

C390 253 417 253 442 253

L486 253

L486 264

L486 275

L425 275

L364 275

L364 265

Z

M364 173

L364 162

L381 162

C390 161 417 161 442 161

L486 161

L486 172

L486 183

L425 183

L364 183

L364 173

Z

"/>

<path fill="#424242" stroke="none" d="
M482 584

C482 583 486 571 491 558

L500 533

L504 533

L508 533

L508 534

C508 535 504 547 499 560

L491 585

L486 585

L482 585

L482 584

Z

M323 557

L324 534

L328 533

L332 533

L332 557

L332 581

L327 581

L323 581

L323 557

Z

M353 557

L354 534

L358 533

L362 533

L362 557

L362 581

L357 581

L353 581

L353 557

Z

M393 580

C390 579 385 575 383 571

C383 569 382 564 381 560

C381 551 383 543 387 539

C393 533 401 532 409 535

C417 538 420 543 420 557

C420 562 420 568 419 570

C417 574 413 578 409 580

C406 581 397 581 393 580

Z

M407 573

C407 573 408 572 409 570

C411 567 411 565 411 557

C411 547 410 544 406 541

C397 537 391 542 390 555

C390 570 394 576 403 574

C405 573 407 573 407 573

Z

M449 561

L449 541

L442 540

L435 540

L435 536

L435 533

L453 533

L471 533

L471 537

L471 540

L465 540

L458 540

L458 561

L458 581

L454 581

L449 581

L449 561

Z

M524 557

L525 534

L529 533

L533 533

L533 557

L533 581

L528 581

L524 581

L524 557

Z

M564 580

C561 579 556 575 554 571

C554 569 553 564 552 560

C552 551 554 543 558 539

C564 533 572 532 580 535

C588 538 591 543 591 557

C591 562 591 568 590 570

C588 574 584 578 580 580

C577 581 568 581 564 580

Z

M578 573

C578 573 579 572 580 570

C582 567 582 565 582 557

C582 547 581 544 577 541

C568 537 562 542 561 555

C561 570 565 576 574 574

C576 573 578 573 578 573

Z

M620 561

L620 541

L613 540

L606 540

L606 536

L606 533

L624 533

L642 533

L642 537

L642 540

L636 540

L629 540

L629 561

L629 581

L625 581

L620 581

L620 561

Z

M681 557

L682 534

L698 533

L714 533

L714 536

L714 540

L703 540

L691 540

L691 547

L691 554

L701 554

L711 554

L711 558

L711 561

L701 561

L691 561

L691 571

L691 581

L686 581

L681 581

L681 557

Z

M730 557

L731 534

L742 534

C760 534 765 537 765 548

C765 551 764 553 762 555

L759 558

L761 560

C764 562 766 567 766 573

C766 575 766 578 767 579

L768 581

L764 581

C761 581 759 580 758 580

C758 579 757 576 757 573

C757 568 757 567 755 564

C752 562 751 562 746 562

L740 562

L740 572

L740 581

L735 581

L730 581

L730 557

Z

M754 553

C757 551 756 545 754 543

C753 541 750 541 746 540

L740 540

L740 547

L740 555

L746 555

C750 555 754 554 754 553

Z

M781 581

C781 580 792 547 795 539

L797 533

L802 533

L806 534

L811 548

C817 563 822 579 822 580

L822 581

L818 581

L813 581

L812 577

C811 574 811 572 810 571

L810 570

L802 570

C793 570 793 570 791 577

L790 581

L785 581

L781 581

L781 581

Z

M807 563

C808 563 803 547 802 546

L801 545

L799 553

C797 557 796 562 796 563

L796 564

L801 564

C804 564 807 564 807 563

Z

M837 557

L838 534

L843 533

L849 533

L850 536

C851 538 854 546 857 554

L862 568

L862 568

L863 568

L869 551

L875 534

L881 534

L887 534

L887 557

L887 581

L882 581

L878 581

L878 564

L879 546

L878 547

C877 547 875 553 873 559

C866 580 866 580 862 581

L859 581

L853 564

C850 554 847 546 846 546

L846 546

L847 563

L847 581

L842 581

L837 581

L837 557

Z

M905 557

L906 534

L922 533

L938 533

L938 536

L938 540

L927 540

L915 540

L915 547

L915 553

L925 553

L934 553

L934 557

L934 560

L925 560

L915 560

L915 567

L915 574

L927 574

L938 574

L938 578

L938 581

L921 581

L905 581

L905 557

Z

M961 581

C961 580 951 537 950 535

L950 533

L954 533

L959 533

L959 535

C960 536 961 544 963 551

C964 558 966 565 966 565

L967 566

L970 552

C972 544 975 537 975 535

L976 533

L979 533

L982 533

L986 548

C988 557 990 564 991 565

L991 567

L992 565

C992 564 994 557 995 549

L999 534

L1003 533

L1007 533

L1007 534

C1007 534 998 572 997 577

L996 581

L992 581

L988 581

L984 566

C981 558 979 551 979 551

L978 550

L977 555

C976 558 974 565 972 571

L970 581

L965 581

L961 581

L961 581

Z

M1033 580

C1030 579 1025 575 1023 571

C1023 569 1022 564 1021 560

C1021 551 1023 543 1027 539

C1033 533 1041 532 1049 535

C1057 538 1060 543 1060 557

C1060 562 1060 568 1059 570

C1057 574 1053 578 1049 580

C1046 581 1037 581 1033 580

Z

M1047 573

C1047 573 1048 572 1049 570

C1051 567 1051 565 1051 557

C1051 547 1050 544 1046 541

C1037 537 1031 542 1030 555

C1030 570 1034 576 1043 574

C1045 573 1047 573 1047 573

Z

M1078 557

L1079 534

L1090 534

C1108 534 1113 537 1113 548

C1113 551 1112 553 1110 555

L1107 558

L1109 560

C1112 562 1114 567 1114 573

C1114 575 1114 578 1115 579

L1116 581

L1112 581

C1109 581 1107 580 1106 580

C1106 579 1105 576 1105 573

C1105 568 1105 567 1103 564

C1100 562 1099 562 1094 562

L1088 562

L1088 572

L1088 581

L1083 581

L1078 581

L1078 557

Z

M1102 553

C1105 551 1104 545 1102 543

C1101 541 1098 541 1094 540

L1088 540

L1088 547

L1088 555

L1094 555

C1098 555 1102 554 1102 553

Z

M1132 557

L1133 534

L1137 533

L1142 533

L1142 543

L1142 553

L1144 553

C1146 553 1148 551 1153 543

C1159 533 1159 533 1165 533

L1170 533

L1169 534

C1169 535 1167 538 1165 541

C1163 543 1160 548 1158 551

L1154 556

L1162 567

C1166 573 1170 578 1170 579

L1171 581

L1166 581

C1160 581 1160 581 1154 571

C1148 562 1147 561 1145 561

L1142 561

L1142 571

L1142 581

L1137 581

L1132 581

L1132 557

Z

M522 501

C646 501 848 501 972 501

L1198 502

L748 502

L298 502

L522 501

Z

M292 475

C280 473 274 464 274 446

C274 430 278 421 287 418

C296 414 308 416 313 422

C315 424 318 430 318 433

L318 435

L315 435

L311 435

L310 431

C308 424 301 420 293 421

C289 422 283 429 282 434

C281 439 281 455 283 459

C285 464 289 469 294 470

C302 471 308 467 310 460

L311 456

L315 456

L318 456

L318 460

C317 464 313 470 309 472

C305 475 298 476 292 475

Z

M408 474

C402 472 398 469 395 464

C393 460 393 459 393 446

C393 432 393 431 395 427

C400 418 409 414 420 416

C427 417 433 422 436 429

C438 433 439 435 439 446

C439 456 438 458 436 462

C431 473 419 478 408 474

Z

M424 467

C429 464 431 458 431 446

C431 437 431 434 429 431

C426 425 421 422 415 422

C403 422 398 432 399 450

C400 454 401 459 401 461

C406 469 415 472 424 467

Z

M474 474

C468 473 464 469 462 466

C461 463 460 459 460 439

L460 416

L464 416

L468 416

L468 438

C468 462 468 464 473 467

C477 470 487 470 491 467

C496 463 497 461 497 437

L497 416

L501 416

L504 416

L504 440

C504 464 504 464 501 467

C499 470 496 472 494 473

C488 475 478 476 474 474

Z

M862 475

C856 474 853 471 849 467

C844 462 843 457 843 445

C843 425 851 416 867 416

C878 416 885 421 887 429

L887 433

L884 433

C881 433 880 432 879 429

C874 419 861 419 854 428

C852 431 851 433 851 444

C851 456 851 458 853 462

C856 467 863 470 870 470

C873 469 876 468 878 468

C880 466 880 465 880 459

L880 452

L874 452

L867 452

L867 449

L867 446

L878 446

L888 446

L888 456

C888 465 888 467 886 469

C881 474 870 477 862 475

Z

M339 446

L339 416

L343 416

L347 416

L347 443

L347 469

L361 469

L375 469

L375 472

L375 475

L357 475

L339 475

L339 446

Z

M527 446

L527 416

L540 416

C554 417 560 419 565 424

C569 430 570 434 570 446

C570 457 569 461 565 467

C560 472 554 474 540 475

L527 475

L527 446

Z

M552 468

C556 466 560 462 562 458

C563 456 563 451 563 446

C563 435 562 432 558 428

C554 423 550 422 542 422

L535 422

L535 446

L535 469

L542 469

C546 469 551 468 552 468

Z

M721 446

L721 416

L741 416

L760 416

L760 419

L760 422

L745 422

L729 422

L729 432

L729 442

L743 442

L756 442

L756 445

L756 447

L743 447

L729 447

L729 458

L729 469

L745 469

L760 469

L760 472

L760 475

L741 475

L721 475

L721 446

Z

M780 446

L780 416

L793 416

C807 417 813 419 818 424

C822 430 823 434 823 446

C823 457 822 461 818 467

C813 472 807 474 793 475

L780 475

L780 446

Z

M805 468

C809 466 813 462 815 458

C816 456 816 451 816 446

C816 435 815 432 811 428

C807 423 803 422 795 422

L788 422

L788 446

L788 469

L795 469

C799 469 804 468 805 468

Z

M912 446

L912 416

L932 416

L951 416

L951 419

L951 422

L936 422

L920 422

L920 432

L920 442

L934 442

L947 442

L947 445

L947 447

L934 447

L920 447

L920 458

L920 469

L936 469

L951 469

L951 472

L951 475

L932 475

L912 475

L912 446

Z

M1099 445

L1099 416

L1104 416

C1109 417 1109 417 1119 440

C1124 453 1128 463 1128 464

L1129 464

L1135 447

C1139 437 1143 428 1143 427

C1144 425 1145 422 1146 420

L1147 416

L1152 416

L1157 416

L1157 446

L1157 475

L1153 475

L1150 475

L1150 452

L1151 428

L1150 429

C1149 429 1145 440 1140 452

L1131 475

L1128 475

C1126 475 1125 473 1119 459

C1116 450 1113 442 1112 441

C1112 439 1110 436 1109 434

C1108 431 1107 429 1107 429

L1106 428

L1107 452

L1107 475

L1103 475

L1099 475

L1099 445

Z

M1182 446

L1182 416

L1186 416

L1190 416

L1190 443

L1190 469

L1204 469

L1218 469

L1218 472

L1218 475

L1200 475

L1182 475

L1182 446

Z

M624 446

L624 443

L646 443

L667 443

L667 446

L667 448

L646 448

L624 448

L624 446

Z

M1002 446

L1002 443

L1024 443

L1045 443

L1045 446

L1045 448

L1024 448

L1002 448

L1002 446

Z

M1026 372

C994 368 973 351 965 323

C963 316 963 313 962 238

L962 161

L976 161

L990 161

L990 235

C990 315 990 317 996 328

C1004 343 1021 352 1043 351

C1067 350 1083 339 1089 320

C1091 314 1091 312 1092 237

L1092 161

L1106 161

L1119 161

L1119 232

C1120 304 1119 314 1116 324

C1109 353 1082 371 1045 372

C1039 373 1030 372 1026 372

Z

M1221 372

C1201 370 1182 361 1169 348

C1161 339 1155 326 1155 314

L1155 310

L1168 310

L1182 310

L1182 316

C1183 324 1186 330 1191 336

C1209 355 1254 356 1271 338

C1278 331 1279 327 1279 318

C1279 307 1277 301 1270 294

C1261 286 1253 283 1223 275

C1188 265 1167 248 1162 226

C1160 218 1161 204 1164 196

C1173 176 1193 162 1221 159

C1239 157 1256 159 1272 167

C1280 171 1283 173 1289 179

C1299 190 1306 204 1306 216

L1306 221

L1293 221

L1279 221

L1279 215

C1277 200 1268 188 1253 183

C1239 179 1221 179 1208 185

C1187 194 1182 222 1199 236

C1208 243 1220 248 1245 255

C1275 263 1294 277 1303 294

C1311 311 1309 332 1298 347

C1284 366 1253 376 1221 372

Z

M249 277

L249 183

L216 183

L182 183

L182 172

L182 161

L263 161

L344 161

L344 172

L344 183

L311 183

L277 183

L277 277

L277 370

L263 370

L249 370

L249 277

Z

M364 360

L364 349

L381 349

C390 348 417 348 442 348

L486 348

L486 359

L486 370

L425 370

L364 370

L364 360

Z

M521 266

L521 161

L539 161

L557 161

L563 176

C566 184 573 202 579 217

C584 231 597 262 606 287

L623 331

L624 331

L625 331

L627 326

C628 323 640 291 654 255

C669 219 683 183 686 175

L691 161

L709 161

L727 161

L727 266

L727 370

L713 370

L699 370

L699 331

C699 309 700 273 701 251

C701 229 702 208 702 206

L702 202

L701 203

C700 204 685 242 667 287

L633 370

L624 370

L615 370

L607 350

C603 339 599 330 598 329

C598 327 593 315 587 301

C581 287 573 267 569 256

C564 245 558 229 554 220

L548 203

L547 203

L546 203

L547 221

C547 231 547 241 548 243

C548 245 548 275 549 309

L549 370

L535 370

L521 370

L521 266

Z

M779 266

L779 161

L821 161

C844 161 866 161 871 162

C909 166 931 192 929 228

C927 260 907 280 873 285

C868 286 852 286 836 286

L807 286

L807 328

L807 370

L793 370

L779 370

L779 266

Z

M873 263

C875 262 880 260 883 258

C898 250 905 229 899 210

C895 198 886 189 876 185

C871 184 865 184 839 183

L807 183

L807 223

L807 264

L837 264

C860 264 869 264 873 263

Z

M364 265

L364 254

L381 254

C390 253 417 253 442 253

L486 253

L486 264

L486 275

L425 275

L364 275

L364 265

Z

M364 173

L364 162

L381 162

C390 161 417 161 442 161

L486 161

L486 172

L486 183

L425 183

L364 183

L364 173

Z

"/>

<path fill="#646464" stroke="none" d="
M482 584

C482 583 486 571 491 558

L500 533

L504 533

L508 533

L508 534

C508 535 504 547 499 560

L491 585

L486 585

L482 585

L482 584

Z

M323 557

L324 534

L328 533

L332 533

L332 557

L332 581

L327 581

L323 581

L323 557

Z

M353 557

L354 534

L358 533

L362 533

L362 557

L362 581

L357 581

L353 581

L353 557

Z

M393 580

C390 579 385 575 383 571

C383 569 382 564 381 560

C381 551 383 543 387 539

C393 533 401 532 409 535

C417 538 420 543 420 557

C420 562 420 568 419 570

C417 574 413 578 409 580

C406 581 397 581 393 580

Z

M407 573

C407 573 408 572 409 570

C411 567 411 565 411 557

C411 547 410 544 406 541

C397 537 391 542 390 555

C390 570 394 576 403 574

C405 573 407 573 407 573

Z

M449 561

L449 541

L442 540

L435 540

L435 536

L435 533

L453 533

L471 533

L471 537

L471 540

L465 540

L458 540

L458 561

L458 581

L454 581

L449 581

L449 561

Z

M524 557

L525 534

L529 533

L533 533

L533 557

L533 581

L528 581

L524 581

L524 557

Z

M564 580

C561 579 556 575 554 571

C554 569 553 564 552 560

C552 551 554 543 558 539

C564 533 572 532 580 535

C588 538 591 543 591 557

C591 562 591 568 590 570

C588 574 584 578 580 580

C577 581 568 581 564 580

Z

M578 573

C578 573 579 572 580 570

C582 567 582 565 582 557

C582 547 581 544 577 541

C568 537 562 542 561 555

C561 570 565 576 574 574

C576 573 578 573 578 573

Z

M620 561

L620 541

L613 540

L606 540

L606 536

L606 533

L624 533

L642 533

L642 537

L642 540

L636 540

L629 540

L629 561

L629 581

L625 581

L620 581

L620 561

Z

M681 557

L682 534

L698 533

L714 533

L714 536

L714 540

L703 540

L691 540

L691 547

L691 554

L701 554

L711 554

L711 558

L711 561

L701 561

L691 561

L691 571

L691 581

L686 581

L681 581

L681 557

Z

M730 557

L731 534

L742 534

C760 534 765 537 765 548

C765 551 764 553 762 555

L759 558

L761 560

C764 562 766 567 766 573

C766 575 766 578 767 579

L768 581

L764 581

C761 581 759 580 758 580

C758 579 757 576 757 573

C757 568 757 567 755 564

C752 562 751 562 746 562

L740 562

L740 572

L740 581

L735 581

L730 581

L730 557

Z

M754 553

C757 551 756 545 754 543

C753 541 750 541 746 540

L740 540

L740 547

L740 555

L746 555

C750 555 754 554 754 553

Z

M781 581

C781 580 792 547 795 539

L797 533

L802 533

L806 534

L811 548

C817 563 822 579 822 580

L822 581

L818 581

L813 581

L812 577

C811 574 811 572 810 571

L810 570

L802 570

C793 570 793 570 791 577

L790 581

L785 581

L781 581

L781 581

Z

M807 563

C808 563 803 547 802 546

L801 545

L799 553

C797 557 796 562 796 563

L796 564

L801 564

C804 564 807 564 807 563

Z

M837 557

L838 534

L843 533

L849 533

L850 536

C851 538 854 546 857 554

L862 568

L862 568

L863 568

L869 551

L875 534

L881 534

L887 534

L887 557

L887 581

L882 581

L878 581

L878 564

L879 546

L878 547

C877 547 875 553 873 559

C866 580 866 580 862 581

L859 581

L853 564

C850 554 847 546 846 546

L846 546

L847 563

L847 581

L842 581

L837 581

L837 557

Z

M905 557

L906 534

L922 533

L938 533

L938 536

L938 540

L927 540

L915 540

L915 547

L915 553

L925 553

L934 553

L934 557

L934 560

L925 560

L915 560

L915 567

L915 574

L927 574

L938 574

L938 578

L938 581

L921 581

L905 581

L905 557

Z

M961 581

C961 580 951 537 950 535

L950 533

L954 533

L959 533

L959 535

C960 536 961 544 963 551

C964 558 966 565 966 565

L967 566

L970 552

C972 544 975 537 975 535

L976 533

L979 533

L982 533

L986 548

C988 557 990 564 991 565

L991 567

L992 565

C992 564 994 557 995 549

L999 534

L1003 533

L1007 533

L1007 534

C1007 534 998 572 997 577

L996 581

L992 581

L988 581

L984 566

C981 558 979 551 979 551

L978 550

L977 555

C976 558 974 565 972 571

L970 581

L965 581

L961 581

L961 581

Z

M1033 580

C1030 579 1025 575 1023 571

C1023 569 1022 564 1021 560

C1021 551 1023 543 1027 539

C1033 533 1041 532 1049 535

C1057 538 1060 543 1060 557

C1060 562 1060 568 1059 570

C1057 574 1053 578 1049 580

C1046 581 1037 581 1033 580

Z

M1047 573

C1047 573 1048 572 1049 570

C1051 567 1051 565 1051 557

C1051 547 1050 544 1046 541

C1037 537 1031 542 1030 555

C1030 570 1034 576 1043 574

C1045 573 1047 573 1047 573

Z

M1078 557

L1079 534

L1090 534

C1108 534 1113 537 1113 548

C1113 551 1112 553 1110 555

L1107 558

L1109 560

C1112 562 1114 567 1114 573

C1114 575 1114 578 1115 579

L1116 581

L1112 581

C1109 581 1107 580 1106 580

C1106 579 1105 576 1105 573

C1105 568 1105 567 1103 564

C1100 562 1099 562 1094 562

L1088 562

L1088 572

L1088 581

L1083 581

L1078 581

L1078 557

Z

M1102 553

C1105 551 1104 545 1102 543

C1101 541 1098 541 1094 540

L1088 540

L1088 547

L1088 555

L1094 555

C1098 555 1102 554 1102 553

Z

M1132 557

L1133 534

L1137 533

L1142 533

L1142 543

L1142 553

L1144 553

C1146 553 1148 551 1153 543

C1159 533 1159 533 1165 533

L1170 533

L1169 534

C1169 535 1167 538 1165 541

C1163 543 1160 548 1158 551

L1154 556

L1162 567

C1166 573 1170 578 1170 579

L1171 581

L1166 581

C1160 581 1160 581 1154 571

C1148 562 1147 561 1145 561

L1142 561

L1142 571

L1142 581

L1137 581

L1132 581

L1132 557

Z

M591 501

C677 501 819 501 905 501

L1063 502

L748 502

L434 502

L591 501

Z

M292 475

C280 473 274 464 274 446

C274 430 278 421 287 418

C296 414 308 416 313 422

C315 424 318 430 318 433

L318 435

L315 435

L311 435

L310 431

C308 424 301 420 293 421

C289 422 283 429 282 434

C281 439 281 455 283 459

C285 464 289 469 294 470

C302 471 308 467 310 460

L311 456

L315 456

L318 456

L318 460

C317 464 313 470 309 472

C305 475 298 476 292 475

Z

M408 474

C402 472 398 469 395 464

C393 460 393 459 393 446

C393 432 393 431 395 427

C400 418 409 414 420 416

C427 417 433 422 436 429

C438 433 439 435 439 446

C439 456 438 458 436 462

C431 473 419 478 408 474

Z

M424 467

C429 464 431 458 431 446

C431 437 431 434 429 431

C426 425 421 422 415 422

C403 422 398 432 399 450

C400 454 401 459 401 461

C406 469 415 472 424 467

Z

M474 474

C468 473 464 469 462 466

C461 463 460 459 460 439

L460 416

L464 416

L468 416

L468 438

C468 462 468 464 473 467

C477 470 487 470 491 467

C496 463 497 461 497 437

L497 416

L501 416

L504 416

L504 440

C504 464 504 464 501 467

C499 470 496 472 494 473

C488 475 478 476 474 474

Z

M862 475

C856 474 853 471 849 467

C844 462 843 457 843 445

C843 425 851 416 867 416

C878 416 885 421 887 429

L887 433

L884 433

C881 433 880 432 879 429

C874 419 861 419 854 428

C852 431 851 433 851 444

C851 456 851 458 853 462

C856 467 863 470 870 470

C873 469 876 468 878 468

C880 466 880 465 880 459

L880 452

L874 452

L867 452

L867 449

L867 446

L878 446

L888 446

L888 456

C888 465 888 467 886 469

C881 474 870 477 862 475

Z

M339 446

L339 416

L343 416

L347 416

L347 443

L347 469

L361 469

L375 469

L375 472

L375 475

L357 475

L339 475

L339 446

Z

M527 446

L527 416

L540 416

C554 417 560 419 565 424

C569 430 570 434 570 446

C570 457 569 461 565 467

C560 472 554 474 540 475

L527 475

L527 446

Z

M552 468

C556 466 560 462 562 458

C563 456 563 451 563 446

C563 435 562 432 558 428

C554 423 550 422 542 422

L535 422

L535 446

L535 469

L542 469

C546 469 551 468 552 468

Z

M721 446

L721 416

L741 416

L760 416

L760 419

L760 422

L745 422

L729 422

L729 432

L729 442

L743 442

L756 442

L756 445

L756 447

L743 447

L729 447

L729 458

L729 469

L745 469

L760 469

L760 472

L760 475

L741 475

L721 475

L721 446

Z

M780 446

L780 416

L793 416

C807 417 813 419 818 424

C822 430 823 434 823 446

C823 457 822 461 818 467

C813 472 807 474 793 475

L780 475

L780 446

Z

M805 468

C809 466 813 462 815 458

C816 456 816 451 816 446

C816 435 815 432 811 428

C807 423 803 422 795 422

L788 422

L788 446

L788 469

L795 469

C799 469 804 468 805 468

Z

M912 446

L912 416

L932 416

L951 416

L951 419

L951 422

L936 422

L920 422

L920 432

L920 442

L934 442

L947 442

L947 445

L947 447

L934 447

L920 447

L920 458

L920 469

L936 469

L951 469

L951 472

L951 475

L932 475

L912 475

L912 446

Z

M1099 445

L1099 416

L1104 416

C1109 417 1109 417 1119 440

C1124 453 1128 463 1128 464

L1129 464

L1135 447

C1139 437 1143 428 1143 427

C1144 425 1145 422 1146 420

L1147 416

L1152 416

L1157 416

L1157 446

L1157 475

L1153 475

L1150 475

L1150 452

L1151 428

L1150 429

C1149 429 1145 440 1140 452

L1131 475

L1128 475

C1126 475 1125 473 1119 459

C1116 450 1113 442 1112 441

C1112 439 1110 436 1109 434

C1108 431 1107 429 1107 429

L1106 428

L1107 452

L1107 475

L1103 475

L1099 475

L1099 445

Z

M1182 446

L1182 416

L1186 416

L1190 416

L1190 443

L1190 469

L1204 469

L1218 469

L1218 472

L1218 475

L1200 475

L1182 475

L1182 446

Z

M624 446

L624 443

L646 443

L667 443

L667 446

L667 448

L646 448

L624 448

L624 446

Z

M1002 446

L1002 443

L1024 443

L1045 443

L1045 446

L1045 448

L1024 448

L1002 448

L1002 446

Z

M1026 372

C994 368 973 351 965 323

C963 316 963 313 962 238

L962 161

L976 161

L990 161

L990 235

C990 315 990 317 996 328

C1004 343 1021 352 1043 351

C1067 350 1083 339 1089 320

C1091 314 1091 312 1092 237

L1092 161

L1106 161

L1119 161

L1119 232

C1120 304 1119 314 1116 324

C1109 353 1082 371 1045 372

C1039 373 1030 372 1026 372

Z

M1221 372

C1201 370 1182 361 1169 348

C1161 339 1155 326 1155 314

L1155 310

L1168 310

L1182 310

L1182 316

C1183 324 1186 330 1191 336

C1209 355 1254 356 1271 338

C1278 331 1279 327 1279 318

C1279 307 1277 301 1270 294

C1261 286 1253 283 1223 275

C1188 265 1167 248 1162 226

C1160 218 1161 204 1164 196

C1173 176 1193 162 1221 159

C1239 157 1256 159 1272 167

C1280 171 1283 173 1289 179

C1299 190 1306 204 1306 216

L1306 221

L1293 221

L1279 221

L1279 215

C1277 200 1268 188 1253 183

C1239 179 1221 179 1208 185

C1187 194 1182 222 1199 236

C1208 243 1220 248 1245 255

C1275 263 1294 277 1303 294

C1311 311 1309 332 1298 347

C1284 366 1253 376 1221 372

Z

M249 277

L249 183

L216 183

L182 183

L182 172

L182 161

L263 161

L344 161

L344 172

L344 183

L311 183

L277 183

L277 277

L277 370

L263 370

L249 370

L249 277

Z

M364 360

L364 349

L381 349

C390 348 417 348 442 348

L486 348

L486 359

L486 370

L425 370

L364 370

L364 360

Z

M521 266

L521 161

L539 161

L557 161

L563 176

C566 184 573 202 579 217

C584 231 597 262 606 287

L623 331

L624 331

L625 331

L627 326

C628 323 640 291 654 255

C669 219 683 183 686 175

L691 161

L709 161

L727 161

L727 266

L727 370

L713 370

L699 370

L699 331

C699 309 700 273 701 251

C701 229 702 208 702 206

L702 202

L701 203

C700 204 685 242 667 287

L633 370

L624 370

L615 370

L607 350

C603 339 599 330 598 329

C598 327 593 315 587 301

C581 287 573 267 569 256

C564 245 558 229 554 220

L548 203

L547 203

L546 203

L547 221

C547 231 547 241 548 243

C548 245 548 275 549 309

L549 370

L535 370

L521 370

L521 266

Z

M779 266

L779 161

L821 161

C844 161 866 161 871 162

C909 166 931 192 929 228

C927 260 907 280 873 285

C868 286 852 286 836 286

L807 286

L807 328

L807 370

L793 370

L779 370

L779 266

Z

M873 263

C875 262 880 260 883 258

C898 250 905 229 899 210

C895 198 886 189 876 185

C871 184 865 184 839 183

L807 183

L807 223

L807 264

L837 264

C860 264 869 264 873 263

Z

M364 265

L364 254

L381 254

C390 253 417 253 442 253

L486 253

L486 264

L486 275

L425 275

L364 275

L364 265

Z

M364 173

L364 162

L381 162

C390 161 417 161 442 161

L486 161

L486 172

L486 183

L425 183

L364 183

L364 173

Z

"/>

<path fill="#aeaeae" stroke="none" d="
M483 584

C482 584 486 572 491 558

L499 533

L504 533

L508 533

L506 538

C505 541 502 553 498 564

C491 585 491 585 487 585

C485 585 483 585 483 584

Z

M323 580

C323 579 323 568 323 556

L324 534

L328 533

L332 533

L332 557

L332 581

L328 581

L324 581

L323 580

Z

M353 580

C353 579 353 568 353 556

L354 534

L358 533

L362 533

L362 557

L362 581

L358 581

L354 581

L353 580

Z

M393 580

C390 579 385 575 383 571

C383 569 382 564 381 560

C381 551 383 543 387 539

C393 533 401 532 409 535

C417 538 420 543 420 557

C420 562 420 568 419 570

C417 574 413 578 409 580

C406 581 397 581 393 580

Z

M407 573

C407 573 408 572 409 570

C411 567 411 565 411 557

C411 547 410 544 406 541

C397 537 391 542 390 555

C390 570 394 576 403 574

C405 573 407 573 407 573

Z

M449 580

C449 579 449 570 449 560

L449 541

L442 540

L436 540

L435 536

L435 533

L453 533

L471 533

L471 536

L471 540

L464 540

L458 540

L458 561

L458 581

L454 581

L450 581

L449 580

Z

M524 580

C524 579 524 568 524 556

L525 534

L529 533

L533 533

L533 557

L533 581

L529 581

L525 581

L524 580

Z

M564 580

C561 579 556 575 554 571

C554 569 553 564 552 560

C552 551 554 543 558 539

C564 533 572 532 580 535

C588 538 591 543 591 557

C591 562 591 568 590 570

C588 574 584 578 580 580

C577 581 568 581 564 580

Z

M578 573

C578 573 579 572 580 570

C582 567 582 565 582 557

C582 547 581 544 577 541

C568 537 562 542 561 555

C561 570 565 576 574 574

C576 573 578 573 578 573

Z

M620 580

C620 579 620 570 620 560

L620 541

L613 540

L607 540

L606 536

L606 533

L624 533

L642 533

L642 536

L642 540

L635 540

L629 540

L629 561

L629 581

L625 581

L621 581

L620 580

Z

M681 557

L682 534

L698 533

L714 533

L714 536

L714 540

L702 540

L691 540

L691 547

L691 554

L701 554

L711 555

L711 558

L711 561

L701 561

L691 561

L691 571

L691 581

L686 581

L681 581

L681 557

Z

M730 557

L731 534

L742 534

C760 534 765 537 765 548

C765 551 764 553 762 555

L759 558

L761 560

C764 562 766 566 766 575

L767 581

L763 581

C758 581 757 580 757 573

C757 568 757 567 755 564

C752 562 751 562 746 562

L740 562

L740 571

L740 581

L735 581

L730 581

L730 557

Z

M754 553

C757 551 756 545 754 543

C753 541 750 541 746 540

L740 540

L740 547

L740 555

L746 555

C750 555 754 554 754 553

Z

M782 579

C782 577 789 557 795 539

L797 533

L802 533

L806 534

L811 548

C819 569 822 579 821 580

C821 581 819 581 817 581

L813 581

L812 577

C811 574 811 572 810 571

L810 570

L802 570

C794 570 793 571 791 576

C790 580 789 581 785 581

L782 581

L782 579

Z

M807 563

C808 563 803 547 802 546

L801 545

L799 553

C797 557 796 562 796 563

L796 564

L801 564

C804 564 807 564 807 563

Z

M837 557

L838 534

L843 533

C847 533 848 533 849 535

C850 536 853 543 856 552

L862 568

L862 568

L863 568

L869 551

L875 534

L881 534

L887 534

L887 557

L887 581

L883 581

L879 581

L879 563

L879 546

L878 547

C877 547 872 562 867 577

C865 580 862 582 860 580

C859 579 856 571 853 563

C849 554 847 546 846 546

L846 546

L846 563

L847 581

L842 581

L837 581

L837 557

Z

M905 557

L906 534

L922 533

L938 533

L938 536

L938 540

L926 540

L915 540

L915 546

L915 553

L924 553

L934 554

L934 557

L934 560

L924 560

L915 560

L915 567

L915 574

L926 574

L938 575

L938 578

L938 581

L921 581

L905 581

L905 557

Z

M961 579

C960 577 955 555 951 535

L950 533

L954 533

L959 533

L959 535

C960 536 961 544 963 551

C964 558 966 565 966 565

L967 566

L970 553

C972 546 974 539 975 537

L976 533

L979 533

L982 533

L986 548

C988 557 990 564 991 565

L991 566

L991 566

C992 566 993 560 994 553

C996 545 998 538 998 536

L999 533

L1003 533

L1007 533

L1006 536

C1005 544 997 579 996 580

C995 581 990 581 988 580

C988 580 986 573 984 566

C981 558 979 551 979 551

L978 550

L977 554

C976 557 974 563 973 570

L970 581

L966 581

L962 581

L961 579

Z

M1033 580

C1030 579 1025 575 1023 571

C1023 569 1022 564 1021 560

C1021 551 1023 543 1027 539

C1033 533 1041 532 1049 535

C1057 538 1060 543 1060 557

C1060 562 1060 568 1059 570

C1057 574 1053 578 1049 580

C1046 581 1037 581 1033 580

Z

M1047 573

C1047 573 1048 572 1049 570

C1051 567 1051 565 1051 557

C1051 547 1050 544 1046 541

C1037 537 1031 542 1030 555

C1030 570 1034 576 1043 574

C1045 573 1047 573 1047 573

Z

M1078 557

L1079 534

L1090 534

C1108 534 1113 537 1113 548

C1113 551 1112 553 1110 555

L1107 558

L1109 560

C1112 562 1114 566 1114 575

L1115 581

L1111 581

C1106 581 1105 580 1105 573

C1105 568 1105 567 1103 564

C1100 562 1099 562 1094 562

L1088 562

L1088 571

L1088 581

L1083 581

L1078 581

L1078 557

Z

M1102 553

C1105 551 1104 545 1102 543

C1101 541 1098 541 1094 540

L1088 540

L1088 547

L1088 555

L1094 555

C1098 555 1102 554 1102 553

Z

M1132 557

L1133 534

L1137 533

L1142 533

L1142 543

L1142 553

L1144 553

C1146 553 1148 551 1153 543

C1159 533 1159 533 1165 533

L1170 533

L1169 534

C1169 535 1167 538 1165 541

C1163 543 1160 548 1158 551

L1154 556

L1162 567

C1166 573 1170 579 1170 580

L1170 581

L1166 581

C1160 581 1160 581 1153 570

C1148 562 1147 561 1145 561

L1142 561

L1142 571

L1142 581

L1137 581

L1132 581

L1132 557

Z

M292 475

C280 473 274 464 274 446

C274 430 278 421 287 418

C296 414 308 416 313 422

C315 424 318 430 318 433

L318 435

L315 435

L311 435

L310 431

C308 424 301 420 293 421

C289 422 283 429 282 434

C281 439 281 455 283 459

C285 464 289 469 294 470

C302 471 308 467 310 460

L311 456

L315 456

L318 456

L318 460

C317 464 313 470 309 472

C305 475 298 476 292 475

Z

M408 474

C402 472 398 469 395 464

C393 460 393 459 393 446

C393 432 393 431 395 427

C400 418 409 414 420 416

C427 417 433 422 436 429

C438 433 439 435 439 446

C439 456 438 458 436 462

C431 473 419 478 408 474

Z

M424 467

C429 464 431 458 431 446

C431 437 431 434 429 431

C426 425 421 422 415 422

C403 422 398 432 399 450

C400 454 401 459 401 461

C406 469 415 472 424 467

Z

M474 474

C468 473 464 469 462 466

C461 463 461 459 461 440

L461 417

L464 417

L468 417

L468 440

C468 462 469 463 471 465

C477 472 490 471 495 463

C496 461 497 457 497 439

L498 417

L501 417

L504 417

L504 440

C504 464 504 464 501 467

C499 470 496 472 494 473

C488 475 478 476 474 474

Z

M862 475

C856 474 853 471 849 467

C844 462 843 457 843 445

C843 435 845 428 849 423

C858 411 886 415 886 429

L887 433

L884 433

L881 433

L879 429

C873 419 861 419 854 428

C852 431 851 433 851 444

C851 456 851 458 853 462

C856 467 863 470 870 470

C873 469 876 468 878 468

C880 466 880 465 880 459

L880 452

L874 452

L867 452

L867 449

L867 446

L877 446

L888 447

L888 456

C888 462 888 466 887 468

C884 473 870 477 862 475

Z

M339 445

L339 416

L343 416

L347 417

L347 443

L347 469

L361 469

L375 470

L375 472

L375 475

L357 475

L339 475

L339 445

Z

M527 446

L527 416

L540 416

C554 417 560 419 565 424

C569 430 570 434 570 446

C570 457 569 461 565 467

C560 472 554 474 540 475

L527 475

L527 446

Z

M552 468

C556 466 560 462 562 458

C563 456 563 451 563 446

C563 435 562 432 558 428

C554 423 550 422 542 422

L535 422

L535 446

L535 469

L542 469

C546 469 551 468 552 468

Z

M721 446

L721 416

L740 416

L760 417

L760 419

L760 422

L744 422

L729 422

L729 432

L729 442

L742 442

L756 443

L756 445

L756 447

L742 447

L729 447

L729 458

L729 469

L744 469

L760 470

L760 472

L760 475

L740 475

L721 475

L721 446

Z

M780 446

L780 416

L793 416

C807 417 813 419 818 424

C822 430 823 434 823 446

C823 457 822 461 818 467

C813 472 807 474 793 475

L780 475

L780 446

Z

M805 468

C809 466 813 462 815 458

C816 456 816 451 816 446

C816 435 815 432 811 428

C807 423 803 422 795 422

L788 422

L788 446

L788 469

L795 469

C799 469 804 468 805 468

Z

M912 446

L912 416

L931 416

L951 417

L951 419

L951 422

L935 422

L920 422

L920 432

L920 442

L933 442

L947 443

L947 445

L947 447

L933 447

L920 447

L920 458

L920 469

L935 469

L951 470

L951 472

L951 475

L931 475

L912 475

L912 446

Z

M1099 446

L1099 416

L1104 416

C1109 417 1109 417 1119 440

C1124 453 1128 463 1128 464

L1129 464

L1135 447

C1139 437 1143 428 1143 427

C1144 425 1145 422 1146 420

L1147 416

L1152 416

L1157 417

L1157 446

L1157 475

L1154 475

L1151 475

L1151 451

L1151 428

L1150 429

C1149 429 1145 439 1140 451

C1136 463 1131 473 1131 474

C1128 477 1126 474 1120 460

C1117 453 1114 445 1113 443

C1112 440 1110 436 1109 434

C1108 431 1107 429 1107 429

L1106 428

L1106 451

L1107 475

L1103 475

L1099 475

L1099 446

Z

M1182 445

L1182 416

L1186 416

L1190 417

L1190 443

L1190 469

L1204 469

L1218 470

L1218 472

L1218 475

L1200 475

L1182 475

L1182 445

Z

M624 446

C624 446 624 444 625 444

C625 443 634 443 646 443

L667 444

L667 446

L667 448

L646 448

L625 448

L624 446

Z

M1002 446

C1002 446 1002 444 1003 444

C1003 443 1012 443 1024 443

L1045 444

L1045 446

L1045 448

L1024 448

L1003 448

L1002 446

Z

M1026 372

C994 368 973 351 965 323

C963 316 963 313 962 238

L962 161

L976 161

L990 162

L990 238

C991 320 990 317 996 328

C1004 343 1021 352 1043 351

C1067 350 1083 339 1089 320

C1091 314 1091 312 1092 238

L1093 162

L1106 162

L1119 162

L1119 233

C1120 304 1119 314 1116 324

C1109 353 1082 371 1045 372

C1039 373 1030 372 1026 372

Z

M1221 372

C1194 369 1170 354 1160 335

C1157 328 1154 315 1155 312

L1156 310

L1169 310

L1181 311

L1182 316

C1183 324 1186 330 1191 336

C1209 355 1254 356 1271 338

C1278 331 1279 327 1279 318

C1279 307 1277 301 1270 294

C1261 286 1253 283 1223 275

C1188 265 1167 248 1162 226

C1160 218 1161 204 1164 196

C1173 176 1193 162 1221 159

C1239 157 1256 159 1272 167

C1280 171 1283 173 1289 179

C1300 190 1307 205 1306 216

L1306 221

L1292 221

L1279 221

L1279 215

C1277 200 1268 188 1253 183

C1239 179 1221 179 1208 185

C1187 194 1182 222 1199 236

C1208 243 1220 248 1245 255

C1275 263 1294 277 1303 294

C1311 311 1309 332 1298 347

C1284 366 1253 376 1221 372

Z

M250 369

C249 369 249 327 249 276

L249 183

L216 183

L183 183

L183 172

L183 162

L263 162

L344 162

L344 172

L344 183

L310 183

L277 183

L277 276

L277 370

L263 370

C256 370 250 370 250 369

Z

M364 369

C364 368 364 363 364 358

L365 350

L380 349

C389 348 416 348 441 348

L486 349

L486 359

L486 370

L425 370

L365 370

L364 369

Z

M521 369

C521 368 521 321 521 265

L522 162

L539 161

C552 161 556 161 557 162

C558 163 573 203 589 243

C591 248 600 270 608 292

L623 331

L624 331

L625 331

L627 326

C628 323 640 291 654 255

C669 219 682 184 685 177

C688 169 691 163 691 162

C692 161 696 161 709 161

L727 162

L727 266

L727 370

L713 370

L700 370

L699 334

C699 314 700 277 700 253

C701 228 702 207 702 205

L702 202

L701 203

C700 204 685 242 667 287

L633 370

L624 370

L615 370

L607 350

C603 339 599 330 598 329

C598 327 593 315 587 301

C581 287 573 267 569 256

C564 245 558 229 554 220

L548 203

L547 203

L546 203

L546 213

C548 236 549 276 549 322

L549 370

L535 370

L522 370

L521 369

Z

M779 369

C779 368 779 321 779 265

L780 162

L820 161

C845 161 864 161 871 162

C909 166 931 191 929 228

C927 260 907 280 873 285

C868 286 852 286 836 286

L807 286

L807 328

L807 370

L793 370

L780 370

L779 369

Z

M873 263

C875 262 880 260 883 258

C898 250 905 229 899 210

C895 198 886 189 876 185

C871 184 865 184 839 183

L807 183

L807 223

L807 264

L837 264

C860 264 869 264 873 263

Z

M364 274

C364 273 364 268 364 263

L365 255

L380 254

C389 253 416 253 441 253

L486 254

L486 264

L486 275

L425 275

L365 275

L364 274

Z

M364 182

C364 181 364 176 364 171

L365 163

L380 162

C389 161 416 161 441 161

L486 162

L486 172

L486 183

L425 183

L365 183

L364 182

Z

"/>

<path fill="#d8d8d8" stroke="none" d="
M492 559

L500 533

L504 533

L507 533

L505 538

C505 541 501 553 497 564

L490 584

L486 584

L483 584

L492 559

Z

M681 557

L681 534

L682 535

L683 535

L683 534

L683 533

L698 533

L713 533

L713 536

L713 539

L703 539

C696 539 692 539 691 540

C691 541 690 544 690 547

C690 550 691 553 691 554

C692 555 696 555 701 555

L710 555

L710 558

L710 560

L701 560

C696 560 692 560 691 561

C690 562 690 566 690 571

L690 580

L686 580

L681 581

L681 557

Z

M730 557

L730 534

L731 535

L732 535

L732 534

L732 533

L740 533

L748 533

L748 534

L748 535

L751 535

C753 535 756 536 758 537

C760 538 762 538 762 538

L763 538

L763 539

C763 540 763 543 764 546

C764 551 764 552 762 554

C760 556 759 557 759 558

L759 560

L761 560

C763 561 765 567 765 574

L766 580

L762 580

L759 580

L758 573

C758 568 757 566 756 564

L754 562

L753 563

L752 563

L752 562

L752 561

L747 561

C744 561 741 561 741 562

L739 562

L739 571

L739 580

L735 580

L730 581

L730 557

Z

M755 554

C758 551 757 545 755 542

C752 539 743 538 741 540

C739 541 738 554 740 555

C741 557 753 556 755 554

Z

M837 557

L838 534

L843 533

L849 533

L849 534

L848 534

L849 535

C849 536 852 543 855 552

C858 561 861 568 861 568

L862 569

L863 568

C864 568 875 537 875 534

L875 533

L881 533

L886 533

L886 557

L886 580

L882 580

L879 580

L879 563

L880 546

L879 546

C877 546 869 564 871 566

L871 567

L870 567

L869 567

L869 569

L870 570

L869 570

L868 570

L866 575

L865 580

L862 580

C860 580 859 578 854 564

C851 555 848 548 848 547

L847 546

L846 547

C845 547 845 553 846 564

L846 580

L842 580

L837 581

L837 557

Z

M905 557

L905 534

L906 535

L907 535

L907 534

L907 533

L922 533

L937 533

L937 536

L937 539

L927 539

C920 539 916 539 915 540

C915 541 914 544 914 547

C914 549 915 552 915 553

C916 554 920 554 925 554

L933 554

L933 557

L933 559

L925 559

C920 559 916 559 915 560

C915 561 914 564 914 567

C914 570 915 573 915 574

C916 575 920 575 927 575

L937 575

L937 577

L937 580

L921 580

L905 581

L905 557

Z

M1078 557

L1078 534

L1079 535

L1080 535

L1080 534

L1080 533

L1088 533

L1096 533

L1096 534

L1096 535

L1099 535

C1101 535 1104 536 1106 537

C1108 538 1110 538 1110 538

L1111 538

L1111 539

C1111 540 1111 543 1112 546

C1112 551 1112 552 1110 554

C1108 556 1107 557 1107 558

L1107 560

L1109 560

C1111 561 1113 567 1113 574

L1114 580

L1110 580

L1107 580

L1106 573

C1106 568 1105 566 1104 564

L1102 562

L1101 563

L1100 563

L1100 562

L1100 561

L1095 561

C1092 561 1089 561 1089 562

L1087 562

L1087 571

L1087 580

L1083 580

L1078 581

L1078 557

Z

M1103 554

C1106 551 1105 545 1103 542

C1100 539 1091 538 1089 540

C1087 541 1086 554 1088 555

C1089 557 1101 556 1103 554

Z

M1132 557

L1132 534

L1133 535

L1134 535

L1134 534

L1134 533

L1137 533

L1141 533

L1141 543

L1142 554

L1144 554

C1146 554 1147 553 1153 544

C1157 539 1159 534 1159 534

L1159 533

L1164 533

L1169 533

L1168 534

C1168 535 1165 539 1162 543

C1159 547 1157 551 1157 552

L1157 553

L1155 553

L1154 554

L1154 555

C1154 556 1157 562 1162 568

C1166 574 1169 579 1169 579

L1169 580

L1165 580

C1161 580 1161 580 1154 570

C1148 560 1148 560 1145 560

L1142 561

L1141 570

L1141 580

L1136 580

L1132 581

L1132 557

Z

M324 557

L324 533

L328 533

L331 533

L331 557

L331 580

L327 580

L324 580

L324 557

Z

M354 557

L354 533

L358 533

L361 533

L361 557

L361 580

L357 580

L354 580

L354 557

Z

M391 579

L392 579

L389 576

C384 573 383 569 382 560

C382 551 384 543 387 539

C396 531 411 533 417 543

C419 546 419 548 419 558

C419 568 418 570 416 573

C412 578 410 579 400 580

L391 580

L391 579

Z

M407 573

C408 573 410 571 410 570

C412 567 412 548 410 545

C408 540 400 537 395 541

C392 543 390 548 390 550

L391 552

L390 552

L389 552

L389 557

C389 568 393 575 400 575

C403 575 406 574 407 573

Z

M450 561

C450 547 450 541 449 540

C448 540 445 539 442 539

L436 539

L436 536

L436 533

L453 533

L470 533

L470 536

L470 539

L464 539

L458 539

L458 541

C457 542 457 552 457 562

L457 580

L454 580

L450 580

L450 561

Z

M525 557

L525 533

L529 533

L532 533

L532 557

L532 580

L528 580

L525 580

L525 557

Z

M562 579

L563 579

L560 576

C555 573 554 569 553 560

C553 551 555 543 558 539

C567 531 582 533 588 543

C590 546 590 548 590 558

C590 568 589 570 587 573

C583 578 581 579 571 580

L562 580

L562 579

Z

M578 573

C579 573 581 571 581 570

C583 567 583 548 581 545

C579 540 571 537 566 541

C563 543 561 548 561 550

L562 552

L561 552

L560 552

L560 557

C560 568 564 575 571 575

C574 575 577 574 578 573

Z

M621 561

C621 547 621 541 620 540

C619 540 616 539 613 539

L607 539

L607 536

L607 533

L624 533

L641 533

L641 536

L641 539

L635 539

L629 539

L629 541

C628 542 628 552 628 562

L628 580

L625 580

L621 580

L621 561

Z

M788 563

C791 553 794 544 793 544

L793 543

L794 543

L795 543

L797 538

L798 533

L802 533

L806 533

L806 534

C806 537 815 562 816 562

L817 562

L816 563

C816 564 817 568 818 572

C820 576 821 579 821 580

L821 580

L818 580

C813 580 813 579 812 575

C812 570 811 569 802 569

C794 569 792 570 790 576

L789 580

L786 580

L782 580

L788 563

Z

M807 563

C808 559 804 546 802 545

L800 545

L798 553

C796 557 795 562 796 563

L796 565

L802 565

L807 565

L807 563

Z

M962 578

C961 577 954 544 952 535

L951 533

L955 533

L958 533

L959 538

C959 540 961 548 962 554

C964 561 965 565 966 565

L967 566

L967 566

C968 565 976 536 976 534

L976 533

L979 533

L981 533

L985 548

C987 557 989 564 990 565

L990 566

L991 566

C991 566 992 566 992 565

C993 564 999 536 999 534

L999 533

L1003 533

L1006 533

L1005 536

C1005 538 1003 549 1000 560

L995 580

L992 580

L988 580

L984 565

C981 552 979 549 977 550

C977 551 975 557 973 565

L969 580

L965 580

L962 580

L962 578

Z

M1031 579

L1032 579

L1029 576

C1024 573 1023 569 1022 560

C1022 551 1024 543 1027 539

C1036 531 1051 533 1057 543

C1059 546 1059 548 1059 558

C1059 568 1058 570 1056 573

C1052 578 1050 579 1040 580

L1031 580

L1031 579

Z

M1047 573

C1048 573 1050 571 1050 570

C1052 567 1052 548 1050 545

C1048 540 1040 537 1035 541

C1032 543 1030 548 1030 550

L1031 552

L1030 552

L1029 552

L1029 557

C1029 568 1033 575 1040 575

C1043 575 1046 574 1047 573

Z

M416 475

C415 475 413 474 410 474

C404 473 399 470 396 464

C394 460 394 459 394 445

C394 432 394 431 397 426

C402 418 407 416 423 417

L426 418

L425 418

L425 418

L428 420

C434 424 438 433 438 446

C438 458 434 467 428 471

L425 473

L425 473

L426 474

L422 474

C419 474 417 474 417 475

L416 476

L416 475

Z

M424 467

C430 464 432 458 432 446

C432 437 432 434 430 430

C425 421 413 418 405 424

C399 429 399 432 399 445

C399 451 399 457 399 458

L400 461

L401 460

L402 460

L401 461

L401 463

L404 466

C410 471 417 472 424 467

Z

M865 475

L865 474

L863 474

C859 474 852 470 849 467

C845 462 844 456 844 445

C844 425 851 417 867 417

C877 417 884 421 886 429

L886 432

L884 432

L881 432

L880 429

C879 428 878 425 876 424

L874 422

L873 422

L873 423

L871 421

C868 418 860 420 855 426

C851 430 850 433 850 446

C850 458 851 463 857 467

C863 472 873 472 878 468

C881 466 881 465 881 459

L881 453

L875 452

L869 452

L868 449

L868 447

L877 447

L887 447

L887 457

C887 466 887 467 885 469

C882 472 876 474 872 474

C870 474 868 474 867 475

L865 476

L865 475

Z

M477 474

C471 473 465 470 463 466

C462 463 461 459 461 440

L461 417

L464 417

L467 417

L467 440

C468 463 468 463 471 467

C477 472 486 472 492 467

C498 463 498 460 498 438

L498 417

L501 417

L503 417

L503 440

C503 464 503 464 500 467

C496 473 486 475 477 474

Z

M286 472

C279 469 275 460 275 446

C275 440 276 434 277 431

C278 428 278 425 278 425

L278 424

L279 424

L279 425

L281 423

C285 417 300 415 308 419

C313 422 315 425 316 431

L317 434

L314 434

L312 434

L311 431

C309 424 301 419 294 420

C290 421 283 427 282 432

C280 437 280 454 282 459

C284 464 290 470 292 470

L294 469

L294 470

L294 471

L297 471

C303 471 309 466 311 460

L312 458

L314 457

L317 457

L317 460

C315 465 312 470 307 472

C302 475 292 475 286 472

Z

M339 446

L339 417

L342 417

L346 417

L346 443

L347 470

L360 470

L374 470

L374 472

L374 474

L357 474

L339 474

L339 446

Z

M527 446

L527 417

L540 417

C551 418 554 418 558 420

C565 424 568 429 569 438

C572 454 567 466 558 471

C554 473 551 473 540 474

L527 474

L527 446

Z

M552 469

C556 467 562 461 563 458

C564 454 564 437 563 433

C561 428 554 422 550 421

C548 421 544 421 541 421

L535 422

L534 444

C534 457 534 468 534 469

L535 470

L542 470

C546 470 551 469 552 469

Z

M721 446

L721 417

L740 417

L759 417

L759 419

L759 421

L744 421

L729 422

L729 432

L729 443

L742 443

L755 443

L755 445

L755 446

L742 446

L729 447

L729 458

L729 470

L744 470

L759 470

L759 472

L759 474

L740 474

L721 474

L721 446

Z

M780 446

L780 417

L793 417

C804 418 807 418 811 420

C818 424 821 429 822 438

C825 454 820 466 811 471

C807 473 804 473 793 474

L780 474

L780 446

Z

M805 469

C809 467 815 461 816 458

C817 454 817 437 816 433

C814 428 807 422 803 421

C801 421 797 421 794 421

L788 422

L787 444

C787 457 787 468 787 469

L788 470

L795 470

C799 470 804 469 805 469

Z

M912 446

L912 417

L931 417

L950 417

L950 419

L950 421

L935 421

L920 422

L920 432

L920 443

L933 443

L946 443

L946 445

L946 446

L933 446

L920 447

L920 458

L920 470

L935 470

L950 470

L950 472

L950 474

L931 474

L912 474

L912 446

Z

M1099 446

L1099 417

L1104 417

L1109 417

L1118 440

C1123 454 1127 464 1128 464

L1130 464

L1136 447

C1140 438 1143 430 1142 429

L1142 428

L1143 428

L1144 429

L1146 423

L1148 417

L1152 417

L1156 417

L1156 446

L1156 474

L1154 474

L1151 474

L1151 455

C1151 444 1151 435 1151 435

C1151 434 1152 432 1152 431

L1152 428

L1151 428

C1149 428 1148 431 1139 452

C1132 469 1130 474 1128 474

L1127 474

L1120 457

L1113 439

L1112 440

L1111 440

L1112 439

C1112 438 1111 435 1110 433

L1108 428

L1107 428

L1106 429

L1106 451

L1106 474

L1103 474

L1099 474

L1099 446

Z

M1182 446

L1182 417

L1185 417

L1189 417

L1189 443

L1190 470

L1203 470

L1217 470

L1217 472

L1217 474

L1200 474

L1182 474

L1182 446

Z

M625 446

L625 444

L646 444

L666 444

L666 446

L666 447

L646 447

L625 447

L625 446

Z

M1003 446

L1003 444

L1024 444

L1044 444

L1044 446

L1044 447

L1024 447

L1003 447

L1003 446

Z

M1032 372

C1031 371 1026 371 1021 370

C1011 369 999 364 991 359

C987 356 984 354 983 354

C982 353 980 350 977 347

C969 335 964 323 964 311

C964 308 964 305 963 305

C963 304 963 272 963 233

L963 162

L976 162

L989 162

L989 238

C990 305 990 314 991 319

C992 322 993 325 994 325

L995 325

L994 327

L994 328

L995 329

L997 329

L997 330

L996 331

L999 335

C1002 339 1014 347 1016 347

L1017 346

L1017 347

L1017 348

L1020 349

C1022 350 1024 350 1025 350

L1026 349

L1026 350

L1027 352

L1040 351

C1051 351 1053 351 1060 349

C1070 345 1079 339 1084 333

C1087 328 1090 321 1090 319

L1089 318

L1090 318

L1091 317

L1092 312

C1092 309 1092 306 1092 305

C1093 305 1093 273 1093 233

L1093 162

L1106 162

L1118 162

L1118 237

C1118 316 1118 323 1114 331

C1113 333 1112 334 1113 335

L1113 336

L1112 336

C1112 336 1110 339 1107 342

C1102 350 1100 352 1091 358

C1087 361 1083 363 1082 364

L1081 365

L1081 365

L1081 364

L1076 366

C1073 367 1068 368 1065 369

L1058 370

L1058 371

L1058 372

L1053 371

C1051 371 1048 371 1047 372

C1045 373 1035 373 1032 372

Z

M1227 372

C1227 371 1225 371 1222 371

C1210 371 1188 363 1178 354

C1175 352 1172 350 1171 349

C1170 349 1169 348 1168 347

C1168 346 1166 343 1164 340

C1160 334 1157 326 1156 318

L1156 311

L1168 311

L1181 311

L1181 314

C1181 315 1182 320 1183 323

C1187 336 1199 345 1214 349

C1218 350 1221 351 1222 350

L1224 350

L1224 351

L1224 352

L1233 352

C1242 352 1255 350 1256 348

L1256 347

L1257 348

C1259 349 1267 343 1272 339

C1281 329 1283 315 1277 302

C1275 297 1265 289 1259 286

C1254 283 1239 278 1222 273

C1217 272 1208 269 1203 267

C1187 259 1179 253 1168 241

L1166 238

L1166 238

L1167 238

L1164 231

C1161 222 1161 208 1165 199

C1166 195 1167 191 1167 191

C1168 188 1177 178 1184 172

L1188 169

L1188 170

L1188 170

L1193 168

C1200 164 1210 161 1217 160

C1221 160 1225 159 1226 159

C1227 158 1238 158 1239 159

C1239 160 1241 160 1244 160

C1246 160 1251 161 1254 161

C1258 162 1261 163 1261 162

L1262 162

L1262 163

C1262 163 1279 172 1281 172

C1281 172 1283 174 1284 175

L1286 178

L1287 177

L1288 177

L1288 178

L1287 179

L1291 183

L1296 187

L1295 187

L1295 187

L1298 193

C1303 201 1305 209 1305 215

L1305 220

L1293 220

L1280 220

L1280 217

C1280 213 1278 206 1275 200

C1271 193 1255 181 1251 182

L1250 183

L1250 182

L1250 181

L1244 180

C1232 178 1214 180 1205 185

C1186 196 1182 220 1196 235

C1205 243 1217 248 1245 256

C1265 261 1283 271 1293 281

C1299 288 1305 299 1306 307

C1306 310 1307 313 1307 314

C1308 314 1307 319 1305 331

C1304 334 1304 336 1304 337

L1304 337

L1303 338

C1303 338 1302 339 1302 340

C1301 342 1297 347 1291 353

C1282 362 1264 369 1249 371

C1245 371 1242 371 1241 372

C1239 373 1228 373 1227 372

Z

M250 277

C250 206 250 184 249 183

C248 182 239 182 215 182

L183 182

L183 172

L183 162

L263 162

L343 162

L343 172

L343 182

L311 182

C287 182 278 182 277 183

C276 184 276 206 276 277

L276 369

L263 369

L250 369

L250 277

Z

M365 360

L365 350

L382 350

C391 349 418 349 442 349

L485 349

L485 359

L485 369

L425 369

L365 369

L365 360

Z

M522 266

L522 162

L539 162

C554 162 556 162 557 164

C558 165 559 166 559 167

C559 171 585 236 586 236

L587 236

L587 237

C586 238 597 266 598 267

C598 267 599 268 599 269

C599 272 617 317 618 318

C618 318 619 319 619 321

C619 324 623 331 624 331

C625 331 628 325 627 324

L627 323

L628 323

L629 323

L632 315

C634 310 635 306 635 305

C635 304 636 303 636 303

C637 302 680 192 680 190

C680 189 681 188 681 188

C682 187 684 181 687 175

L692 163

L709 162

L726 162

L726 265

L726 369

L713 369

L700 369

L700 326

C700 302 700 282 700 281

C701 281 701 274 701 266

C701 259 701 252 701 251

C702 250 702 244 702 236

C702 229 702 222 702 221

C703 220 703 216 703 211

L703 203

L701 203

L700 203

L689 229

C683 244 678 257 679 257

L679 258

L678 258

C678 258 667 283 655 314

L633 369

L624 369

L615 369

L607 349

L599 328

L598 328

L597 328

L597 327

C598 327 597 324 596 321

L594 315

L593 315

L592 315

L592 314

C593 313 579 279 578 278

L577 278

L577 277

C578 276 567 249 566 248

L565 248

L565 247

C566 247 565 244 564 241

L562 236

L561 236

L560 236

L560 235

C561 235 558 227 555 219

L549 204

L547 204

L546 204

L545 208

C545 211 545 214 546 215

C546 216 546 223 546 231

C547 250 548 276 548 279

C548 280 548 300 548 325

L548 369

L535 369

L522 369

L522 266

Z

M780 266

L780 162

L822 162

C845 162 865 162 865 162

C866 163 868 163 870 163

C876 163 887 165 894 169

C915 178 926 195 928 220

C929 254 910 278 876 284

C870 285 857 285 837 285

C816 285 808 285 807 286

C806 287 806 298 806 328

L806 369

L793 369

L780 369

L780 266

Z

M873 264

C885 260 894 252 899 240

C901 236 901 233 901 224

L902 213

L900 212

L899 212

L900 211

C900 208 896 200 891 195

L886 189

L885 190

L884 190

L884 189

C883 187 875 184 869 183

C862 182 809 182 807 183

C805 185 805 262 807 264

C809 266 866 265 873 264

Z

M365 265

L365 255

L382 255

C391 254 418 254 442 254

L485 254

L485 264

L485 274

L425 274

L365 274

L365 265

Z

M365 173

L365 163

L382 163

C391 162 418 162 442 162

L485 162

L485 172

L485 182

L425 182

L365 182

L365 173

Z

"/>

<path fill="#e8e8e8" stroke="none" d="
M484 583

C484 583 488 572 492 559

C496 546 500 535 500 535

L500 535

L503 535

L506 535

L506 535

C506 536 490 582 490 583

C489 584 488 584 486 584

L484 584

L484 583

Z

M325 579

C324 579 324 569 324 557

L324 535

L328 535

L331 535

L331 557

L331 580

L328 580

C327 580 325 580 325 579

Z

M355 579

C354 579 354 569 354 557

L354 535

L358 535

L361 535

L361 557

L361 580

L358 580

C357 580 355 580 355 579

Z

M394 579

C387 575 383 570 382 560

C381 548 385 539 394 536

C399 534 403 534 408 536

C416 539 419 544 419 557

C419 567 418 570 414 574

C409 580 400 582 394 579

Z

M405 575

C411 572 412 568 412 558

C412 544 409 539 400 539

C393 539 389 545 389 557

C389 570 392 575 401 576

C401 576 404 575 405 575

Z

M451 579

C450 578 450 569 450 559

L450 540

L443 539

L437 539

L436 537

L436 535

L453 535

L470 535

L470 537

L469 539

L463 539

L457 539

L457 546

C457 550 457 559 457 567

L457 580

L454 580

L451 580

L451 579

Z

M526 579

C525 579 525 569 525 557

L525 535

L529 535

L532 535

L532 557

L532 580

L529 580

C528 580 526 580 526 579

Z

M565 579

C558 575 554 570 553 560

C552 548 556 539 565 536

C570 534 574 534 579 536

C587 539 590 544 590 557

C590 567 589 570 585 574

C580 580 571 582 565 579

Z

M576 575

C582 572 583 568 583 558

C583 544 580 539 571 539

C564 539 560 545 560 557

C560 570 563 575 572 576

C572 576 575 575 576 575

Z

M622 579

C621 578 621 569 621 559

L621 540

L614 539

L608 539

L607 537

L607 535

L624 535

L641 535

L641 537

L640 539

L634 539

L628 539

L628 546

C628 550 628 559 628 567

L628 580

L625 580

L622 580

L622 579

Z

M681 558

L681 535

L682 546

C682 553 682 563 682 569

L681 581

L681 558

Z

M683 558

L683 535

L698 535

L713 535

L713 537

L712 539

L701 539

L691 540

L691 547

L691 555

L700 555

L710 556

L710 558

L710 560

L700 560

L691 561

L690 570

L690 580

L686 580

L683 580

L683 558

Z

M730 558

L730 535

L731 546

C731 553 731 563 731 569

L730 581

L730 558

Z

M732 558

L732 535

L743 535

C749 535 754 536 756 536

C764 540 767 549 761 554

C758 557 758 559 760 561

C763 563 765 568 765 574

L765 580

L763 580

C759 580 758 578 758 572

C758 569 757 566 756 564

L755 562

L753 562

L752 563

L753 562

L753 561

L746 561

L740 562

L739 571

L739 580

L735 580

L732 580

L732 558

Z

M755 554

C756 553 757 551 757 548

C757 541 755 540 746 540

L740 540

L739 546

C739 550 739 554 739 555

L740 556

L747 556

C751 556 754 555 755 554

Z

M783 579

C783 578 786 568 790 557

L798 536

L802 535

L806 535

L813 556

C817 568 820 578 820 579

L820 580

L817 580

C815 580 814 579 813 575

L811 570

L802 569

C793 569 791 569 790 574

C790 579 788 580 785 580

L783 580

L783 579

Z

M809 564

C809 563 808 558 806 554

C804 547 803 545 802 544

L800 544

L798 552

C796 557 795 561 795 563

L795 565

L802 565

L808 565

L809 564

Z

M837 558

L837 535

L838 546

C838 553 838 563 838 569

L837 581

L837 558

Z

M839 558

L839 535

L844 535

L849 535

L854 550

C857 558 859 565 860 566

L860 569

L862 569

L864 569

L870 552

L875 535

L881 535

L886 535

L886 557

L886 580

L883 580

L880 580

L879 563

L879 546

L878 546

L877 546

L870 563

C864 579 863 582 860 579

C860 578 857 571 854 563

C851 554 848 547 848 546

L847 545

L846 546

C845 546 845 553 845 563

L846 580

L842 580

L839 580

L839 558

Z

M905 558

L905 535

L906 546

C906 553 906 563 906 569

L905 581

L905 558

Z

M907 558

L907 535

L922 535

L937 535

L937 537

L936 539

L925 539

L915 540

L915 547

L915 554

L924 554

L933 555

L933 557

L933 559

L924 559

L915 560

L915 567

L915 575

L926 575

L937 576

L937 578

L937 580

L922 580

L907 580

L907 558

Z

M962 578

C961 576 952 537 952 536

L952 535

L955 535

L958 535

L958 535

C958 535 960 542 961 551

L965 567

L966 567

L967 567

L969 563

C969 560 971 553 973 547

L976 535

L979 535

L981 535

L982 538

C982 540 984 547 986 554

C988 560 990 566 990 566

L991 567

L992 566

C992 566 994 559 996 550

L999 535

L1002 535

L1005 535

L1005 536

C1005 538 997 574 995 578

L995 580

L992 580

L989 580

L985 566

C983 558 981 551 980 550

L980 549

L978 550

C977 550 975 556 973 565

L969 580

L966 580

L963 580

L962 578

Z

M1034 579

C1027 575 1023 570 1022 560

C1021 548 1025 539 1034 536

C1039 534 1043 534 1048 536

C1056 539 1059 544 1059 557

C1059 567 1058 570 1054 574

C1049 580 1040 582 1034 579

Z

M1045 575

C1051 572 1052 568 1052 558

C1052 544 1049 539 1040 539

C1033 539 1029 545 1029 557

C1029 570 1032 575 1041 576

C1041 576 1044 575 1045 575

Z

M1078 558

L1078 535

L1079 546

C1079 553 1079 563 1079 569

L1078 581

L1078 558

Z

M1080 558

L1080 535

L1091 535

C1097 535 1102 536 1104 536

C1112 540 1115 549 1109 554

C1106 557 1106 559 1108 561

C1111 563 1113 568 1113 574

L1113 580

L1111 580

C1107 580 1106 578 1106 572

C1106 569 1105 566 1104 564

L1103 562

L1101 562

L1100 563

L1101 562

L1101 561

L1094 561

L1088 562

L1087 571

L1087 580

L1083 580

L1080 580

L1080 558

Z

M1103 554

C1104 553 1105 551 1105 548

C1105 541 1103 540 1094 540

L1088 540

L1087 546

C1087 550 1087 554 1087 555

L1088 556

L1095 556

C1099 556 1102 555 1103 554

Z

M1132 558

L1132 535

L1133 546

C1133 553 1133 563 1133 569

L1132 581

L1132 558

Z

M1134 558

L1134 535

L1137 535

L1141 535

L1141 544

L1142 554

L1145 554

C1147 554 1148 553 1154 545

C1159 535 1160 535 1163 535

L1167 535

L1164 540

C1156 550 1153 555 1153 556

C1153 556 1156 561 1160 567

C1164 572 1167 578 1168 578

L1168 580

L1165 580

C1161 580 1161 580 1155 570

C1149 560 1148 560 1145 560

L1142 561

L1141 570

L1141 580

L1137 580

L1134 580

L1134 558

Z

M326 533

C327 533 329 533 329 533

L331 534

L328 534

L325 534

L326 533

Z

M356 533

C357 533 359 533 359 533

L361 534

L358 534

L355 534

L356 533

Z

M444 533

C449 533 457 533 462 533

L471 534

L453 534

L436 534

L444 533

Z

M501 533

C502 533 504 533 505 533

L507 534

L503 534

L500 534

L501 533

Z

M527 533

C528 533 530 533 530 533

L532 534

L529 534

L526 534

L527 533

Z

M615 533

C620 533 628 533 633 533

L642 534

L624 534

L607 534

L615 533

Z

M691 533

C696 533 702 533 706 533

L714 534

L699 534

L684 534

L691 533

Z

M736 533

C738 533 742 533 744 533

L748 534

L740 534

L733 534

L736 533

Z

M800 533

C801 533 803 533 804 533

L806 534

L802 534

L798 534

L800 533

Z

M842 533

C843 533 845 533 846 533

L849 534

L844 534

L840 534

L842 533

Z

M878 533

C880 533 882 533 883 533

L886 534

L881 534

L876 534

L878 533

Z

M915 533

C920 533 926 533 930 533

L938 534

L923 534

L908 534

L915 533

Z

M953 533

C954 533 956 533 957 533

L959 534

L955 534

L952 534

L953 533

Z

M978 533

C978 533 980 533 980 533

L982 534

L979 534

L977 534

L978 533

Z

M1001 533

C1002 533 1004 533 1005 533

L1007 534

L1003 534

L1000 534

L1001 533

Z

M1084 533

C1086 533 1090 533 1092 533

L1096 534

L1088 534

L1081 534

L1084 533

Z

M1136 533

C1137 533 1139 533 1139 533

L1141 534

L1138 534

L1135 534

L1136 533

Z

M1162 533

C1163 533 1165 533 1166 533

L1169 534

L1164 534

L1160 534

L1162 533

Z

M287 472

C282 470 278 465 276 458

C274 452 275 438 277 431

C278 428 279 425 278 425

L278 424

L279 424

L280 425

L282 423

C287 417 299 415 307 419

C312 422 316 427 316 431

L316 433

L314 433

L312 433

L311 429

C309 423 301 419 293 420

C289 421 284 426 282 431

C280 436 280 455 282 460

C285 469 293 473 302 470

C306 469 311 464 311 461

C311 460 312 459 312 458

L314 457

L315 457

C318 460 313 469 307 472

C301 475 293 475 287 472

Z

M341 445

L341 417

L343 417

L346 418

L346 444

L347 470

L360 470

L374 471

L374 472

L374 474

L357 474

L341 474

L341 445

Z

M405 472

C400 469 395 463 394 458

C393 455 393 449 393 443

C393 434 394 432 396 428

C400 421 406 418 413 417

C423 416 432 421 436 431

C438 436 438 455 436 460

C430 472 417 478 405 472

Z

M425 468

C430 464 432 459 432 446

C432 432 430 427 424 423

C420 420 410 420 406 423

C399 428 397 435 398 450

C399 462 403 468 410 470

C414 471 421 470 425 468

Z

M471 472

C462 467 461 463 461 435

L462 418

L464 418

L467 418

L467 441

C467 462 468 464 470 466

C476 473 490 472 495 465

C497 462 498 460 498 440

L499 418

L501 418

L503 418

L503 440

C503 463 503 463 500 466

C496 472 490 474 482 474

C477 474 474 473 471 472

Z

M529 446

L529 417

L540 417

C553 418 559 420 564 425

C568 431 569 435 569 446

C569 456 568 460 564 466

C559 471 553 473 540 474

L529 474

L529 446

Z

M553 469

C557 467 561 463 563 459

C564 455 564 436 563 432

C561 427 555 422 551 421

C549 421 545 421 541 421

L535 422

L534 444

C534 457 534 468 534 469

L535 470

L543 470

C547 470 551 469 553 469

Z

M723 446

L723 417

L741 417

L759 418

L759 419

L759 421

L744 421

L729 422

L728 432

L728 443

L741 443

L754 444

L754 445

L754 446

L741 446

L728 446

L728 458

L729 470

L744 470

L759 471

L759 472

L759 474

L741 474

L723 474

L723 446

Z

M782 446

L782 417

L793 417

C806 418 812 420 817 425

C821 431 822 435 822 446

C822 456 821 460 817 466

C812 471 806 473 793 474

L782 474

L782 446

Z

M806 469

C810 467 814 463 816 459

C817 455 817 436 816 432

C814 427 808 422 804 421

C802 421 798 421 794 421

L788 422

L787 444

C787 457 787 468 787 469

L788 470

L796 470

C800 470 804 469 806 469

Z

M857 472

C852 470 846 463 845 457

C844 451 844 438 845 433

C849 422 856 417 867 417

C876 417 885 422 885 429

L886 432

L884 432

C883 432 881 430 880 428

C877 422 872 420 865 420

C860 421 856 423 853 427

C851 430 850 432 850 444

C850 458 850 459 852 463

C856 468 862 471 870 471

C873 470 877 469 878 469

C881 467 881 466 881 459

L881 451

L879 451

C879 450 876 450 873 450

L869 450

L869 448

L869 447

L878 447

L887 448

L887 456

C887 466 886 468 880 471

C873 475 864 475 857 472

Z

M914 446

L914 417

L932 417

L950 418

L950 419

L950 421

L935 421

L920 422

L919 432

L919 443

L932 443

L945 444

L945 445

L945 446

L932 446

L919 446

L919 458

L920 470

L935 470

L950 471

L950 472

L950 474

L932 474

L914 474

L914 446

Z

M1101 446

L1101 417

L1105 417

C1108 418 1108 418 1118 441

C1123 454 1127 465 1128 465

L1129 465

L1130 464

C1130 463 1135 453 1139 441

C1144 430 1148 420 1148 419

L1149 417

L1152 417

L1156 418

L1156 446

L1156 474

L1154 474

L1152 474

L1152 451

L1152 428

L1150 428

L1149 427

L1149 428

C1148 428 1144 438 1139 450

C1135 462 1130 472 1129 473

L1128 474

L1127 473

C1127 473 1123 463 1118 452

C1113 440 1109 430 1109 429

L1108 427

L1107 428

L1105 428

L1105 451

L1106 474

L1103 474

L1101 474

L1101 446

Z

M1184 445

L1184 417

L1186 417

L1189 418

L1189 444

L1190 470

L1203 470

L1217 471

L1217 472

L1217 474

L1200 474

L1184 474

L1184 445

Z

M626 446

L625 445

L626 444

C627 444 636 444 646 444

L665 445

L665 446

L666 447

L646 447

C633 447 626 447 626 446

Z

M1004 446

L1003 445

L1004 444

C1005 444 1014 444 1024 444

L1043 445

L1043 446

L1044 447

L1024 447

C1011 447 1004 447 1004 446

Z

M1027 371

C1016 370 1008 367 998 362

C981 354 971 341 966 322

C964 315 964 312 963 238

L963 162

L976 162

L989 162

L989 239

C990 309 990 316 991 321

L993 326

L994 325

L995 325

L995 326

C994 326 994 328 995 328

L995 330

L996 329

L997 329

L997 330

L996 331

L999 335

C1002 340 1013 348 1015 347

L1017 346

L1017 347

L1016 348

L1019 349

C1029 353 1050 353 1061 349

C1069 346 1079 340 1083 335

C1087 330 1090 322 1090 320

L1089 318

L1090 318

L1091 319

L1092 317

C1092 316 1093 280 1093 238

L1093 162

L1106 162

L1118 162

L1118 240

C1117 311 1117 318 1116 323

C1109 347 1092 362 1066 369

C1055 371 1038 372 1027 371

Z

M1222 371

C1208 369 1191 363 1180 356

C1172 350 1165 342 1161 335

C1158 328 1156 320 1156 314

L1156 311

L1168 311

L1181 311

L1181 317

C1183 338 1204 352 1234 352

C1256 352 1271 345 1278 331

C1280 327 1280 325 1280 318

C1280 310 1280 308 1278 303

C1271 289 1260 283 1224 273

C1189 264 1168 247 1163 225

C1159 207 1167 187 1182 175

L1188 171

L1187 170

L1187 169

L1188 169

C1188 170 1192 169 1195 167

C1213 159 1233 157 1254 162

C1257 162 1265 165 1271 168

C1279 172 1282 174 1288 180

C1298 191 1305 205 1305 216

L1305 220

L1293 220

L1281 220

L1280 214

C1279 205 1275 197 1268 191

C1263 186 1255 182 1252 182

L1250 183

L1250 182

L1251 181

L1249 181

C1248 180 1242 180 1236 179

C1214 178 1198 185 1191 200

C1188 205 1188 207 1188 214

C1188 234 1200 244 1244 256

C1266 262 1281 270 1292 282

C1306 296 1310 316 1304 334

C1295 359 1259 375 1222 371

Z

M250 276

L250 183

L216 182

L183 182

L183 172

L183 162

L263 162

L343 162

L343 172

L343 182

L310 182

L277 183

L276 276

L276 369

L263 369

L250 369

L250 276

Z

M522 266

L522 162

L539 162

L556 162

L562 177

C565 185 571 202 576 214

L585 237

L586 236

L587 236

L586 237

C586 239 621 329 623 331

L624 332

L626 331

C627 330 627 328 627 326

L628 323

L628 324

L629 324

L629 323

C630 322 641 292 655 256

C670 220 684 184 687 176

L692 162

L709 162

L726 162

L726 266

L726 369

L713 369

L700 369

L700 332

C700 312 701 275 702 250

C702 225 703 203 703 202

L702 201

L700 202

C699 203 684 241 666 286

L632 369

L624 369

L616 369

L610 354

C607 346 603 337 601 333

L599 327

L598 328

L597 328

L598 327

C598 326 594 315 589 303

C582 285 564 242 562 236

L562 235

L561 236

L560 236

L561 235

C561 233 550 205 548 203

L547 202

L546 203

C545 203 545 213 546 247

C547 270 548 307 548 329

L548 369

L535 369

L522 369

L522 266

Z

M780 266

L780 162

L821 162

C873 162 881 163 897 171

C917 180 929 203 928 228

C926 257 908 277 878 283

C875 284 858 285 840 285

L807 286

L806 327

L806 369

L793 369

L780 369

L780 266

Z

M874 264

C885 260 893 254 898 243

C901 237 901 235 902 226

C902 218 902 215 900 209

C896 196 885 186 872 183

C867 182 859 182 836 182

L807 183

L806 222

C806 244 806 263 806 264

L807 265

L838 265

C860 265 870 265 874 264

Z

"/>

<path fill="#f4f4f4" stroke="none" d="
M485 582

C485 581 489 570 493 558

C500 538 501 535 503 535

L505 535

L505 536

C505 537 501 548 497 560

C490 579 489 583 487 583

L485 583

L485 582

Z

M681 558

L681 535

L682 546

C682 553 682 563 682 569

L681 581

L681 558

Z

M730 558

L730 535

L731 546

C731 553 731 563 731 569

L730 581

L730 558

Z

M837 558

L837 535

L838 546

C838 553 838 563 838 569

L837 581

L837 558

Z

M905 558

L905 535

L906 546

C906 553 906 563 906 569

L905 581

L905 558

Z

M1078 558

L1078 535

L1079 546

C1079 553 1079 563 1079 569

L1078 581

L1078 558

Z

M1132 558

L1132 535

L1133 546

C1133 553 1133 563 1133 569

L1132 581

L1132 558

Z

M325 557

L325 535

L328 535

L330 535

L330 557

L330 579

L328 579

L325 579

L325 557

Z

M355 557

L355 535

L358 535

L360 535

L360 557

L360 579

L358 579

L355 579

L355 557

Z

M392 577

C387 575 384 570 383 563

C381 545 388 534 402 535

C409 536 412 538 416 543

C418 546 418 548 418 557

C418 569 417 573 412 576

C408 579 397 580 392 577

Z

M407 574

C412 570 413 567 413 557

C413 549 413 547 411 544

C407 538 400 536 395 540

C390 544 389 548 389 558

C389 567 390 570 394 574

C397 577 404 577 407 574

Z

M451 560

C451 538 451 538 442 538

L437 538

L437 537

L437 535

L453 535

L469 535

L469 537

L469 538

L464 538

C461 538 458 539 457 539

C456 540 456 546 456 560

L456 579

L454 579

L451 579

L451 560

Z

M526 557

L526 535

L529 535

L531 535

L531 557

L531 579

L529 579

L526 579

L526 557

Z

M563 577

C558 575 555 570 554 563

C552 545 559 534 573 535

C580 536 583 538 587 543

C589 546 589 548 589 557

C589 569 588 573 583 576

C579 579 568 580 563 577

Z

M578 574

C583 570 584 567 584 557

C584 549 584 547 582 544

C578 538 571 536 566 540

C561 544 560 548 560 558

C560 567 561 570 565 574

C568 577 575 577 578 574

Z

M622 560

C622 538 622 538 613 538

L608 538

L608 537

L608 535

L624 535

L640 535

L640 537

L640 538

L635 538

C632 538 629 539 628 539

C627 540 627 546 627 560

L627 579

L625 579

L622 579

L622 560

Z

M683 557

L684 536

L698 535

L712 535

L712 536

L712 538

L702 538

C695 538 691 538 690 539

C690 540 689 543 689 547

C689 551 690 554 690 555

C691 556 695 556 700 556

L709 556

L709 558

L709 559

L700 559

C695 559 691 559 690 560

C689 561 689 565 689 570

L689 579

L686 579

L683 579

L683 557

Z

M732 557

L733 536

L743 536

C759 536 763 538 763 547

C763 551 762 552 760 555

L757 558

L760 561

C763 564 764 566 764 575

L765 579

L762 579

L760 579

L759 573

C758 565 757 563 754 561

C751 560 741 560 739 561

C738 562 738 566 738 571

L738 579

L735 579

L732 579

L732 557

Z

M755 554

C761 549 757 540 750 539

C745 538 741 538 739 539

C738 541 738 554 739 556

C740 557 743 557 747 557

C752 556 753 556 755 554

Z

M784 578

C784 578 787 568 791 556

L798 535

L802 535

L805 535

L810 549

C813 557 816 567 817 571

L820 579

L817 579

L814 579

L814 575

C812 569 811 568 802 568

C793 568 791 569 789 575

L789 579

L786 579

L784 579

L784 578

Z

M807 565

L809 565

L809 563

C809 559 805 547 803 545

L801 543

L800 545

C799 546 797 551 796 555

C793 565 794 566 801 566

C804 566 807 566 807 565

Z

M839 557

L840 536

L844 536

L848 536

L854 552

C857 561 860 569 861 569

L862 570

L863 569

C865 568 876 537 876 535

L876 535

L881 535

L885 535

L885 557

L885 579

L882 579

L880 579

L880 562

L880 546

L878 545

L876 545

L876 547

C875 548 873 553 871 559

C869 564 867 571 866 574

L864 579

L862 579

L860 579

L854 562

L848 546

L846 546

L845 546

L845 562

L845 579

L842 579

L839 579

L839 557

Z

M907 557

L908 536

L922 535

L936 535

L936 536

L936 538

L926 538

C919 538 915 538 914 539

C914 540 913 543 913 547

C913 550 914 553 914 554

C915 555 919 555 924 555

L932 555

L932 557

L932 558

L924 558

C919 558 915 558 914 559

C914 560 913 563 913 567

C913 571 914 574 914 575

C915 576 919 576 926 576

L936 576

L936 578

L936 579

L921 579

L907 579

L907 557

Z

M963 578

C962 575 953 537 953 536

L953 535

L955 535

L957 536

L960 549

C962 556 963 564 963 565

L964 567

L966 567

L968 567

L973 551

L977 536

L979 536

L980 536

L985 550

C987 558 989 565 990 566

C992 569 994 566 995 557

C996 552 998 545 999 542

L1000 535

L1002 535

L1004 535

L1004 537

C1004 538 1002 548 999 559

L995 579

L992 579

L989 579

L988 575

C983 557 981 550 980 549

L979 548

L977 549

C977 550 975 554 974 558

C973 562 971 569 970 572

L968 579

L965 579

L963 579

L963 578

Z

M1032 577

C1027 575 1024 570 1023 563

C1021 545 1028 534 1042 535

C1049 536 1052 538 1056 543

C1058 546 1058 548 1058 557

C1058 569 1057 573 1052 576

C1048 579 1037 580 1032 577

Z

M1047 574

C1052 570 1053 567 1053 557

C1053 549 1053 547 1051 544

C1047 538 1040 536 1035 540

C1030 544 1029 548 1029 558

C1029 567 1030 570 1034 574

C1037 577 1044 577 1047 574

Z

M1080 557

L1081 536

L1091 536

C1107 536 1111 538 1111 547

C1111 551 1110 552 1108 555

L1105 558

L1108 561

C1111 564 1112 566 1112 575

L1113 579

L1110 579

L1108 579

L1107 573

C1106 565 1105 563 1102 561

C1099 560 1089 560 1087 561

C1086 562 1086 566 1086 571

L1086 579

L1083 579

L1080 579

L1080 557

Z

M1103 554

C1109 549 1105 540 1098 539

C1093 538 1089 538 1087 539

C1086 541 1086 554 1087 556

C1088 557 1091 557 1095 557

C1100 556 1101 556 1103 554

Z

M1134 557

L1135 536

L1137 535

L1140 535

L1140 543

C1140 550 1140 552 1142 553

C1145 557 1147 555 1154 544

C1159 536 1160 535 1163 535

L1166 535

L1166 536

C1166 536 1163 540 1160 545

C1156 550 1153 555 1153 556

C1153 556 1156 562 1161 568

L1168 579

L1165 579

C1161 579 1161 578 1155 570

C1148 559 1145 557 1142 561

C1140 562 1140 564 1140 571

L1140 579

L1137 579

L1134 579

L1134 557

Z

M410 473

C405 472 400 468 397 463

C395 460 394 458 394 448

C394 435 395 430 399 425

C403 420 408 418 415 418

C422 418 426 420 431 424

C435 429 436 433 436 446

C436 456 436 458 434 462

C432 468 426 471 420 473

C418 473 415 474 415 474

C415 474 413 473 410 473

Z

M423 469

C425 468 428 465 429 463

C432 459 433 458 433 448

C433 435 432 431 428 426

C425 422 421 420 415 420

C408 420 403 423 399 430

C398 433 398 436 398 446

C398 456 398 458 400 462

C405 471 415 474 423 469

Z

M477 473

C472 472 466 468 464 465

C463 463 462 456 462 440

L462 418

L464 418

L466 418

L466 439

C466 457 466 461 468 464

C470 468 477 472 482 472

C488 472 494 468 497 463

C499 459 499 457 499 438

L499 418

L501 418

L502 418

L502 439

C502 462 502 465 496 469

C493 472 491 472 484 473

C482 474 479 473 477 473

Z

M862 473

C853 471 848 466 846 459

C845 453 845 437 846 431

C848 426 853 421 858 419

C861 418 871 417 875 419

C879 420 884 425 885 428

L885 431

L884 431

C883 431 881 429 880 427

C878 424 877 422 873 421

C868 419 865 419 860 421

C851 424 849 429 849 445

C849 455 849 458 851 461

C856 470 864 474 874 471

C880 469 882 467 882 460

C882 456 882 452 881 452

L881 450

L875 450

L869 450

L869 449

L869 448

L878 448

L886 448

L886 457

C886 467 886 467 882 469

C880 471 877 472 876 472

C870 474 865 474 862 473

Z

M288 472

C284 470 279 465 277 460

C276 453 276 438 278 431

C279 425 285 419 290 418

C297 417 306 418 309 421

C312 423 315 427 315 430

L316 433

L314 433

L312 433

L312 430

C310 423 301 418 294 419

C289 420 284 425 281 431

C279 437 279 454 281 460

C285 470 294 474 303 470

C308 468 312 463 312 460

L312 458

L314 458

L316 458

L315 461

C314 465 313 467 309 470

C306 472 305 473 298 473

C294 473 289 473 288 472

Z

M341 446

L341 418

L343 418

L345 418

L345 443

C345 462 345 469 346 470

C347 471 352 471 360 471

L373 471

L373 472

L373 473

L357 473

L341 473

L341 446

Z

M529 446

L529 418

L541 418

C554 419 558 420 564 426

C568 431 569 435 569 446

C569 456 568 460 564 465

C558 471 554 472 541 473

L529 473

L529 446

Z

M553 469

C562 466 565 460 565 446

C565 431 562 425 553 422

C548 420 536 419 534 421

C533 422 533 429 533 446

C533 462 533 469 534 470

C536 472 548 471 553 469

Z

M723 446

L723 418

L741 418

L758 418

L758 419

L758 420

L744 420

C734 420 729 420 728 421

C726 423 727 441 728 443

C729 443 735 444 742 444

L755 445

L742 445

C734 445 729 445 728 446

C727 447 727 451 727 458

C727 465 727 469 728 470

C729 471 734 471 744 471

L758 471

L758 472

L758 473

L741 473

L723 473

L723 446

Z

M782 446

L782 418

L794 418

C807 419 811 420 817 426

C821 431 822 435 822 446

C822 456 821 460 817 465

C811 471 807 472 794 473

L782 473

L782 446

Z

M806 469

C815 466 818 460 818 446

C818 431 815 425 806 422

C801 420 789 419 787 421

C786 422 786 429 786 446

C786 462 786 469 787 470

C789 472 801 471 806 469

Z

M914 446

L914 418

L932 418

L949 418

L949 419

L949 420

L935 420

C925 420 920 420 919 421

C917 423 918 441 919 443

C920 443 926 444 933 444

L946 445

L933 445

C925 445 920 445 919 446

C918 447 918 451 918 458

C918 465 918 469 919 470

C920 471 925 471 935 471

L949 471

L949 472

L949 473

L932 473

L914 473

L914 446

Z

M1101 445

L1101 418

L1105 418

C1108 419 1108 419 1117 441

C1122 453 1127 464 1127 464

L1129 465

L1130 464

C1131 464 1135 453 1140 441

C1149 419 1149 418 1152 418

L1155 418

L1155 445

L1155 473

L1153 473

L1152 473

L1152 451

C1152 436 1152 428 1151 427

L1150 426

L1149 427

C1148 428 1143 439 1139 451

L1130 473

L1128 473

L1127 473

L1118 450

L1109 427

L1107 427

L1105 428

L1105 450

L1105 473

L1103 473

L1101 473

L1101 445

Z

M1184 446

L1184 418

L1186 418

L1188 418

L1188 443

C1188 462 1188 469 1189 470

C1190 471 1195 471 1203 471

L1216 471

L1216 472

L1216 473

L1200 473

L1184 473

L1184 446

Z

M636 445

C641 445 650 445 656 445

L666 446

L646 446

L626 446

L636 445

Z

M1014 445

C1019 445 1028 445 1034 445

L1044 446

L1024 446

L1004 446

L1014 445

Z

M1028 371

C995 367 973 350 966 322

C964 315 964 310 964 239

L964 163

L976 163

L989 163

L989 239

C990 323 989 320 996 331

C1004 345 1020 353 1043 352

C1067 351 1084 340 1090 321

C1092 315 1092 314 1093 239

L1094 163

L1106 163

L1118 163

L1118 240

C1118 310 1117 317 1116 323

C1108 350 1085 368 1050 371

C1039 372 1039 372 1028 371

Z

M1222 371

C1196 368 1171 353 1161 335

C1158 327 1155 316 1156 313

L1157 311

L1169 311

L1180 312

L1181 317

C1184 339 1204 352 1234 352

C1251 352 1265 347 1272 339

C1279 332 1280 328 1280 318

C1281 306 1278 300 1271 293

C1262 285 1254 282 1224 274

C1203 268 1187 260 1176 249

C1165 238 1161 227 1162 212

C1165 175 1206 152 1253 162

C1272 166 1291 179 1299 195

C1303 204 1306 215 1305 218

L1304 220

L1292 220

L1281 220

L1280 214

C1278 201 1269 189 1258 184

C1244 177 1221 177 1207 184

C1185 193 1181 223 1198 237

C1207 244 1219 249 1244 256

C1274 264 1293 277 1302 295

C1309 311 1308 331 1297 345

C1287 360 1268 369 1244 371

C1233 372 1233 372 1222 371

Z

M250 368

C250 367 250 325 250 275

L250 183

L217 182

L184 182

L184 172

L184 163

L263 163

L343 163

L343 172

L343 182

L310 182

L277 183

L276 276

L276 369

L263 369

L251 369

L250 368

Z

M522 368

C522 367 522 321 522 265

L523 163

L539 162

L556 162

L558 168

C560 172 575 210 592 253

L622 332

L624 332

L626 332

L659 247

L692 162

L709 162

L726 163

L726 266

L726 369

L713 369

L701 369

L700 336

C700 318 701 281 702 253

C703 214 703 203 702 202

L701 201

L700 202

C699 203 684 241 666 286

L632 369

L624 369

L616 369

L603 338

C597 321 582 284 570 255

L549 202

L547 202

L545 202

L545 215

C547 250 548 305 548 335

L548 369

L535 369

L523 369

L522 368

Z

M780 368

C780 367 780 321 780 265

L781 163

L819 162

C862 162 875 163 887 167

C914 176 930 199 928 228

C926 257 908 277 878 283

C875 284 858 285 840 285

L807 286

L806 327

L806 369

L793 369

L781 369

L780 368

Z

M874 264

C886 260 893 254 899 242

C901 237 901 235 902 226

C902 218 902 215 900 209

C896 196 886 186 873 184

C867 182 860 182 836 182

L807 183

L806 222

C806 244 806 263 806 264

L807 265

L838 265

C861 265 870 265 874 264

Z

"/>

<path fill="#ffffff" stroke="none" d="
M1025 370

C990 366 968 345 965 313

C964 308 964 272 964 233

L964 163

L976 163

L988 163

L988 235

C988 314 988 315 994 328

C1003 347 1028 357 1053 351

C1069 348 1082 339 1087 328

C1093 316 1093 318 1094 237

L1094 163

L1106 163

L1117 163

L1117 233

C1117 271 1117 305 1117 309

C1116 339 1098 360 1067 368

C1056 370 1036 371 1025 370

Z

M1218 370

C1204 368 1187 361 1176 352

C1170 347 1169 346 1165 340

C1160 332 1158 327 1157 319

L1157 312

L1168 312

L1180 312

L1180 317

C1183 333 1197 346 1218 351

C1228 353 1235 353 1247 351

C1268 348 1281 334 1281 317

C1281 308 1279 302 1272 295

C1265 287 1256 283 1239 277

C1214 270 1207 268 1199 264

C1182 256 1172 247 1167 235

C1164 229 1164 228 1164 215

C1164 202 1164 201 1166 196

C1172 183 1181 174 1195 167

C1219 156 1255 158 1277 171

C1292 180 1304 199 1304 215

L1304 219

L1293 219

L1281 219

L1280 213

C1278 200 1269 188 1258 184

C1251 181 1239 178 1232 178

C1225 178 1214 181 1207 183

C1188 193 1181 217 1194 233

C1201 242 1214 248 1240 255

C1266 263 1279 269 1291 281

C1299 289 1303 297 1305 308

C1307 318 1305 330 1302 338

C1295 352 1280 363 1260 368

C1250 370 1229 371 1218 370

Z

M251 276

C251 225 250 183 250 182

C249 182 234 181 216 181

L184 181

L184 172

L184 163

L263 163

L342 163

L342 172

L342 181

L310 181

C292 181 277 182 276 182

C276 183 275 225 275 276

L275 368

L263 368

L251 368

L251 276

Z

M523 266

L523 163

L539 163

L556 163

L558 169

C560 173 574 210 591 253

C608 295 621 330 622 331

L622 332

L624 332

L626 332

L628 326

C630 321 676 205 690 168

L692 163

L709 163

L725 163

L725 266

L725 368

L713 368

L701 368

L701 330

C701 309 702 272 703 249

C703 226 704 205 703 204

L703 201

L701 201

C701 201 700 202 699 203

C698 204 689 227 679 253

C668 280 653 316 646 335

L632 368

L624 368

L616 368

L603 336

C596 319 581 282 570 254

C559 226 549 203 548 202

L547 201

L546 202

C544 203 544 213 546 257

C547 271 547 303 547 326

L547 368

L535 368

L523 368

L523 266

Z

M781 265

L781 163

L828 163

C881 164 882 164 897 171

C908 176 916 184 921 195

C926 206 927 214 927 228

C925 257 911 273 882 282

C878 283 869 283 842 284

C823 284 807 285 806 285

C806 286 805 305 805 327

L805 368

L793 368

L781 368

L781 265

Z

M872 264

C875 264 881 262 883 260

C898 252 906 231 901 213

C899 204 897 200 891 194

C881 183 872 181 835 181

C820 181 807 182 806 182

C806 183 806 201 806 224

C806 258 806 264 807 265

C808 266 821 266 837 266

C859 266 867 266 872 264

Z

"/>

</svg>

