<svg id="svg" viewBox="-80 0 500 300" version="1.1" width="400" height="399.64476021314385" xmlns="http://www.w3.org/2000/svg" xmlns:xlink="http://www.w3.org/1999/xlink" style="display: block;"><g id="svgg"><path id="path0" d="" stroke="none" fill="#bfbfbf" fill-rule="evenodd"></path><path id="path1" d="" stroke="none" fill="#d6d6d6" fill-rule="evenodd"></path><path id="path2" d="M265.519 18.917 L 264.476 20.071 265.631 19.028 C 266.266 18.454,266.785 17.934,266.785 17.873 C 266.785 17.599,266.492 17.840,265.519 18.917 M252.556 31.528 L 251.332 32.860 252.664 31.635 C 253.904 30.496,254.160 30.195,253.889 30.195 C 253.829 30.195,253.230 30.795,252.556 31.528 M322.202 38.122 C 322.202 38.183,322.722 38.702,323.357 39.276 L 324.512 40.320 323.468 39.165 C 322.496 38.089,322.202 37.847,322.202 38.122 M389.343 105.617 C 389.343 105.679,389.862 106.198,390.497 106.772 L 391.652 107.815 390.608 106.661 C 389.636 105.585,389.343 105.343,389.343 105.617 M179.218 127.176 C 180.576 128.544,181.766 129.663,181.864 129.663 C 181.961 129.663,180.931 128.544,179.574 127.176 C 178.217 125.808,177.026 124.689,176.928 124.689 C 176.831 124.689,177.861 125.808,179.218 127.176 M373.693 142.718 L 372.469 144.050 373.801 142.826 C 374.534 142.152,375.133 141.553,375.133 141.493 C 375.133 141.222,374.833 141.478,373.693 142.718 M197.869 145.759 C 197.869 145.821,198.388 146.340,199.023 146.914 L 200.178 147.957 199.134 146.803 C 198.162 145.727,197.869 145.485,197.869 145.759 M236.767 185.080 C 237.530 185.861,238.235 186.501,238.332 186.501 C 238.430 186.501,237.886 185.861,237.123 185.080 C 236.359 184.298,235.655 183.659,235.557 183.659 C 235.460 183.659,236.004 184.298,236.767 185.080 M317.752 198.313 L 315.275 200.888 317.851 198.411 C 320.243 196.110,320.589 195.737,320.328 195.737 C 320.274 195.737,319.115 196.896,317.752 198.313 " stroke="none" fill="#e7e7e7" fill-rule="evenodd"></path><path id="path3" d="M274.269 10.213 C 268.851 15.635,250.774 33.579,234.098 50.089 C 192.120 91.647,168.384 115.336,168.384 115.670 C 168.384 115.825,173.719 121.315,180.241 127.869 C 206.436 154.197,272.573 220.925,273.414 221.875 C 273.773 222.281,276.234 224.715,278.882 227.285 L 283.696 231.956 299.308 216.485 C 307.895 207.975,327.200 188.836,342.208 173.952 C 357.216 159.069,376.392 140.053,384.821 131.694 L 400.147 116.496 394.605 110.912 C 391.557 107.841,380.933 97.146,370.997 87.144 C 361.060 77.142,340.305 56.201,324.873 40.608 C 292.761 8.159,284.924 0.355,284.454 0.355 C 284.270 0.355,279.687 4.791,274.269 10.213 M0.000 115.986 L 0.000 197.869 81.883 197.869 L 163.766 197.869 163.766 115.986 L 163.766 34.103 81.883 34.103 L 0.000 34.103 0.000 115.986 M0.000 317.761 L 0.000 399.645 81.884 399.645 L 163.767 399.645 163.677 317.851 L 163.588 236.057 81.794 235.967 L 0.000 235.878 0.000 317.761 M202.131 317.762 L 202.131 399.645 284.014 399.645 L 365.897 399.645 365.897 317.762 L 365.897 235.879 284.014 235.879 L 202.131 235.879 202.131 317.762 " stroke="none" fill="#f3f3f3" fill-rule="evenodd"></path><path id="path4" d="M273.709 10.391 L 266.607 17.584 273.801 10.483 C 280.485 3.885,281.155 3.197,280.903 3.197 C 280.852 3.197,277.615 6.434,273.709 10.391 M310.660 26.288 C 315.934 31.661,320.322 36.010,320.411 35.954 C 320.500 35.897,316.186 31.501,310.823 26.185 L 301.072 16.519 310.660 26.288 M262.689 21.403 L 260.568 23.623 262.789 21.503 C 264.010 20.337,265.009 19.338,265.009 19.283 C 265.009 19.020,264.658 19.341,262.689 21.403 M244.741 39.343 L 243.517 40.675 244.849 39.451 C 246.089 38.311,246.345 38.011,246.073 38.011 C 246.014 38.011,245.414 38.610,244.741 39.343 M232.498 51.243 L 228.952 54.885 232.593 51.339 C 234.596 49.389,236.234 47.750,236.234 47.698 C 236.234 47.441,235.791 47.861,232.498 51.243 M342.629 58.615 C 343.789 59.787,344.818 60.746,344.916 60.746 C 345.013 60.746,344.144 59.787,342.984 58.615 C 341.824 57.442,340.795 56.483,340.697 56.483 C 340.600 56.483,341.469 57.442,342.629 58.615 M222.019 61.723 L 217.940 65.897 222.114 61.818 C 225.991 58.028,226.449 57.549,226.193 57.549 C 226.141 57.549,224.263 59.427,222.019 61.723 M347.957 63.943 C 349.511 65.506,350.863 66.785,350.960 66.785 C 351.058 66.785,349.866 65.506,348.313 63.943 C 346.759 62.380,345.407 61.101,345.310 61.101 C 345.212 61.101,346.403 62.380,347.957 63.943 M355.968 71.983 C 360.449 76.529,366.105 82.102,366.545 82.402 C 366.677 82.493,363.429 79.176,359.328 75.031 C 355.227 70.887,351.798 67.496,351.709 67.496 C 351.619 67.496,353.536 69.515,355.968 71.983 M214.720 69.005 L 213.677 70.160 214.831 69.116 C 215.466 68.543,215.986 68.023,215.986 67.962 C 215.986 67.688,215.693 67.929,214.720 69.005 M211.356 72.380 L 209.414 74.423 211.456 72.481 C 212.580 71.413,213.499 70.494,213.499 70.438 C 213.499 70.175,213.159 70.482,211.356 72.380 M206.200 77.531 L 204.796 79.041 206.306 77.637 C 207.710 76.331,207.979 76.021,207.710 76.021 C 207.652 76.021,206.972 76.701,206.200 77.531 M189.343 94.316 C 188.480 95.195,187.854 95.915,187.952 95.915 C 188.049 95.915,188.835 95.195,189.698 94.316 C 190.561 93.437,191.187 92.718,191.089 92.718 C 190.992 92.718,190.206 93.437,189.343 94.316 M179.215 104.171 L 171.403 112.071 178.508 105.148 C 184.942 98.878,187.479 96.270,187.147 96.270 C 187.081 96.270,183.512 99.825,179.215 104.171 M396.448 112.789 C 398.296 114.645,399.888 116.163,399.986 116.163 C 400.084 116.163,398.651 114.645,396.803 112.789 C 394.954 110.933,393.362 109.414,393.264 109.414 C 393.167 109.414,394.599 110.933,396.448 112.789 M392.714 124.067 L 385.613 131.261 392.806 124.160 C 399.490 117.561,400.160 116.874,399.908 116.874 C 399.857 116.874,396.620 120.111,392.714 124.067 M173.357 121.314 C 174.616 122.584,175.725 123.623,175.823 123.623 C 175.921 123.623,174.971 122.584,173.712 121.314 C 172.454 120.044,171.344 119.005,171.246 119.005 C 171.148 119.005,172.098 120.044,173.357 121.314 M183.304 131.195 C 183.304 131.256,183.823 131.775,184.458 132.349 L 185.613 133.393 184.569 132.238 C 183.597 131.162,183.304 130.920,183.304 131.195 M383.113 133.304 L 381.350 135.169 383.215 133.406 C 384.241 132.436,385.080 131.597,385.080 131.541 C 385.080 131.276,384.751 131.571,383.113 133.304 M189.165 137.123 C 190.127 138.099,190.995 138.899,191.092 138.899 C 191.190 138.899,190.483 138.099,189.520 137.123 C 188.558 136.146,187.691 135.346,187.593 135.346 C 187.496 135.346,188.203 136.146,189.165 137.123 M197.865 146.105 C 201.086 149.371,203.788 152.043,203.870 152.043 C 204.160 152.043,193.085 140.873,192.259 140.332 C 192.121 140.242,194.643 142.839,197.865 146.105 M365.542 150.799 C 364.679 151.679,364.053 152.398,364.150 152.398 C 364.248 152.398,365.034 151.679,365.897 150.799 C 366.760 149.920,367.386 149.201,367.288 149.201 C 367.191 149.201,366.405 149.920,365.542 150.799 M354.094 162.257 C 349.850 166.506,346.259 170.142,346.115 170.337 C 345.970 170.533,349.483 167.097,353.921 162.703 C 361.389 155.307,362.151 154.527,361.901 154.531 C 361.852 154.531,358.339 158.008,354.094 162.257 M212.256 160.568 C 213.810 162.131,215.161 163.410,215.259 163.410 C 215.356 163.410,214.165 162.131,212.611 160.568 C 211.057 159.005,209.706 157.726,209.608 157.726 C 209.510 157.726,210.702 159.005,212.256 160.568 M217.407 165.719 C 218.468 166.794,219.416 167.673,219.514 167.673 C 219.612 167.673,218.823 166.794,217.762 165.719 C 216.701 164.645,215.753 163.766,215.655 163.766 C 215.557 163.766,216.345 164.645,217.407 165.719 M221.300 169.538 C 222.772 171.107,223.091 171.389,223.091 171.122 C 223.091 171.065,222.331 170.306,221.403 169.435 L 219.716 167.851 221.300 169.538 M343.317 172.735 L 342.274 173.890 343.428 172.847 C 344.063 172.273,344.583 171.753,344.583 171.692 C 344.583 171.418,344.289 171.659,343.317 172.735 M339.770 176.643 L 338.366 178.153 339.876 176.749 C 341.280 175.443,341.549 175.133,341.280 175.133 C 341.222 175.133,340.542 175.813,339.770 176.643 M336.876 179.244 L 335.879 180.158 337.034 179.355 C 337.669 178.913,338.188 178.502,338.188 178.441 C 338.188 178.161,337.795 178.401,336.876 179.244 M237.833 186.501 C 239.190 187.869,240.381 188.988,240.478 188.988 C 240.576 188.988,239.545 187.869,238.188 186.501 C 236.831 185.133,235.641 184.014,235.543 184.014 C 235.445 184.014,236.476 185.133,237.833 186.501 M326.801 189.254 L 325.577 190.586 326.909 189.362 C 328.149 188.222,328.405 187.922,328.134 187.922 C 328.074 187.922,327.475 188.521,326.801 189.254 M322.363 193.694 L 320.959 195.204 322.469 193.800 C 323.873 192.494,324.142 192.185,323.873 192.185 C 323.815 192.185,323.136 192.864,322.363 193.694 M254.174 202.842 C 257.687 206.359,260.641 209.236,260.739 209.236 C 260.836 209.236,258.042 206.359,254.529 202.842 C 251.017 199.325,248.062 196.448,247.965 196.448 C 247.867 196.448,250.661 199.325,254.174 202.842 M309.550 206.400 C 307.964 207.960,306.769 209.236,306.894 209.236 C 307.019 209.236,308.393 207.957,309.947 206.394 C 311.501 204.831,312.696 203.555,312.603 203.558 C 312.510 203.561,311.136 204.840,309.550 206.400 M298.378 217.584 C 295.153 220.808,292.602 223.446,292.709 223.446 C 292.816 223.446,295.537 220.808,298.757 217.584 C 301.976 214.361,304.527 211.723,304.425 211.723 C 304.324 211.723,301.602 214.361,298.378 217.584 M267.836 216.430 C 268.707 217.358,269.466 218.117,269.523 218.117 C 269.790 218.117,269.508 217.798,267.940 216.326 L 266.252 214.742 267.836 216.430 M280.284 228.952 C 281.936 230.613,283.368 231.972,283.466 231.972 C 283.563 231.972,282.292 230.613,280.639 228.952 C 278.987 227.291,277.556 225.933,277.458 225.933 C 277.360 225.933,278.632 227.291,280.284 228.952 M284.702 230.995 L 283.659 232.149 284.813 231.106 C 285.448 230.532,285.968 230.012,285.968 229.951 C 285.968 229.677,285.675 229.918,284.702 230.995 " stroke="none" fill="#ffffff" fill-rule="evenodd"></path></g></svg>