<svg viewBox="-80 0 500 300" id="svg" version="1.1" width="400" height="691.2442396313364" xmlns="http://www.w3.org/2000/svg" xmlns:xlink="http://www.w3.org/1999/xlink" style="display: block;"><g id="svgg"><path id="path0" d="M0.000 52.000 L 0.000 104.000 200.000 104.000 L 400.000 104.000 400.000 52.000 L 400.000 0.000 200.000 0.000 L 0.000 0.000 0.000 52.000 M0.000 346.800 L 0.000 399.200 200.000 399.200 L 400.000 399.200 400.000 346.800 L 400.000 294.400 200.000 294.400 L 0.000 294.400 0.000 346.800 M0.000 639.200 L 0.000 691.200 200.000 691.200 L 400.000 691.200 400.000 639.200 L 400.000 587.200 200.000 587.200 L 0.000 587.200 0.000 639.200 " stroke="none" fill="#f3f3f3" fill-rule="evenodd"></path><path id="path1" d="M99.900 104.300 C 154.955 104.356,245.045 104.356,300.100 104.300 C 355.155 104.244,310.110 104.198,200.000 104.198 C 89.890 104.198,44.845 104.244,99.900 104.300 M99.900 587.100 C 154.955 587.156,245.045 587.156,300.100 587.100 C 355.155 587.044,310.110 586.998,200.000 586.998 C 89.890 586.998,44.845 587.044,99.900 587.100 " stroke="none" fill="#f2f2f2" fill-rule="evenodd"></path><path id="path2" d="M0.000 52.000 L 0.000 104.000 200.000 104.000 L 400.000 104.000 400.000 52.000 L 400.000 0.000 200.000 0.000 L 0.000 0.000 0.000 52.000 M0.000 346.800 L 0.000 399.200 200.000 399.200 L 400.000 399.200 400.000 346.800 L 400.000 294.400 200.000 294.400 L 0.000 294.400 0.000 346.800 M0.000 639.200 L 0.000 691.200 200.000 691.200 L 400.000 691.200 400.000 639.200 L 400.000 587.200 200.000 587.200 L 0.000 587.200 0.000 639.200 " stroke="none" fill="#f3f3f3" fill-rule="evenodd"></path><path id="path3" d="M99.900 104.700 C 154.955 104.756,245.045 104.756,300.100 104.700 C 355.155 104.644,310.110 104.598,200.000 104.598 C 89.890 104.598,44.845 104.644,99.900 104.700 M99.900 294.300 C 154.955 294.356,245.045 294.356,300.100 294.300 C 355.155 294.244,310.110 294.198,200.000 294.198 C 89.890 294.198,44.845 294.244,99.900 294.300 M99.900 586.700 C 154.955 586.756,245.045 586.756,300.100 586.700 C 355.155 586.644,310.110 586.598,200.000 586.598 C 89.890 586.598,44.845 586.644,99.900 586.700 " stroke="none" fill="#f4f4f4" fill-rule="evenodd"></path><path id="path4" d="M99.900 104.700 C 154.955 104.756,245.045 104.756,300.100 104.700 C 355.155 104.644,310.110 104.598,200.000 104.598 C 89.890 104.598,44.845 104.644,99.900 104.700 M99.900 294.300 C 154.955 294.356,245.045 294.356,300.100 294.300 C 355.155 294.244,310.110 294.198,200.000 294.198 C 89.890 294.198,44.845 294.244,99.900 294.300 M99.900 586.700 C 154.955 586.756,245.045 586.756,300.100 586.700 C 355.155 586.644,310.110 586.598,200.000 586.598 C 89.890 586.598,44.845 586.644,99.900 586.700 " stroke="none" fill="#f4f4f4" fill-rule="evenodd"></path></g></svg>